<svg width="500" height="200" viewBox="0 0 500 200" fill="none" xmlns="http://www.w3.org/2000/svg">
<g clip-path="url(#clip0_2_9)">
<path d="M363.662 162.897C362.768 163.033 361.091 163.033 359.936 162.897C358.781 162.76 359.517 162.65 361.566 162.643C363.615 162.643 364.556 162.754 363.662 162.897Z" fill="#BF4E4A"/>
<path d="M329.666 162.897C328.511 163.033 326.416 163.033 325.009 162.903C323.603 162.773 324.544 162.663 327.105 162.663C329.666 162.656 330.821 162.767 329.666 162.897Z" fill="#BF4E4A"/>
<path d="M317.791 162.247C316.767 162.383 314.881 162.383 313.6 162.253C312.319 162.117 313.157 162.006 315.463 162C317.768 162 318.816 162.11 317.791 162.247Z" fill="#BF4E4A"/>
<path d="M162.643 160.908C161.7 161.031 159.931 161.031 158.712 160.908C157.494 160.786 158.27 160.688 160.432 160.682C162.594 160.682 163.587 160.781 162.643 160.908Z" fill="#F09C94"/>
<path d="M38.1967 90.4259C38.0886 91.705 38.0002 90.9201 38.0002 88.6817C37.9953 86.4433 38.0837 85.3968 38.1918 86.3561C38.2999 87.3154 38.2999 89.1468 38.1967 90.4259Z" fill="#F09C94"/>
<path d="M114.914 16.2628C117.363 15.5754 122.26 14.5268 125.797 13.9384C130.837 13.0879 134.473 12.8957 142.615 13.0471C152.113 13.2219 153.404 13.3675 157.702 14.8006C160.289 15.6628 164.182 17.4629 166.354 18.8028C169.099 20.498 171.454 22.5836 174.041 25.6129C176.811 28.8577 178.226 31.1064 179.551 34.3512C180.531 36.7572 181.565 39.903 181.847 41.3419C182.128 42.7867 182.509 45.6703 182.687 47.7501C182.91 50.2551 182.757 53.3543 182.232 56.9253C181.802 59.8906 181.001 63.8228 180.452 65.6637C179.907 67.5046 179.462 69.0775 179.462 69.159C179.467 69.2406 180.526 69.3105 181.817 69.3105C183.108 69.3163 185.556 69.7125 187.258 70.1843C188.96 70.662 191.408 71.6291 192.699 72.334C193.995 73.0389 196.548 75.3866 198.388 77.577C200.337 79.8897 201.816 81.2355 201.935 80.8102C202.053 80.4082 202.414 79.0334 202.746 77.7518C203.077 76.4701 203.849 74.2448 204.467 72.8C205.086 71.3611 206.223 69.4853 207 68.6406C207.772 67.79 209.518 66.4502 210.878 65.6521C212.238 64.8539 214.909 63.7471 216.814 63.1937C219.436 62.4363 221.662 62.2499 225.965 62.4422C230.961 62.6635 232.044 62.5295 234.869 61.3644C236.64 60.6304 239.529 59.7915 241.299 59.4944C243.08 59.1973 245.727 59.174 247.235 59.4362C248.729 59.6983 250.624 60.1527 251.44 60.444C252.256 60.7353 253.646 61.411 254.532 61.9353C255.417 62.4655 257.163 64.0092 258.415 65.3724C259.666 66.7356 261.165 68.8212 262.817 72.1592L267.066 67.3822C269.406 64.7549 272.522 61.7547 273.991 60.7178C275.465 59.6808 278.448 57.9157 280.625 56.7972C282.801 55.6787 286.254 54.3388 288.292 53.8203C290.666 53.2203 293.337 52.9756 295.712 53.1504C298.383 53.3426 300.307 53.8844 302.578 55.0961C304.606 56.1738 306.51 57.77 310.057 62.314L312.654 59.6168C314.083 58.1312 316.478 55.9408 317.971 54.7466C319.465 53.5523 321.805 51.9095 323.165 51.0998C324.526 50.29 327.083 49.1016 328.854 48.455C330.625 47.8083 333.627 47.0976 335.532 46.8762C337.619 46.6315 340.271 46.7422 342.21 47.1617C343.98 47.5345 346.508 48.5482 347.834 49.3987C349.16 50.2551 351.108 52.0668 354.081 55.9059L354.591 54.3038C354.868 53.4242 355.367 51.9386 355.704 51.0066C356.035 50.0803 357.03 48.5715 357.915 47.6569C358.8 46.7481 360.136 45.6296 360.883 45.181C361.63 44.7266 364.024 43.6722 366.201 42.8333C368.377 41.9944 371.602 41.1497 373.373 40.9516C375.144 40.7594 377.424 40.7652 378.443 40.9691C379.462 41.173 380.912 41.9827 381.659 42.7692C382.846 44.0217 383.241 44.1324 384.75 43.643C385.7 43.3401 387.817 43.0838 389.449 43.0838C391.082 43.0779 393.585 43.4741 395.014 43.9576C396.444 44.4411 398.225 45.4839 400.332 47.7151L401.94 45.4024C402.855 44.0916 404.67 42.4779 406.144 41.6798C407.574 40.905 411.076 39.7049 413.935 39.0117C417.501 38.1437 420.395 37.8116 423.175 37.9456C426.306 38.0971 427.533 38.4117 430.011 40.5497L433.227 38.3359C434.997 37.1184 438 35.528 439.904 34.7998C442.521 33.7978 444.51 33.4774 448.066 33.4832C452.162 33.4949 453.082 33.6871 455.239 35.0154C456.599 35.8542 458.548 37.6194 459.567 38.9418C460.586 40.2584 461.892 42.5886 462.466 44.1091C463.045 45.6296 463.633 48.5831 463.772 50.6628C463.915 52.7484 463.747 56.2845 463.396 58.5274C463.045 60.7702 462.461 63.5898 462.09 64.7899C461.724 65.9899 461.531 66.9745 461.669 66.9745C461.808 66.9745 463.084 66.5434 464.514 66.0132C466.339 65.3316 468.14 65.1336 470.573 65.3375C472.651 65.5122 474.827 66.1006 476.014 66.8172C477.103 67.4696 478.982 69.2814 480.194 70.8368C481.406 72.3981 482.776 74.7225 483.246 76.0041C483.711 77.2857 484.354 79.9072 484.676 81.8297C485.141 84.6492 485.116 86.2862 484.533 90.2767C484.137 93.0031 483.068 97.3257 482.163 99.8889C481.253 102.452 479.25 106.781 477.706 109.501C476.158 112.228 473.254 116.521 471.251 119.049C469.248 121.578 465.938 125.283 463.895 127.287C461.857 129.285 457.96 132.681 455.239 134.825C452.518 136.969 446.731 140.796 442.378 143.324C437.308 146.266 431.441 149.092 426.054 151.177C421.429 152.966 414.974 155.179 411.709 156.088C408.444 157.003 402.879 158.273 399.343 158.919C395.806 159.56 391.245 160.364 389.202 160.708C387.164 161.046 381.599 161.774 376.836 162.327C369.589 163.166 364.113 163.3 343.199 163.126C329.462 163.015 306.421 162.898 292.002 162.869C269.45 162.817 264.815 162.957 258.86 163.86C255.051 164.436 248.709 165.665 244.762 166.598C240.815 167.524 235.641 168.951 233.261 169.767C230.882 170.582 228.542 171.258 228.067 171.264C227.592 171.27 226.104 170.419 224.763 169.371C223.418 168.322 221.751 166.615 221.053 165.572C220.356 164.529 219.668 163.673 219.534 163.667C219.401 163.656 219.119 164.442 218.916 165.415C218.713 166.382 217.749 169.207 216.779 171.689C215.389 175.237 214.222 177.107 211.338 180.427C208.578 183.602 206.649 185.216 203.582 186.935C201.336 188.187 197.943 189.655 196.038 190.191C193.753 190.838 191.146 191.1 188.371 190.966C185.057 190.809 183.588 190.436 181.446 189.212C179.952 188.356 177.751 186.521 176.564 185.135C175.376 183.748 173.986 181.628 173.472 180.427C172.962 179.227 172.542 177.392 172.542 176.35C172.542 175.307 173.457 172.225 174.58 169.505C175.703 166.784 177.256 162.59 178.033 160.184C178.809 157.783 179.339 155.68 179.21 155.523C179.081 155.366 177.691 155.943 176.128 156.805C174.565 157.673 171.84 158.844 170.069 159.409C167.759 160.143 165.112 160.422 160.67 160.399C155.971 160.37 153.775 160.09 151.519 159.234C149.887 158.617 147.344 157.201 145.875 156.088C144.401 154.976 142.081 152.622 140.721 150.863C139.355 149.103 137.525 145.824 136.65 143.581C135.769 141.338 134.775 137.93 134.434 136.007C134.092 134.085 133.85 129.827 133.884 126.541C133.924 123.255 133.845 120.57 133.711 120.57C133.578 120.57 131.851 121.525 129.878 122.696C127.904 123.873 124.55 125.51 118.55 127.852L116.844 134.842C115.904 138.687 113.915 146.092 112.426 151.3C110.937 156.508 109.018 162.403 108.162 164.407C107.302 166.411 105.358 169.51 103.834 171.293C102.083 173.349 99.6987 175.33 97.354 176.687C95.316 177.864 91.8633 179.356 89.6868 179.996C87.5103 180.643 83.7262 181.325 81.2777 181.517C77.8942 181.785 76.0541 181.628 73.6105 180.87C71.8445 180.323 69.2822 179.21 67.9219 178.394C66.5616 177.579 64.672 176.152 63.7173 175.219C62.7626 174.287 61.3726 172.423 60.6257 171.077C59.8788 169.732 59.2654 167.844 59.2654 166.883C59.2604 165.846 59.9876 163.836 61.0511 161.931C62.0404 160.172 63.9152 156.496 65.2211 153.775C66.527 151.055 68.9162 145.282 70.5337 140.959C72.1512 136.637 74.5602 129.495 75.8908 125.09C77.2215 120.686 78.1959 116.952 78.0624 116.783C77.9288 116.614 77.261 116.713 76.5784 117.01C75.9007 117.307 73.2296 117.989 70.6425 118.537C67.447 119.207 64.6769 119.416 61.986 119.189C59.8095 119.008 56.5794 118.327 54.8135 117.674C53.0475 117.028 50.411 115.641 48.9617 114.599C47.5123 113.556 45.3111 111.26 44.0695 109.501C42.8279 107.742 41.245 104.852 40.5574 103.093C39.8699 101.334 39.019 98.5782 38.6579 96.9762C38.3018 95.3741 38.005 91.838 38.0001 89.1116C37.9951 86.3911 38.3315 82.587 38.747 80.6646C39.1625 78.7421 40.3497 75.072 41.3786 72.5087C42.4124 69.9455 44.2327 66.1472 45.4298 64.0617C46.6318 61.9819 49.8422 57.6361 52.5727 54.4145C55.3032 51.193 59.76 46.6082 62.4807 44.2256C65.2013 41.8488 69.8758 38.1612 72.8685 36.0407C75.8612 33.9202 80.0905 31.1297 82.267 29.8422C84.4435 28.5548 89.3406 26.0556 93.1494 24.2847C96.9583 22.5195 102.414 20.2708 105.269 19.2863C108.123 18.3076 112.466 16.9444 114.914 16.2628Z" fill="#BD0305"/>
<path d="M306.343 129.903C304.7 130.032 302.121 130.032 300.617 129.903C299.113 129.773 300.453 129.669 303.604 129.669C306.756 129.669 307.986 129.773 306.343 129.903Z" fill="#BF4E4A"/>
<path d="M368.58 129.247C367.484 129.383 365.468 129.383 364.099 129.253C362.729 129.117 363.626 129.006 366.09 129C368.555 129 369.675 129.11 368.58 129.247Z" fill="#BF4E4A"/>
<path d="M195.196 106.267C197.025 105.516 199.28 104.432 200.212 103.848C201.143 103.27 201.946 102.817 201.996 102.853C202.045 102.883 201.659 104.908 201.133 107.357C200.603 109.8 200.023 112.439 199.84 113.214C199.656 113.994 199.339 114.733 199.136 114.852C198.933 114.977 198.878 114.543 199.012 113.887C199.151 113.232 199.091 112.695 198.888 112.695C198.685 112.695 197.57 113.166 196.41 113.738C195.255 114.31 194.309 115.114 194.304 115.526C194.304 115.937 193.506 118.481 192.534 121.186C191.558 123.891 189.774 127.912 188.57 130.123C187.36 132.333 184.981 135.932 183.276 138.119C181.572 140.305 178.509 143.397 176.462 145C174.42 146.597 170.96 148.724 168.78 149.725C166.426 150.803 163.407 151.685 161.346 151.888C158.753 152.144 157.311 151.977 155.646 151.226C154.422 150.672 152.469 149.153 151.309 147.842C150.15 146.537 149.208 145.668 149.213 145.912C149.218 146.156 148.554 145.417 147.731 144.273C146.908 143.129 146.125 141.717 145.986 141.145C145.768 140.24 145.947 140.275 147.344 141.413C148.232 142.14 149.961 143.082 151.185 143.511C152.415 143.94 154.645 144.279 156.142 144.273C157.643 144.261 160.429 143.862 162.337 143.38C164.245 142.903 167.59 141.449 169.771 140.156C171.952 138.863 175.089 136.379 176.739 134.633C178.39 132.887 180.65 130.26 181.755 128.782C182.865 127.311 184.862 124.093 186.196 121.633C187.529 119.178 189.353 115.019 191.88 107.631L195.196 106.267Z" fill="#A90405"/>
<path d="M69.2854 99.7009C71.6941 98.8251 73.2999 97.836 74.1623 96.6981L75.4459 95L76.8733 97.1449C77.6613 98.3246 78.3106 99.6235 78.3155 100.035C78.3254 100.446 78.1073 100.642 77.8348 100.481C77.5622 100.321 77.1855 100.785 76.9972 101.524C76.8088 102.263 76.5957 103.27 76.5263 103.758C76.452 104.253 76.2191 104.712 76.001 104.783C75.7829 104.855 74.9354 105.593 74.1177 106.428C73.2999 107.268 71.8527 108.191 70.8962 108.489C69.9446 108.781 68.0464 109.198 66.6835 109.413C65.3205 109.627 62.7582 109.502 60.9839 109.133C58.8478 108.686 56.9744 107.816 55.4331 106.553C54.1544 105.51 52.4693 103.449 51.6961 101.971C50.918 100.499 49.9962 98.4855 49 95.715L50.1597 97.0198C50.7991 97.7407 52.4346 98.9442 53.7975 99.7009C55.8543 100.845 57.0735 101.071 60.9839 101.041C64.3442 101.024 66.7182 100.636 69.2854 99.7009Z" fill="#A90405"/>
<path d="M350.938 92.0971C350.836 91.6016 351.046 90.9249 351.406 90.6046C351.766 90.2844 352.273 90.0125 352.531 90.0004C352.79 89.9883 353 90.2542 353 90.5865C353 90.9188 352.831 91.1907 352.625 91.1907C352.419 91.1907 352.336 91.7345 352.438 92.3992C352.539 93.0638 352.456 93.6077 352.25 93.6077C352.044 93.6077 351.961 94.0185 352.062 94.514C352.164 95.0155 352.081 95.2874 351.875 95.1182C351.669 94.9551 351.429 95.1545 351.342 95.5714C351.219 96.1575 351.114 96.1454 350.874 95.517C350.701 95.0759 350.435 94.7376 350.281 94.7617C350.127 94.792 350 94.6832 350 94.514V93.6077C350 93.2753 350.251 93.0034 350.562 93.0034C350.896 93.0034 351.05 92.6348 350.938 92.0971Z" fill="#BD0305"/>
<path d="M195 98.0208V92.6441C195 89.6884 195.188 87.3825 195.42 87.5263C195.653 87.67 195.821 88.0323 195.791 88.3313C195.766 88.6303 196.073 89.2629 196.483 89.7344C196.893 90.206 197.353 92.0863 197.506 93.9035C197.66 95.7206 197.714 97.2387 197.63 97.2732C197.541 97.3077 196.918 97.4917 195 98.0208Z" fill="#A90405"/>
<path d="M454.299 96.4509C456.069 94.9846 459.406 91.5401 461.715 88.7971C464.024 86.0484 465.952 83.777 465.996 83.7482C466.036 83.7195 465.754 84.6683 465.359 85.8529C464.968 87.0375 463.821 89.4066 462.812 91.1145C461.799 92.8166 459.584 95.8586 457.884 97.8713C456.183 99.8782 453.182 102.914 451.21 104.611C449.237 106.307 445.401 109.079 442.682 110.764C439.963 112.449 438.069 113.374 438.479 112.822C439.162 111.902 439.107 111.822 437.861 111.851C437.115 111.862 436.393 112.196 436.255 112.592C436.057 113.167 435.958 113.167 435.76 112.592C435.622 112.196 434.732 111.356 433.783 110.723C432.404 109.803 431.899 108.964 431.291 106.554C430.871 104.893 430.149 103.075 429.684 102.512C429.22 101.948 429.007 101.494 429.21 101.506C429.413 101.517 430.194 102.046 430.94 102.69C431.711 103.351 433.481 104.013 435.019 104.214C436.517 104.404 439.181 104.254 440.951 103.869C442.721 103.484 445.722 102.259 447.625 101.143C449.529 100.033 452.53 97.923 454.299 96.4509Z" fill="#A90405"/>
<path d="M348.132 85.4906C348.746 85.2088 350.688 84.3175 352.458 83.5067C354.228 82.6959 355.785 82.0174 355.919 82.0001C356.057 81.9829 355.726 84.0645 355.177 86.6177C354.273 90.8558 354.05 91.333 352.582 92.0806C351.529 92.6154 351.059 93.1962 351.222 93.7597C351.371 94.2715 351.168 94.6223 350.728 94.6223C350.318 94.6223 349.986 94.881 349.986 95.1973C349.986 95.5136 350.041 95.9679 350.11 96.2036C350.179 96.4394 350.402 96.5717 350.604 96.4912C350.807 96.4107 350.975 96.6062 350.975 96.9224C350.975 97.2387 351.143 97.5032 351.346 97.5147C351.549 97.5262 351.989 96.9454 352.32 96.2209C352.893 94.9846 352.908 95.0076 352.626 96.6349C352.458 97.5837 352.137 98.7511 351.914 99.2226C351.563 99.9472 351.499 99.9242 351.484 99.0789C351.474 98.5268 351.247 98.0725 350.975 98.0725C350.703 98.0725 350.387 98.3946 350.273 98.7913C350.159 99.1881 350.046 98.9293 350.026 98.2163C350.006 97.5032 349.818 96.9224 349.616 96.9224C349.413 96.9224 348.024 99.4469 346.536 102.529C345.043 105.611 342.363 110.074 340.574 112.449C338.789 114.818 336.559 117.187 335.625 117.71C334.686 118.228 333.138 119.389 332.189 120.286C331.24 121.183 328.901 122.529 326.998 123.277C324.467 124.277 322.321 124.662 319.009 124.726C315.024 124.8 314.293 124.657 312.953 123.518C312.112 122.805 311.203 122.224 310.931 122.224C310.659 122.224 309.438 121.063 308.212 119.637C306.986 118.21 305.819 116.284 305.246 113.656L302.942 116.071C301.671 117.4 299.382 119.648 297.85 121.074C296.317 122.5 293.104 124.823 290.711 126.25C288.318 127.676 286.049 129.136 285.668 129.504C285.288 129.872 281.249 130.585 276.695 131.086C272.142 131.586 268.024 132 267.549 132C267.011 132 266.645 131.511 266.58 130.706C266.521 129.993 266.244 129.349 265.963 129.269C265.681 129.188 265.102 128.285 264.677 127.256C264.257 126.227 263.98 124.818 264.059 124.122C264.148 123.38 263.802 122.472 263.224 121.937C262.675 121.431 263.224 121.592 264.46 122.311C266.145 123.282 267.821 123.656 271.381 123.84C275.034 124.03 277.012 123.817 280.28 122.88C282.588 122.213 286.37 120.568 288.679 119.217C290.983 117.865 294.211 115.611 295.847 114.208C297.479 112.805 299.877 110.539 303.515 106.698L303.762 108.711C303.916 109.964 304.712 111.609 305.863 113.064C306.882 114.352 308.607 115.905 309.695 116.508C311.134 117.308 312.75 117.607 315.627 117.607C317.803 117.607 320.917 117.193 322.549 116.692C324.18 116.192 326.85 115.002 328.481 114.041C330.113 113.081 332.337 111.523 333.425 110.568C334.512 109.619 336.139 107.906 337.039 106.761C337.938 105.617 339.595 103.259 340.712 101.523C341.834 99.7862 343.713 96.0311 344.894 93.1847C346.071 90.3382 347.03 87.555 347.03 87.003C347.025 86.4509 347.519 85.7666 348.132 85.4906Z" fill="#A90405"/>
<path d="M286.509 83.7885C286.306 83.8002 286.459 83.3219 286.851 82.7328C287.536 81.7062 287.581 81.7179 287.844 83.0244C287.998 83.7769 288.345 84.2552 288.618 84.0977C288.891 83.9344 289.09 84.0043 289.055 84.2435C289.025 84.4826 289.025 85.1417 289.055 85.7017C289.09 86.2616 289.397 87.0491 289.74 87.4515C290.087 87.854 290.643 88.9039 290.98 89.7846C291.318 90.6654 291.928 91.3886 292.34 91.3886C292.747 91.3886 293.586 91.9253 294.201 92.5785C295.119 93.5584 295.864 93.7392 298.414 93.5993C300.241 93.5001 301.516 93.6693 301.526 94.0134C301.531 94.3342 301.774 94.2 302.062 93.7217C302.454 93.0743 302.509 93.4476 302.285 95.1799C302.067 96.8598 302.122 97.2681 302.489 96.6381C302.826 96.051 302.997 96.0024 303 96.4923C303.005 96.8948 301.725 98.5688 300.156 100.219C298.588 101.864 296.295 104.017 295.07 104.997C293.839 105.976 291.606 107.423 290.107 108.205C288.395 109.103 286.082 109.733 283.904 109.902C280.837 110.141 280.226 110.007 278.693 108.776C277.735 108.012 276.976 106.997 277.001 106.531C277.02 106.064 277.179 105.282 277.348 104.804C277.517 104.32 277.983 101.958 278.38 99.5545C278.782 97.1456 279.015 94.8533 278.901 94.4508C278.787 94.0484 280.147 92.0127 281.929 89.9304C283.705 87.8423 284.99 86.145 284.782 86.1566C284.574 86.1683 284.956 85.6317 285.641 84.9726C286.32 84.3135 286.713 83.7769 286.509 83.7885Z" fill="#BD0305"/>
<path d="M472.782 86.3072C473.475 83.9468 474.04 81.1109 474.035 80.0052L474.025 78L475.02 80.1484C475.564 81.3286 476.005 82.7494 476 83.2994C476 83.8494 475.777 84.6916 475.505 85.1614C475.104 85.866 474.96 85.7686 474.366 83.1562L473.95 84.4452C473.653 85.3733 473.812 86.2556 474.525 87.5962C475.104 88.6847 475.51 90.4665 475.515 91.893C475.515 93.2336 474.96 95.8747 474.277 97.7653C473.599 99.6559 472.109 102.813 470.97 104.783C469.832 106.754 467.658 110.289 466.143 112.644C464.628 114.993 461.747 118.476 459.747 120.378C457.742 122.28 455.514 124.194 454.797 124.635C454.074 125.07 453.321 125.718 453.123 126.067C452.915 126.422 452.762 126.451 452.767 126.124C452.767 125.809 452.376 126.119 451.891 126.817C451.405 127.511 450.678 128.084 450.267 128.078C449.856 128.078 449.193 128.49 448.782 128.995C448.371 129.499 447.762 129.768 447.42 129.596C447.079 129.418 446.856 129.596 446.925 129.991C446.994 130.387 446.658 130.645 446.183 130.564C445.707 130.484 445.316 130.679 445.316 130.994C445.316 131.309 444.985 131.567 444.574 131.567C444.163 131.567 443.93 131.762 444.049 131.997C444.173 132.231 443.059 133.137 441.574 134.002C440.093 134.867 438.658 135.445 438.385 135.291C438.113 135.136 437.108 135.652 436.158 136.437C435.207 137.227 434.148 137.863 433.806 137.863C433.465 137.857 430.96 138.763 428.237 139.88C425.514 140.991 423.063 142.171 422.791 142.498C422.448 142.903 422.613 142.983 423.286 142.739C423.946 142.498 423.864 142.651 423.039 143.197C422.36 143.65 420.687 144.314 419.326 144.675C417.964 145.036 416.296 145.363 415.613 145.403C414.935 145.443 413.93 145.248 413.385 144.979C412.652 144.612 412.494 144.664 412.766 145.185C412.984 145.597 412.831 146.01 412.395 146.176C411.984 146.331 410.91 146.463 410.004 146.463C409.093 146.463 408.261 146.6 408.147 146.772C408.033 146.944 406.271 147.184 404.226 147.305C402.187 147.431 398.617 147.935 396.305 148.422C393.994 148.915 390.236 149.51 387.959 149.751C385.686 149.992 383.736 150.381 383.627 150.616C383.523 150.851 384.38 150.868 385.538 150.645C387.117 150.347 387.548 150.416 387.271 150.931C387.058 151.326 387.162 151.636 387.518 151.659C387.86 151.676 387.691 151.922 387.147 152.192C386.602 152.467 385.32 152.833 384.3 153.011C383.281 153.194 382.538 153.532 382.652 153.767C382.766 154.002 381.375 154.386 379.558 154.621C377.741 154.856 374.642 155.05 372.666 155.05C370.691 155.056 368.018 154.81 366.726 154.5C365.434 154.197 360.033 153.704 354.721 153.4C348.612 153.051 345.022 152.627 344.943 152.237C344.874 151.882 343.562 151.619 341.849 151.619C339.428 151.619 338.923 151.779 339.126 152.478C339.334 153.194 338.606 153.366 334.795 153.504C332.275 153.595 328.705 153.532 326.859 153.36C324.641 153.154 323.339 152.759 323.037 152.192C322.666 151.51 321.482 151.344 317.235 151.395C313.185 151.447 311.482 151.705 310.165 152.478C308.616 153.389 305.972 153.549 285.412 153.985C272.749 154.254 260.833 154.724 258.927 155.022C257.021 155.325 253.288 155.583 250.635 155.6C247.981 155.618 244.303 155.996 242.466 156.448C240.63 156.901 237.456 157.915 235.412 158.706C233.372 159.49 230.139 160.785 228.233 161.582C226.327 162.378 224.154 163.037 223.406 163.054C222.322 163.071 222.04 162.813 222.025 161.788C222.01 161.077 222.367 160.115 222.812 159.639C223.298 159.13 223.56 158.156 223.456 157.233C223.298 155.795 223.55 155.549 226.872 153.939C228.847 152.976 233.189 151.309 236.525 150.238C239.862 149.161 244.263 147.878 246.303 147.379C248.347 146.886 252.357 146.107 255.214 145.643C258.07 145.185 263.085 144.469 266.353 144.062C270.917 143.483 283.304 143.346 319.819 143.472C358.82 143.604 369.166 143.472 377.493 142.75C383.078 142.269 391.315 141.255 395.81 140.499C400.306 139.748 407.212 138.213 411.157 137.09C415.103 135.967 421.009 133.99 424.276 132.696C427.544 131.401 433.336 128.605 437.148 126.479C440.96 124.36 446.197 120.991 448.782 118.997C451.366 117.004 455.158 113.738 457.198 111.744C459.242 109.745 461.807 106.88 462.906 105.374C464 103.867 465.589 101.604 466.435 100.343C467.282 99.083 468.772 96.3732 469.747 94.3279C470.723 92.2826 472.089 88.6733 472.782 86.3072Z" fill="#A90405"/>
<path d="M254.897 92.7524C255.343 90.4665 255.744 86.2613 255.783 83.4025C255.838 79.3578 255.981 78.3724 256.437 78.9625C256.759 79.3807 257.387 80.876 257.833 82.2968C258.278 83.7176 258.709 85.5223 258.788 86.3072C258.867 87.0978 259.15 87.7222 259.422 87.6993C259.694 87.6707 260.452 86.7712 261.105 85.6942C261.754 84.6114 262.16 84.1187 262.001 84.5884C261.843 85.0582 260.932 87.5103 259.971 90.0311C259.011 92.5519 257.858 96.293 257.407 98.3382C256.843 100.899 256.645 103.689 256.768 107.27C256.912 111.458 256.828 112.3 256.348 111.567C255.818 110.765 255.739 110.81 255.729 111.945C255.719 112.781 255.491 113.108 255.09 112.879C254.739 112.672 253.872 113.348 253.075 114.454C252.303 115.514 251.164 117.284 250.536 118.39C249.912 119.496 247.976 122.171 246.243 124.343C244.506 126.514 241.303 129.791 239.125 131.624C236.946 133.452 234.61 135.577 233.926 136.345C233.06 137.325 231.882 137.846 229.966 138.11C228.471 138.316 225.461 138.642 223.283 138.831C220.946 139.038 218.713 138.934 217.837 138.579C217.02 138.247 216.109 138.144 215.807 138.35C215.51 138.556 214.896 140.08 214.446 141.736C213.936 143.627 213.159 145.116 212.362 145.746C211.649 146.308 210.683 148.015 210.174 149.614C209.669 151.189 209.124 154.541 208.961 157.061C208.797 159.582 208.307 162.934 207.867 164.509C207.431 166.085 206.619 168.279 206.065 169.379C205.51 170.479 204.48 172.117 203.777 173.011C203.069 173.905 200.931 175.687 199.025 176.964C197.119 178.247 193.777 179.903 191.599 180.648C189.421 181.387 187.084 181.994 186.401 182C185.723 182 184.416 181.673 183.495 181.278C181.891 180.579 181.836 180.465 182.153 178.259C182.331 176.999 182.762 175.709 183.114 175.394C183.46 175.079 185.069 174.478 186.683 174.059C188.302 173.641 191.683 172.157 194.198 170.765C196.738 169.362 199.782 167.15 201.03 165.798C202.812 163.867 203.569 162.418 204.683 158.78C205.461 156.259 207.589 148.657 209.421 141.879C211.248 135.102 212.847 129.43 212.966 129.275C213.089 129.121 213.347 129.275 213.535 129.619C213.723 129.968 214.322 130.518 214.867 130.851C215.411 131.183 216.862 131.624 218.085 131.836C219.426 132.065 221.694 131.893 223.778 131.395C225.684 130.937 228.694 129.739 230.461 128.731C232.233 127.717 235.223 125.557 237.105 123.93C238.986 122.303 241.912 119.163 243.6 116.958C245.293 114.752 247.748 111.017 249.055 108.651C250.367 106.29 252.031 102.675 252.758 100.63C253.486 98.5846 254.447 95.0383 254.897 92.7524Z" fill="#A90405"/>
<path d="M379.269 73.9797C379.066 73.6894 379.145 73.1263 379.447 72.7257C379.749 72.3251 380.189 72 380.431 72C380.674 72 380.965 72.3251 381.079 72.7257C381.193 73.1263 381.401 74.1016 381.539 74.9028C381.727 75.9769 382.345 76.5806 383.893 77.2251C385.046 77.7011 386.673 78.9493 387.509 79.9885C389.003 81.8463 389.112 81.8812 393.361 81.8754C397.031 81.8696 397.738 81.7128 398.005 80.8536C398.277 79.9827 398.381 79.9595 398.727 80.7084C398.984 81.2542 398.114 85.9103 396.393 93.1905C394.884 99.5767 393.781 105.127 393.939 105.528C394.097 105.928 394.676 106.451 395.225 106.689C395.839 106.956 396.12 107.461 395.952 107.995C395.799 108.494 396.323 109.673 397.179 110.753C398.005 111.792 398.678 112.901 398.678 113.22C398.678 113.539 399.237 114.062 399.914 114.381C400.597 114.7 401.151 115.356 401.151 115.832C401.151 116.309 401.65 116.86 402.264 117.052C402.877 117.249 404.158 117.226 405.108 117.011C406.062 116.796 407.784 115.983 408.941 115.211C410.098 114.433 411.582 112.953 412.235 111.914C412.893 110.874 413.877 108.459 414.421 106.543C414.97 104.628 415.643 101.098 415.925 98.7059C416.207 96.3082 416.726 93.5679 417.078 92.61C417.434 91.6521 418.824 88.517 420.169 85.6432C421.509 82.7694 422.79 80.3543 423.008 80.273C423.231 80.1917 423.399 79.6692 423.389 79.1119C423.374 78.5546 423.651 77.794 424.007 77.4225C424.378 77.0277 425.214 76.9058 426.015 77.1322C426.767 77.3412 427.489 77.8405 427.623 78.2411C427.771 78.6939 427.633 78.8042 427.252 78.5313C426.843 78.2333 426.746 78.3785 426.96 78.9668C427.128 79.4428 426.846 81.6664 426.327 83.9015C425.808 86.1367 425.387 89.4053 425.387 91.1586C425.387 92.9119 425.615 95.2632 425.892 96.3836C426.174 97.5041 426.896 99.0078 427.499 99.7393C428.108 100.465 428.38 101.046 428.108 101.022C427.836 101.005 427.994 101.458 428.459 102.027C428.924 102.596 429.646 104.43 430.066 106.108C430.675 108.541 431.179 109.388 432.559 110.317C433.514 110.956 434.404 111.803 434.538 112.204C434.736 112.785 434.834 112.785 435.032 112.204C435.171 111.803 435.893 111.484 438 111.519L436.763 112.657C436.086 113.284 435.25 114.062 434.909 114.381C434.567 114.7 434.182 114.764 434.048 114.526C433.91 114.288 433.41 114.538 432.935 115.084C432.455 115.635 429.394 117.139 426.129 118.433C422.865 119.728 416.746 121.685 412.527 122.782C408.313 123.873 402.189 125.174 398.925 125.667C395.66 126.155 390.432 126.823 387.301 127.142C384.175 127.467 375.272 127.995 367.517 128.315C359.766 128.634 338.285 128.994 319.786 129.104C301.287 129.22 285.598 129.516 284.915 129.766C283.871 130.143 283.782 130.091 284.336 129.412C284.697 128.965 286.968 127.432 289.381 125.992C291.795 124.553 295.025 122.207 296.558 120.767C298.092 119.327 300.382 117.057 303.958 113.278L304.329 114.991C304.532 115.931 305.704 117.876 306.926 119.316C308.152 120.756 309.374 121.928 309.646 121.928C309.918 121.928 310.828 122.515 311.669 123.235C313.009 124.384 313.741 124.529 317.728 124.454C321.042 124.39 323.189 124.001 325.721 122.991C327.625 122.236 329.965 120.878 330.915 119.972C331.869 119.066 333.413 117.893 334.352 117.371C335.287 116.843 337.518 114.451 339.303 112.059C341.094 109.661 343.775 105.156 345.269 102.044C346.757 98.9323 348.147 96.3836 348.35 96.3836C348.553 96.3836 348.726 96.97 348.731 97.6899C348.736 98.7349 348.83 98.822 349.196 98.1253C349.448 97.6493 349.77 97.388 349.903 97.5448C350.042 97.7015 350.225 98.3576 350.304 98.9962C350.388 99.6348 349.784 102.416 348.968 105.173C347.643 109.655 347.564 110.288 348.226 111.147C348.637 111.676 349.305 112.099 349.71 112.082C350.121 112.07 351.565 113.504 355.398 118.491L358.613 118.073C361.354 117.714 362.115 117.348 363.762 115.583C364.831 114.445 366.275 112.541 366.977 111.351C367.685 110.16 368.372 109.307 368.506 109.44C368.644 109.58 369.07 108.07 369.451 106.085C369.836 104.105 370.202 101.696 370.267 100.738C370.331 99.7799 370.563 98.0847 370.781 96.9642C371.112 95.2748 371.063 95.0309 370.484 95.5128C369.911 95.9889 369.856 95.7857 370.178 94.3517C370.39 93.3937 370.994 92.1513 371.513 91.594C372.319 90.729 372.428 90.0149 372.215 86.8044C371.968 83.0481 371.978 83.0191 373.942 80.5633C375.025 79.2048 375.96 77.9217 376.014 77.7069C376.069 77.4921 376.628 76.511 377.256 75.5298C377.933 74.4732 378.65 73.8984 379.017 74.1249C379.358 74.3397 379.472 74.27 379.269 73.9797Z" fill="#BD0305"/>
<path d="M303.939 76.6756C304.38 75.449 304.882 72.7696 305.061 70.7214L305.384 67L306.588 69.3817C307.249 70.6916 307.916 72.5017 308.059 73.4008C308.208 74.2998 308.5 75.0382 308.71 75.0441C308.92 75.0441 309.745 74.1748 312 71.1679L310.468 73.8473C309.627 75.324 308.11 78.5333 307.101 80.9924C306.086 83.4455 304.887 87.4646 304.431 89.9237C303.975 92.3768 303.401 94.9252 303.155 95.5802C302.852 96.3959 302.796 96.0148 302.991 94.3893C303.206 92.615 303.139 92.2339 302.735 92.9008C302.437 93.389 302.186 93.526 302.181 93.1985C302.171 92.8472 300.854 92.6745 298.968 92.7757C296.334 92.9186 295.565 92.734 294.617 91.7337C293.982 91.0669 293.121 90.5191 292.695 90.5191C292.27 90.5191 291.645 89.7808 291.296 88.8817C290.948 87.9826 290.528 87.1073 290.359 86.9466C290.189 86.7858 289.662 85.714 289.185 84.5649C288.708 83.4157 288.324 82.0105 288.329 81.4389C288.339 80.4446 288.293 80.4446 287.402 81.4389C286.884 82.0105 286.536 82.6179 286.623 82.7786C286.71 82.9394 286.269 83.5527 285.639 84.1362C285.008 84.7197 284.675 85.1901 284.891 85.1782C285.106 85.1663 283.779 86.9049 281.944 89.0305C280.104 91.1562 278.7 93.2342 278.818 93.645C278.936 94.0559 278.695 96.3959 278.28 98.855C277.87 101.308 277.393 103.725 277.219 104.214C277.045 104.702 276.958 105.375 277.019 105.702C277.098 106.099 276.978 106.099 276.66 105.702C276.394 105.375 275.912 104.172 275.589 103.023C275.266 101.874 275 100.135 275 99.1527C275.005 98.1702 275.466 95.2229 276.03 92.6031C276.599 89.9832 277.962 85.6962 279.064 83.0763C280.161 80.4565 282.123 76.7708 283.42 74.8893C284.716 73.0078 286.756 70.7988 287.955 69.989C289.154 69.1792 290.769 68.5064 291.542 68.5005C292.788 68.4885 292.952 68.7089 292.967 70.4237C292.977 71.549 292.414 73.3591 291.624 74.7405C290.876 76.0504 289.949 77.8605 289.559 78.7595C289.17 79.6586 288.847 80.9983 288.837 81.7366C288.826 82.475 289.313 83.6122 289.913 84.2672C290.738 85.1603 291.665 85.4402 293.643 85.3925C295.227 85.3568 297.154 84.8209 298.461 84.0528C299.66 83.3562 301.202 81.9093 301.889 80.8435C302.576 79.7777 303.498 77.9021 303.939 76.6756Z" fill="#A90405"/>
<path d="M232.939 69.4951C234.694 68.3984 237.027 67.1676 238.124 66.7651C239.221 66.3684 241.465 66.0242 243.11 66.0009C244.755 65.9834 246.943 66.2284 247.97 66.5492C248.997 66.8642 250.458 67.7393 251.211 68.4918C251.964 69.2443 253.125 71.2802 253.788 73.0127C254.781 75.6203 254.99 77.1254 255 81.7105C255.005 84.7614 254.721 88.8274 254.367 90.7524C254.013 92.6775 253.031 96.3526 252.183 98.9193C251.331 101.486 249.371 105.815 247.826 108.545C246.275 111.275 243.339 115.475 241.3 117.878C239.261 120.287 236.025 123.496 234.116 125.018C232.207 126.535 228.961 128.478 226.907 129.329C224.215 130.444 222.096 130.893 219.344 130.939C216.119 130.992 215.286 130.799 213.985 129.691C213.142 128.968 212.225 128.513 211.951 128.67C211.677 128.828 211.452 129.288 211.447 129.691C211.447 130.094 209.428 137.706 206.96 146.608C202.912 161.227 202.289 163.035 200.544 165.275C199.208 166.985 197.074 168.618 193.689 170.52C190.833 172.13 187.044 173.722 184.661 174.311C181.33 175.146 180.433 175.198 179.924 174.597C179.436 174.02 179.426 173.495 179.87 172.264C180.184 171.389 181.834 167.125 183.529 162.796C185.229 158.468 188.26 150.062 190.269 144.129C192.283 138.196 195.075 129.399 196.476 124.587C197.877 119.774 199.597 113.346 200.29 110.295C200.983 107.244 201.646 104.292 201.766 103.732C201.97 102.769 201.885 102.764 200.36 103.674C199.467 104.204 196.98 105.324 190.917 107.67L188.823 113.211C187.672 116.262 185.752 120.462 184.556 122.545C183.354 124.633 181.46 127.515 180.343 128.962C179.221 130.409 177.073 132.853 175.562 134.404C174.052 135.95 171.02 138.255 168.827 139.52C166.633 140.78 163.153 142.233 161.099 142.735C158.886 143.277 155.935 143.551 153.871 143.411C151.208 143.231 149.753 142.77 147.724 141.463C145.929 140.308 144.608 138.902 143.66 137.129C142.893 135.682 142.125 133.979 141.955 133.337C141.791 132.695 141.447 130.724 141.203 128.962C140.928 127.031 140.933 123.782 141.213 120.795C141.467 118.065 142.155 114.127 142.733 112.045C143.316 109.962 144.573 106.415 145.535 104.169C146.492 101.924 148.107 98.6393 149.124 96.8776C150.141 95.1159 152.3 92.0008 153.92 89.9532C155.536 87.9115 158.318 85.1114 160.102 83.7289C161.887 82.3522 164.465 80.643 165.836 79.9429C167.207 79.2429 169.784 78.1637 171.569 77.5512C173.354 76.9387 176.38 76.2795 178.299 76.0812C180.817 75.8187 182.592 75.9878 184.656 76.6762C186.231 77.1954 188.225 78.3504 189.088 79.2313C189.945 80.1121 191.117 81.8855 191.685 83.1689C192.523 85.0473 192.737 86.6923 192.891 97.7526L194.572 97.5601C195.494 97.4493 197.702 96.7142 199.487 95.9209C201.272 95.1334 203.062 94.27 203.476 94.0133C203.909 93.7392 205.196 89.6265 206.522 84.2714C207.783 79.1729 209.074 74.4128 209.388 73.6894C209.702 72.9661 211.023 71.8344 212.325 71.1694C213.626 70.5043 216.039 69.5885 217.684 69.1335C219.329 68.6843 221.966 68.3051 223.542 68.2993C225.117 68.2993 226.409 68.4918 226.409 68.731C226.409 68.9701 225.96 71.0702 225.411 73.3978C224.863 75.7253 224.414 77.7612 224.414 77.9187C224.414 78.0762 225.616 76.6995 227.082 74.8561C228.617 72.9252 231.105 70.6502 232.939 69.4951Z" fill="#FDF7E8"/>
<path d="M169.836 109.554C170.214 109.554 171.062 108.926 171.727 108.154C172.393 107.387 173.131 106.875 173.368 107.026C173.61 107.178 173.783 107.544 173.755 107.846C173.733 108.148 173.965 108.816 174.28 109.333C174.594 109.85 175.414 111.03 176.103 111.948C176.859 112.959 177.575 113.447 177.912 113.185C178.222 112.947 177.688 114.318 176.727 116.235C175.77 118.153 173.929 121.11 172.639 122.807C171.349 124.503 169.677 126.386 168.925 126.996C168.173 127.606 166.942 128.355 166.19 128.657C165.438 128.96 164.413 129.087 163.911 128.936C163.114 128.698 163 128.187 163 124.776C163 122.632 163.118 120.756 163.26 120.593C163.401 120.436 163.861 119.193 164.285 117.833C164.704 116.474 165.981 113.598 167.12 111.442C168.255 109.287 169.18 107.979 169.171 108.537C169.162 109.095 169.458 109.554 169.836 109.554Z" fill="#BD0305"/>
<path d="M171.257 91.7613C172.208 90.4784 174.09 88.6619 175.438 87.7206C176.786 86.7794 178.496 86.0001 179.236 86.0001C179.976 85.9941 180.937 86.4677 181.363 87.0432C181.853 87.7027 182.078 88.8657 181.976 90.1666C181.829 92.0251 181.618 92.2889 179.971 92.7146C178.962 92.9724 177.472 93.5958 176.663 94.0874C175.854 94.579 174.752 95.862 174.213 96.9351C173.639 98.0742 173.237 99.9387 173.232 101.431C173.232 103.47 173.551 104.405 174.825 106.114C175.982 107.666 176.986 108.362 178.506 108.662C180.299 109.015 180.549 109.243 180.29 110.274C180.128 110.934 179.682 112.079 178.623 114.171L177.153 112.972C176.344 112.313 175.57 111.233 175.438 110.574C175.305 109.915 174.972 109.375 174.703 109.375C174.433 109.375 174.119 108.769 173.801 106.677L172.291 108.326C171.463 109.231 170.454 109.974 170.047 109.974C169.64 109.974 169.317 109.501 169.326 108.925C169.336 108.35 168.287 109.789 166.998 112.127C165.71 114.459 164.328 117.504 163.921 118.883C163.514 120.262 163.019 121.389 162.818 121.377C162.617 121.371 162.593 122.648 162.764 124.213C162.945 125.831 162.862 127.576 162.573 128.26C162.093 129.387 162 129.333 161.034 127.36C160.324 125.909 160 124.243 160 121.965C159.995 120.154 160.333 117.049 160.745 115.07C161.157 113.092 162.333 109.315 163.352 106.677C164.377 104.039 166.18 100.125 167.366 97.9843C168.552 95.844 170.302 93.0383 171.257 91.7613Z" fill="#A90405"/>
<path d="M236.943 86.8039C237.294 86.8432 237.533 86.6691 237.477 86.4221C237.421 86.1751 238.005 85.9842 238.773 86.001C240.115 86.0291 240.156 86.1133 239.831 88.2748C239.643 89.5099 239.032 92.1655 238.478 94.1698C237.919 96.1797 236.887 99.0823 236.18 100.626C235.473 102.17 233.984 104.949 232.865 106.802C231.746 108.655 229.55 111.641 227.979 113.444C226.408 115.246 224.033 117.329 222.706 118.075C221.288 118.873 220.184 119.204 220.037 118.873C219.899 118.564 220.159 116.733 220.621 114.802C221.079 112.871 221.425 110.726 221.384 110.03C221.343 109.334 221.537 108.638 221.816 108.486C222.096 108.335 222.213 107.953 222.071 107.644C221.933 107.335 221.989 107.083 222.198 107.083C222.406 107.083 222.589 106.768 222.604 106.381C222.62 105.993 223.764 103.175 225.147 100.11C226.53 97.0443 228.238 94.0687 228.935 93.4961C229.636 92.9178 230.048 92.4574 229.85 92.4687C229.657 92.4743 230.643 91.2223 232.041 89.6784C233.439 88.1345 234.97 86.8432 235.443 86.8039C235.921 86.7702 236.592 86.7702 236.943 86.8039Z" fill="#BD0305"/>
<path d="M227.934 83.8444C229.227 82.3889 231.186 80.7 232.289 80.0944C233.392 79.4944 235.026 79 235.923 79C236.885 79 237.963 79.4556 238.554 80.1111C239.105 80.7222 239.697 82.0333 239.872 83.0278C240.043 84.0222 240.043 85.1444 239.872 85.5278C239.697 85.9111 239.105 86.0944 238.554 85.9444C238.003 85.7889 237.552 85.9167 237.552 86.2222C237.552 86.5278 237.271 86.75 236.925 86.7111C236.579 86.6778 235.903 86.6778 235.422 86.7111C234.94 86.75 233.362 88.0278 231.913 89.5556C230.465 91.0833 229.507 92.3278 229.783 92.3167C230.059 92.3056 229.718 92.7611 229.031 93.3333C228.34 93.9 226.661 96.8444 225.297 99.8778C223.934 102.911 222.806 105.7 222.791 106.083C222.776 106.467 222.596 106.778 222.39 106.778C222.185 106.778 222.13 107.028 222.265 107.333C222.4 107.639 222.29 108.011 222.014 108.167C221.739 108.317 221.548 109.006 221.588 109.694C221.628 110.383 221.288 112.506 220.837 114.417C220.38 116.328 220.125 118.139 220.26 118.444C220.401 118.756 219.844 119 219.007 119C218.18 119 217.168 118.622 216.752 118.167C216.336 117.706 216 116.956 216 116.5C216 116.039 216.346 113.978 216.772 111.917C217.198 109.856 218.546 104.789 219.774 100.667C220.997 96.5389 222.806 91.6667 223.789 89.8333C224.776 88 226.64 85.3056 227.934 83.8444Z" fill="#A90405"/>
<path d="M350.202 71.9973C350.407 70.9459 350.573 68.3615 350.568 66.2646L350.559 62.4467L351.476 64.5025C351.983 65.6361 352.476 67.9915 352.579 69.7418C352.754 72.8431 352.725 72.9312 351.295 73.4129C349.841 73.9063 349.836 73.8945 350.202 71.9973Z" fill="#A90405"/>
<path d="M398.186 66.5583C398.815 65.2661 399.474 62.9519 399.645 61.4188C399.82 59.8858 400.157 58.6288 400.391 58.6288C400.63 58.6288 400.986 58.9284 401.187 59.2925C401.391 59.6567 402.265 59.8564 403.138 59.7331C404.007 59.6097 404.719 59.645 404.719 59.8036C404.719 59.9621 403.86 64.062 402.806 68.9078C401.753 73.7536 400.669 78.382 400.401 79.1867C400.128 79.9973 399.889 80.2557 399.864 79.7741C399.825 79.0751 399.718 79.1045 399.342 79.9209C398.952 80.7785 398.156 80.9488 394.599 80.9547C390.413 80.9606 390.301 80.9253 388.822 79.0457C387.988 77.9944 386.451 76.7609 385.407 76.3145C384.358 75.8622 383.338 75.2043 383.143 74.8461C382.948 74.4878 382.782 73.6008 382.777 72.8725C382.772 72.1442 382.547 71.4158 382.279 71.2572C382.011 71.0986 381.464 71.2279 381.059 71.5509C380.645 71.8857 380.488 72.4496 380.693 72.8666C380.937 73.3483 380.856 73.4462 380.449 73.1603C380.074 72.8901 379.376 73.4011 378.62 74.4878C377.951 75.4569 377.4 76.4496 377.395 76.6904C377.39 76.9312 376.512 78.2528 375.443 79.6272C373.506 82.1118 373.501 82.1412 373.74 85.9414C373.95 89.1896 373.848 89.912 373.052 90.7872C372.535 91.3511 371.94 92.6081 371.73 93.5772C371.418 95.028 371.471 95.2336 372.037 94.752C372.608 94.2644 372.657 94.5111 372.33 96.2204C372.111 97.354 371.881 99.0691 371.818 100.038C371.754 101.007 371.393 103.445 371.018 105.448C370.637 107.457 370.217 108.984 370.081 108.843C369.949 108.708 369.271 109.571 368.578 110.775C367.885 111.979 366.455 113.906 365.406 115.057C363.777 116.843 363.025 117.213 357.151 118L352.505 111.786L356.536 110.834C358.756 110.311 361.664 109.325 363.006 108.643C364.348 107.962 365.997 106.705 366.665 105.853C367.7 104.543 368.339 101.824 370.832 88.0795C373.067 75.78 374.131 71.0634 375.224 68.6317C376.019 66.8637 377.424 64.8079 378.346 64.0561C379.269 63.3101 380.366 62.7756 380.786 62.8696C381.323 62.993 381.635 63.9974 381.835 66.2705C381.991 68.0443 382.318 69.9885 382.567 70.5935C382.811 71.1985 383.67 72.1794 384.475 72.7785C385.28 73.3776 386.817 73.8593 387.89 73.8593C388.964 73.8534 390.613 73.5245 391.55 73.1251C392.492 72.7257 394.111 71.6097 395.151 70.6522C396.19 69.6948 397.556 67.8505 398.186 66.5583Z" fill="#A90405"/>
<path d="M426.53 62.1883C427.554 60.761 429.252 58.8403 430.306 57.9299C431.36 57.0253 432.624 56.2793 433.112 56.2793C433.824 56.2793 434 56.7492 434 58.6288C434 59.921 433.371 63.0282 432.6 65.5304C431.829 68.0326 430.404 72.0678 429.438 74.4878C428.467 76.9136 427.784 78.3644 427.915 77.7183C428.106 76.8079 427.857 76.4554 426.813 76.1559C426.022 75.9268 425.203 76.0502 424.832 76.4496C424.485 76.8255 424.212 77.5949 424.222 78.1588C424.232 78.7227 424.066 79.2513 423.851 79.3336C423.631 79.4158 422.373 81.8592 421.045 84.7667C419.723 87.6742 418.352 90.846 418.001 91.8151C417.649 92.7843 417.137 95.5625 416.859 97.9825C416.586 100.402 415.917 103.974 415.38 105.912C414.844 107.85 413.873 110.294 413.224 111.345C412.575 112.397 411.111 113.894 409.969 114.681C408.832 115.463 407.13 116.285 406.188 116.502C405.251 116.72 403.987 116.743 403.382 116.543C402.782 116.349 402.284 115.791 402.284 115.31C402.284 114.828 401.738 114.164 401.065 113.841C400.396 113.518 399.845 112.99 399.845 112.667C399.845 112.344 399.181 111.222 398.366 110.17C397.551 109.119 396.898 108.126 396.912 107.968C396.922 107.809 397.098 107.386 397.293 107.028C397.488 106.676 399.079 106.229 400.821 106.041C402.567 105.853 405.529 105.025 407.408 104.197C409.286 103.375 411.311 102.1 411.911 101.366C412.663 100.444 413.287 98.3408 413.956 94.4583C414.483 91.3863 415.39 87.0281 415.976 84.7667C416.561 82.5053 417.81 78.8049 418.757 76.5436C419.704 74.2822 421.421 70.711 422.573 68.6141C423.724 66.5172 425.505 63.6215 426.53 62.1883Z" fill="#A90405"/>
<path d="M376.082 56.2793C376.317 54.8227 376.717 52.5319 376.975 51.181C377.341 49.2427 377.614 48.8022 378.273 49.0723C378.732 49.2544 379.439 49.7302 379.839 50.1237C380.244 50.5173 380.83 50.9402 381.142 51.0635C381.459 51.1869 380.352 53.0077 375.658 58.9225L376.082 56.2793Z" fill="#A90405"/>
<path d="M364.457 48.7498C365.682 48.2042 368.123 47.3708 369.891 46.9031C371.66 46.4354 373.567 46.0277 374.13 46.0037C375.074 45.9617 375.143 46.2316 374.975 49.1035C374.876 50.8363 374.491 54.0081 374.12 56.1486C373.755 58.2951 373.538 60.1838 373.636 60.3457C373.74 60.5075 375.242 58.7568 376.971 56.4484C378.809 54.0021 381.23 51.5258 382.786 50.5126C384.446 49.4273 386.482 48.6599 388.171 48.486C390.246 48.2641 391.358 48.48 392.865 49.3913C393.952 50.0509 395.454 51.4359 396.2 52.4672C396.946 53.5045 397.702 55.3631 397.87 56.5983C398.043 57.8334 398.043 60.1958 397.875 61.8446C397.702 63.5354 396.961 66.0177 396.18 67.5406C395.414 69.0276 393.804 70.9822 392.593 71.8935C391.383 72.7989 389.283 73.7223 387.924 73.9381C386.25 74.2019 384.916 74.058 383.779 73.4824C382.86 73.0208 381.803 71.8935 381.432 70.9882C381.062 70.0828 380.77 68.1941 380.78 66.7911C380.795 65.1903 380.523 63.9671 380.039 63.4934C379.491 62.9538 378.898 62.9119 377.92 63.3376C377.174 63.6613 375.963 64.6746 375.232 65.586C374.501 66.4973 373.345 68.7278 372.668 70.5385C371.991 72.3492 370.173 80.8513 368.636 89.4252C367.095 97.9992 365.524 105.62 365.144 106.363C364.768 107.107 363.735 108.156 362.851 108.702C361.967 109.241 360.02 110.189 358.528 110.8C357.036 111.412 354.21 112.119 352.254 112.365C349.319 112.731 348.642 112.653 348.38 111.909C348.202 111.418 349.166 106.825 350.524 101.717C351.878 96.6082 353.509 89.9469 354.151 86.919C354.793 83.8911 355.203 81.271 355.07 81.0911C354.936 80.9172 353.489 81.4329 351.858 82.2363C350.228 83.0457 348.227 83.8552 347.412 84.041C346.122 84.3348 345.806 84.8265 344.991 87.8004C344.472 89.6831 343.287 92.9808 342.348 95.1212C341.409 97.2677 339.808 100.368 338.786 102.016C337.768 103.665 336.063 106.094 335.006 107.413C333.949 108.732 331.637 110.974 329.873 112.395C328.104 113.816 324.883 115.663 322.709 116.496C319.908 117.569 317.606 118.013 314.804 118.037C312.169 118.053 310.193 117.725 308.876 117.054C307.789 116.502 306.173 115.183 305.284 114.128C304.395 113.073 303.337 110.926 302.937 109.361C302.537 107.796 302.038 106.513 301.835 106.513C301.633 106.507 301.188 107.047 300.847 107.712C300.506 108.372 298.505 110.56 296.401 112.581C294.296 114.596 291.238 117.15 289.608 118.253C287.977 119.356 284.81 121.077 282.567 122.078C280.314 123.086 276.451 124.213 273.921 124.597C269.91 125.202 268.991 125.16 266.387 124.237C264.065 123.409 262.869 122.51 260.878 120.094C259.179 118.025 258.117 116.113 257.672 114.308C257.291 112.785 257 108.864 257 105.314C257 100.26 257.232 98.1911 258.176 94.8215C258.823 92.5131 260.019 89.0055 260.829 87.0269C261.644 85.0483 263.274 81.6787 264.455 79.5322C265.636 77.3917 267.775 74.2499 269.213 72.5591C270.646 70.8623 272.933 68.47 274.292 67.2408C275.651 66.0057 277.987 64.2609 279.479 63.3555C280.972 62.4502 283.753 61.0831 285.655 60.3097C288.056 59.3324 290.245 58.9067 292.819 58.9067C295.22 58.9067 297.048 59.2364 298.007 59.848C298.822 60.3636 300.057 61.5628 300.758 62.5161C301.465 63.4815 302.196 65.4301 302.413 66.941C302.631 68.428 302.67 70.9882 302.497 72.637C302.32 74.3938 301.534 76.996 300.595 78.9206C299.469 81.235 298.338 82.644 296.771 83.6933C295.215 84.7305 293.758 85.1862 291.915 85.2042C289.835 85.2222 289.133 84.9764 288.57 84.029C288.18 83.3695 287.864 82.1583 287.873 81.3309C287.878 80.5095 288.783 78.2131 289.884 76.2345C291.455 73.4165 291.856 72.1813 291.737 70.5385C291.608 68.7637 291.376 68.41 290.26 68.2481C289.4 68.1222 288.022 68.7577 286.352 70.0468C284.934 71.1441 282.943 73.2486 281.925 74.7356C280.907 76.2225 279.183 79.4602 278.086 81.9305C276.994 84.4068 275.596 88.4539 274.984 90.9242C274.356 93.4484 273.852 97.1298 273.832 99.3183C273.808 102.1 274.079 103.893 274.786 105.578C275.329 106.873 276.327 108.438 277.009 109.061C277.686 109.679 279.356 110.333 280.715 110.518C282.361 110.742 284.255 110.488 286.396 109.757C288.269 109.121 291.154 107.425 293.313 105.692C295.348 104.061 298.194 101.351 299.632 99.6721C301.816 97.1178 302.241 96.2784 302.231 94.5217C302.226 93.3705 302.577 90.8043 303.006 88.8257C303.436 86.8471 304.632 83.2076 305.654 80.7313C306.682 78.2611 308.841 74.076 310.457 71.4379C312.067 68.7997 314.74 65.1543 316.395 63.3435C318.055 61.5328 320.708 59.1045 322.294 57.9533C323.88 56.8021 326.622 55.2252 328.391 54.4458C330.16 53.6723 333.267 52.8809 335.308 52.689C338.099 52.4252 339.591 52.5871 341.36 53.3426C342.941 54.0201 344.27 55.1833 345.436 56.8981C346.473 58.433 347.387 60.6394 347.723 62.4442C348.034 64.093 348.202 67.5586 347.906 74.8495L349.635 74.5677C350.584 74.4118 352.683 73.6443 354.299 72.8649C357.145 71.4798 357.253 71.3479 357.861 68.44C358.207 66.7911 358.968 62.3423 359.561 58.5469C360.193 54.4698 360.959 51.262 361.433 50.6984C361.873 50.1708 363.232 49.2954 364.457 48.7498Z" fill="#FDF7E8"/>
<path d="M331.494 84.086C330.894 83.4157 330.267 82.3149 330.108 81.6397C329.881 80.6906 329.994 80.7786 330.626 82.0311C331.072 82.9216 331.945 83.9588 332.572 84.3404C333.195 84.7171 334.068 85.04 334.504 85.0449C335.236 85.0645 335.245 85.1819 333.936 88L332.913 87.0264C332.349 86.4931 332.045 85.8864 332.235 85.6809C332.426 85.4755 332.095 84.7612 331.494 84.086Z" fill="#A90405"/>
<path d="M327.458 83.2398C327.458 83.0819 327.942 82.0289 328.53 80.9058C329.118 79.7827 329.793 78.9287 330.027 79.0047C330.257 79.0808 330.53 79.9348 330.625 80.9C330.721 81.8651 331.343 83.3158 332.003 84.1172C332.668 84.9245 333.046 85.7785 332.845 86.0242C332.644 86.2699 332.965 86.9952 333.558 87.6328C334.151 88.2704 334.778 88.598 334.955 88.3582C335.132 88.1183 334.773 88.9724 334.151 90.2593C333.529 91.5462 332.233 94.0498 331.266 95.8164C330.3 97.5829 328.726 99.8877 327.769 100.935C326.808 101.982 325.483 103.099 324.827 103.421C324.167 103.743 323.038 104.006 321 104L321.517 99.4665C321.799 96.9746 322.43 93.886 322.918 92.5991C323.411 91.3122 324.631 88.7442 325.636 86.8958C326.636 85.0473 327.458 83.3977 327.458 83.2398Z" fill="#BD0305"/>
<path d="M329.343 66.6719C330.246 65.6752 331.649 64.4537 332.458 63.9583C333.268 63.457 334.592 63.0249 335.402 63.0018C336.211 62.973 337.153 63.2842 337.497 63.699C337.84 64.108 338.056 65.4562 337.987 66.7238C337.86 68.8843 337.747 69.0341 335.892 69.5008C334.813 69.7716 333.322 70.4917 332.581 71.1082C331.811 71.742 330.869 73.3955 330.388 74.9569C329.927 76.4606 329.21 78.1199 328.793 78.6442C328.381 79.1627 327.719 80.3323 327.322 81.2369C326.924 82.1414 325.806 84.302 324.834 86.0477C323.868 87.7877 322.617 90.3803 322.062 91.8092C321.508 93.2322 320.919 96.1533 320.747 98.2908C320.532 100.987 320.252 102.122 319.825 101.99C319.487 101.886 318.937 101.172 318.603 100.405C318.275 99.639 318 97.7146 318 96.1302C318 94.5458 318.339 91.5614 318.756 89.5046C319.168 87.442 320.448 83.4262 321.596 80.5743C322.744 77.7224 324.589 73.8334 325.693 71.9321C326.797 70.0308 328.44 67.6629 329.343 66.6719Z" fill="#A90405"/>
<path d="M451.948 55.5775C452.781 52.4762 453.639 49.2114 453.851 48.3204C454.068 47.4295 454.275 46.8318 454.32 46.9841C454.359 47.1363 454.172 48.3712 453.895 49.7301C453.496 51.6868 453.56 52.6848 454.196 54.5907C454.64 55.9101 455 58.1262 455 59.5246C455 60.9229 454.458 63.9002 453.792 66.15C453.126 68.3999 451.992 71.8902 451.277 73.9032C450.562 75.9163 449.334 79.2826 448.545 81.3745C447.756 83.4665 447.11 85.8178 447.11 86.5903C447.11 87.3685 446.888 88 446.617 88C446.346 88 445.567 87.3685 444.891 86.5903C444.087 85.6712 443.658 84.5435 443.653 83.3481C443.649 82.3387 444.299 79.3615 445.093 76.7226C445.887 74.0837 447.411 69.522 448.486 66.5729C449.561 63.6239 451.119 58.6787 451.948 55.5775Z" fill="#A90405"/>
<path d="M419.644 60.6523C419.772 60.3422 420.729 57.0774 421.769 53.4009L423.668 46.7191L425.157 48.749C425.975 49.8598 426.922 50.7789 427.262 50.7789C427.603 50.7846 426.68 52.245 425.216 54.0268C423.751 55.8086 421.843 58.1543 420.98 59.2426C420.117 60.3309 419.516 60.9624 419.644 60.6523Z" fill="#A90405"/>
<path d="M173.432 50.2151C173.166 49.7527 172.973 47.9765 173.003 46.268C173.047 43.6798 173.116 43.4486 173.432 44.8583C173.639 45.7887 173.831 47.5649 173.856 48.8054C173.896 50.4575 173.777 50.8353 173.432 50.2151Z" fill="#A90405"/>
<path d="M436.707 42.654C438.066 41.8291 440.29 40.6742 441.649 40.085C443.008 39.5017 445.4 39.0126 446.962 39.0008C449.275 38.9832 450.056 39.2424 451.163 40.3973C452.403 41.6936 452.512 42.1532 452.433 45.553C452.378 47.6506 451.765 51.4805 451.029 54.297C450.303 57.0546 448.296 63.5478 446.566 68.7329C444.837 73.9181 443.156 79.4862 442.835 81.1066C442.514 82.727 442.39 84.7833 442.568 85.6731C442.741 86.5628 443.216 87.6941 443.626 88.1772C444.036 88.6604 445.202 89.0552 446.221 89.0493C447.239 89.0375 449.072 88.4424 450.298 87.7236C451.528 86.9929 455.269 83.216 458.699 79.2388C462.094 75.2969 465.435 71.7969 466.112 71.4728C466.883 71.0957 467.995 71.0663 469.077 71.3903C470.026 71.6791 471.252 72.4922 471.795 73.1992C472.393 73.9711 472.858 75.5502 472.977 77.2001C473.095 78.9265 472.759 81.5544 472.057 84.3473C471.445 86.7808 470.278 90.3574 469.463 92.3018C468.647 94.2462 466.804 97.6932 465.361 99.9617C463.918 102.23 461.882 105.188 460.839 106.532C459.796 107.881 457.444 110.462 455.61 112.276C453.777 114.091 450.441 116.984 448.197 118.699C445.954 120.419 442.455 122.912 440.414 124.243C438.378 125.569 434.261 127.85 431.271 129.311C428.281 130.772 423.502 132.893 420.646 134.025C417.789 135.156 412.902 136.77 409.773 137.601C406.645 138.438 400.309 139.787 395.688 140.594C391.068 141.402 382.948 142.492 377.65 143.01C370.272 143.735 363.205 143.912 347.504 143.759C336.221 143.652 314.763 143.57 299.813 143.582C277.322 143.599 271.313 143.782 264.972 144.631C260.762 145.19 254.643 146.168 251.382 146.793C248.12 147.418 242.447 148.838 238.78 149.951C235.113 151.065 230.106 152.956 227.66 154.152C225.214 155.343 222.713 156.698 222.1 157.163C221.488 157.623 220.766 158 220.494 158C220.222 158 220 157.605 220 157.116C220 156.627 220.415 155.237 220.919 154.023C221.423 152.809 223.039 150.664 224.502 149.256C225.965 147.854 228.723 145.809 230.625 144.713C232.528 143.623 236.753 141.679 240.015 140.394C243.277 139.115 248.392 137.395 251.382 136.582C254.372 135.763 260.04 134.561 263.984 133.907C267.928 133.247 274.041 132.445 277.574 132.115C281.108 131.791 288.669 131.243 294.377 130.896C300.085 130.554 320.545 130.171 339.844 130.047C366.793 129.871 376.993 129.6 383.828 128.875C388.72 128.35 395.278 127.514 398.407 127.007C401.535 126.506 407.426 125.292 411.503 124.32C415.58 123.342 421.698 121.474 425.093 120.166C428.494 118.858 433.94 116.201 437.201 114.268C440.463 112.329 445.247 109.071 447.827 107.021C450.406 104.97 454.246 101.287 456.352 98.8304C458.457 96.3733 461.106 92.7084 462.238 90.6814C463.374 88.6545 464.595 86.003 464.956 84.7892C465.321 83.5754 465.45 82.5679 465.247 82.562C465.045 82.5502 463.75 84.0704 462.371 85.95C460.992 87.8237 457.992 91.1587 455.699 93.3624C453.406 95.5661 449.976 98.3944 448.074 99.6435C446.171 100.893 443.394 102.342 441.896 102.861C440.399 103.379 437.789 103.803 436.089 103.798C434.389 103.792 432.279 103.426 431.395 102.978C430.51 102.537 429.19 101.405 428.459 100.474C427.732 99.5433 426.878 97.9878 426.566 97.0156C426.255 96.0434 426.003 93.3919 426.008 91.1234C426.018 87.918 426.423 85.62 427.831 80.812C428.83 77.4122 429.986 73.8297 430.406 72.8575C430.826 71.8853 431.805 68.9038 432.581 66.2288C433.356 63.5537 433.989 60.4426 433.989 59.3054C433.989 58.1682 433.712 57.1017 433.371 56.9249C433.03 56.7482 432.086 56.9073 431.271 57.2785C430.456 57.6497 428.449 59.5823 426.808 61.5739C425.168 63.5655 423.023 66.6589 422.039 68.4383C421.056 70.2178 419.356 73.6706 418.259 76.0982C417.157 78.5317 415.709 82.5089 415.036 84.9365C414.364 87.37 413.351 92.0072 412.788 95.2479C412.027 99.6023 411.468 101.452 410.643 102.348C410.03 103.008 408.192 104.163 406.561 104.917C404.747 105.748 401.925 106.425 399.301 106.655C395.298 107.009 394.982 106.95 394.651 105.854C394.433 105.111 395.273 100.633 396.919 93.7749C398.357 87.7766 400.596 77.9719 401.891 71.9737C403.186 65.9754 404.713 58.1564 405.276 54.5916C405.993 50.1018 406.576 47.8863 407.174 47.3796C407.653 46.973 409.823 46.0892 411.997 45.4057C414.172 44.7222 417.453 43.9915 419.292 43.7794C421.13 43.5673 422.627 43.5968 422.627 43.8383C422.622 44.0799 421.723 47.792 420.626 52.0874C419.529 56.3829 418.526 60.2246 418.402 60.6311C418.278 61.0377 418.451 61.3677 418.792 61.3618C419.133 61.3618 419.899 60.5015 420.497 59.4468C421.09 58.398 423.092 55.6994 424.945 53.4544C426.794 51.2095 429.64 48.1986 431.271 46.7609C432.902 45.3291 435.348 43.4789 436.707 42.654Z" fill="#FDF7E8"/>
<path fill-rule="evenodd" clip-rule="evenodd" d="M169.812 40.3512C169.986 41.9512 170.051 43.4582 169.956 43.6968C169.857 43.9353 169.772 48.7821 169.772 54.4608C169.767 64.23 169.692 64.9922 168.464 68.5705C167.745 70.6477 165.893 74.4413 164.351 76.9956C162.804 79.5498 160.762 82.43 159.804 83.3958C158.851 84.3617 155.986 87.5734 153.44 90.535C150.895 93.4966 148.813 96.1789 148.813 96.4989C148.813 96.8189 148.025 98.6517 147.066 100.572C146.103 102.492 145.04 104.074 144.695 104.086C144.351 104.104 143.792 103.778 143.453 103.359C143.108 102.946 142.978 102.41 143.158 102.172C143.343 101.933 143.283 101.73 143.033 101.724C142.779 101.718 140.438 103.341 137.832 105.331C135.222 107.327 131.294 109.98 129.098 111.231C126.901 112.488 124.88 113.855 124.605 114.274C124.331 114.693 122.419 115.694 120.363 116.497C118.301 117.3 115.826 118.3 114.852 118.719C113.879 119.138 112.471 119.941 111.733 120.5C110.989 121.058 110.041 121.384 109.631 121.227C109.032 120.994 108.983 121.169 109.382 122.1C109.786 123.048 109.696 123.316 108.883 123.555C108.244 123.741 107.795 124.48 107.635 125.591C107.495 126.551 107.161 127.336 106.886 127.336C106.612 127.336 106.412 127.534 106.447 127.773C106.477 128.011 106.462 128.343 106.407 128.5C106.352 128.657 106.232 129.181 106.133 129.664C106.033 130.147 105.034 133.94 103.916 138.101C102.798 142.261 101.446 148.149 100.917 151.192C100.388 154.235 99.4791 158.162 98.9001 159.92C98.3161 161.677 97.3428 163.771 96.7389 164.574C96.1299 165.371 94.7972 166.75 93.774 167.629C92.7508 168.508 91.5729 169.229 91.1636 169.229C90.7493 169.229 89.4166 169.817 88.1937 170.538C86.9759 171.26 86.0774 172.045 86.1972 172.284C86.322 172.522 85.5783 173.145 84.5501 173.669C83.5219 174.186 81.1061 175.123 79.1844 175.752C77.2628 176.374 74.0683 176.933 72.0918 176.985C69.3016 177.061 68.2884 176.863 67.5996 176.095C66.8858 175.303 66.8309 174.954 67.3201 174.349C67.6894 173.895 67.8192 172.895 67.6395 171.847C67.4748 170.887 67.4748 169.183 67.944 166.029L72.566 165.587C75.1065 165.342 79.0397 164.627 81.3057 163.987C83.5718 163.352 86.8261 162.09 88.5431 161.182C90.2601 160.28 92.3365 158.645 93.1601 157.546C94.348 155.975 95.3762 152.821 98.0915 142.464C99.9832 135.261 102.454 125.864 105.638 113.774L109.132 112.401C111.054 111.644 114.308 110.213 116.37 109.218C118.426 108.223 122.808 105.704 126.103 103.615C129.397 101.526 133.325 98.9077 134.838 97.7848C136.345 96.6676 139.714 93.9155 142.324 91.6696C144.93 89.4237 149.547 84.6817 152.577 81.1325C155.606 77.5832 159.255 72.847 160.683 70.6069C162.105 68.3668 163.932 65.0911 164.74 63.3339C165.549 61.5768 166.812 58.0392 167.556 55.4791C168.579 51.9473 168.973 49.2068 169.198 44.1332C169.437 38.5358 169.537 37.9191 169.812 40.3512V40.3512ZM127.116 39.4784C127.206 39.4784 127.126 40.1417 126.941 40.9505C126.672 42.12 126.856 42.6087 129.098 44.2902L127.475 45.3725C125.973 46.3791 125.898 46.5652 126.477 47.8918C126.821 48.6773 127.316 49.137 127.575 48.9101C127.87 48.6541 127.925 49.6025 127.725 51.4062C127.545 53.0062 126.627 56.538 125.678 59.261C124.73 61.984 123.258 65.9755 122.409 68.1341C121.556 70.2927 120.398 74.0922 119.834 76.5708C119.27 79.0495 118.236 83.3027 117.543 86.0257C116.849 88.7488 115.96 92.0827 115.576 93.4442C115.187 94.8057 114.872 96.1789 114.872 96.4989C114.872 96.8189 115.716 96.5396 116.744 95.8763C118.147 94.9803 118.311 94.9395 117.403 95.7309C116.739 96.3127 114.438 97.9011 112.287 99.2626C109.981 100.723 108.389 101.439 108.394 101.008C108.399 100.607 109.876 94.7825 111.678 88.0622C113.48 81.3419 115.965 72.4397 117.208 68.2796C118.446 64.1194 120.478 57.7017 121.72 54.0245C122.963 50.3472 124.65 45.5645 125.469 43.4059C126.287 41.2472 127.031 39.4784 127.116 39.4784Z" fill="#A90405"/>
<path d="M146.001 99.4673C145.983 99.0866 146.397 98.0788 146.921 97.2204C147.445 96.362 147.928 95.832 147.99 96.0484C148.052 96.2575 147.828 97.1831 147.493 98.1087C147.155 99.0343 146.69 99.8704 146.459 99.9749C146.225 100.079 146.021 99.848 146.001 99.4673Z" fill="#BD0305"/>
<path d="M128.138 38.2719C127.692 37.9904 127.72 37.7735 128.255 37.3572C128.645 37.0522 131.496 36.9174 134.597 37.0522C138.529 37.2223 140.802 37.6034 142.113 38.307C143.146 38.8641 144.898 40.1541 146.002 41.1743C147.966 42.992 148.013 43.1093 147.999 46.4046C147.989 48.363 147.472 51.8049 146.763 54.6135C146.087 57.2755 144.508 61.9546 143.254 65.0213C141.995 68.0879 139.618 72.7025 137.97 75.2824C136.316 77.8624 133.723 81.3981 132.196 83.1454C130.674 84.8869 128.058 87.7072 126.376 89.4135C124.695 91.1198 121.904 93.389 120.171 94.4561C118.438 95.5174 117.01 96.1917 117 95.9513C116.991 95.7109 117.277 94.3916 117.644 93.0196C118.005 91.6475 118.842 88.2877 119.495 85.5436C120.147 82.7995 121.12 78.5132 121.651 76.0154C122.181 73.5175 123.271 69.6886 124.075 67.5133C124.873 65.3379 126.259 61.3155 127.151 58.5714C128.044 55.8273 128.908 52.2681 129.077 50.6556C129.265 48.8379 129.214 47.8822 128.936 48.1402C128.692 48.3688 128.227 47.9056 127.903 47.1141C127.358 45.7772 127.429 45.5895 130.369 43.4845L129.195 42.5405C128.241 41.7782 128.086 41.3209 128.373 40.1189C128.604 39.1338 128.526 38.5181 128.138 38.2719Z" fill="#BD0305"/>
<path d="M113.259 33.027C115.899 32.1209 119.872 31.0395 122.093 30.6187C124.314 30.1978 128.741 29.9289 131.936 30.0166C136.439 30.1393 138.251 30.4433 140.012 31.3493C141.264 31.9982 143.152 33.4245 144.217 34.5234C145.277 35.6282 146.6 37.5806 147.145 38.8666C147.695 40.1526 148.074 41.6783 147.988 42.257C147.852 43.1981 147.65 43.1455 146.07 41.7543C145.101 40.895 143.283 39.6441 142.032 38.966C140.113 37.9255 138.655 37.7092 132.693 37.5865C128.806 37.5046 125.51 37.2942 125.374 37.113C125.238 36.9376 124.385 36.7973 123.481 36.8032C122.577 36.8149 120.079 37.2416 117.928 37.7501C115.778 38.2645 112.315 39.5096 110.231 40.5151C107.727 41.7309 105.662 43.2449 104.138 44.9927C102.639 46.7054 101.533 48.6578 100.15 53.4803L96.738 54.2929C94.8552 54.7371 92.4676 55.5905 91.4277 56.1926C90.3879 56.7889 89.5348 57.1454 89.5348 56.9876C89.5348 56.8298 88.9089 57.1221 88.1467 57.6423C87.3845 58.1626 86.1882 59.2206 85.4966 59.9922C84.8051 60.7696 83.2706 62.1842 82.0894 63.1371C80.9082 64.0957 79.0254 66.393 77.9098 68.2402C76.7892 70.0873 75.1891 72.6535 74.3562 73.9395C73.5233 75.2255 72.2816 77.2656 71.6001 78.4698C70.9136 79.6739 70.1817 80.656 69.9748 80.6501C69.7678 80.6443 69.0863 81.1704 67.3247 83L67.0622 81.3925C66.9158 80.5098 67.037 78.3353 67.3297 76.57C67.6225 74.8046 68.3797 72.0397 69.0106 70.4322C69.6416 68.8247 70.9389 66.1942 71.8929 64.5867C72.8469 62.9792 74.9922 59.9805 76.658 57.9287C78.3288 55.8711 81.5089 52.5567 83.7299 50.5634C85.9509 48.5701 89.4692 45.7526 91.5539 44.3029C93.6336 42.8474 96.9298 40.7313 98.8732 39.5973C100.817 38.4633 103.77 36.8909 105.435 36.1017C107.101 35.3126 110.619 33.9272 113.259 33.027Z" fill="#A90405"/>
<path d="M126.681 19.0183C129.133 18.6597 131.695 18.2541 132.379 18.1188C133.058 17.9777 137.185 17.9601 141.545 18.0777C146.926 18.2188 150.509 18.6068 152.694 19.2888C154.468 19.8414 157.198 21.0525 158.763 21.9755C160.329 22.9044 162.633 24.7857 163.882 26.1614C165.13 27.5371 166.736 30.118 167.454 31.8935C168.43 34.3039 168.812 36.3205 168.966 39.8303C169.079 42.4171 168.901 46.3854 168.574 48.6489C168.247 50.9123 167.281 54.8807 166.434 57.4675C165.586 60.0543 163.555 64.5518 161.915 67.4619C160.091 70.7013 156.618 75.4986 152.966 79.8198C149.681 83.7117 145.212 88.4679 143.032 90.3962C140.852 92.3246 136.838 95.5639 134.113 97.5922C131.388 99.6205 127.042 102.572 124.451 104.153C121.86 105.729 117.4 108.092 114.541 109.403C111.682 110.714 108.779 111.931 108.1 112.102C107.416 112.278 106.604 112.754 106.292 113.166C105.979 113.572 104.349 119.333 102.674 125.959C100.995 132.585 98.5273 142.114 97.1894 147.123C95.3512 154.014 94.4197 156.624 93.3742 157.823C92.6161 158.693 90.7135 160.081 89.1477 160.91C87.582 161.733 84.4604 162.979 82.2109 163.673C79.3718 164.549 76.5128 164.955 72.8413 164.996C69.9377 165.031 67.3761 164.837 67.1432 164.567C66.9153 164.296 67.4553 162.58 68.3472 160.745C69.2341 158.911 71.3796 154.108 73.1088 150.063C74.8381 146.024 77.375 139.539 78.7475 135.659C80.12 131.779 81.9235 126.488 82.7559 123.901C83.5884 121.314 85.2879 115.759 86.5266 111.555C87.7703 107.351 90.327 98.0919 92.2098 90.9783C94.0877 83.8646 97.1151 71.8301 98.9336 64.2284C100.747 56.6268 102.565 49.4896 102.967 48.3549C103.363 47.2203 104.295 45.533 105.028 44.5982C105.766 43.6634 108.259 41.8527 110.577 40.571C112.896 39.2835 116.241 37.8725 118.01 37.4257C119.779 36.9789 122.231 36.6027 123.46 36.5791C124.897 36.5556 125.952 36.879 126.433 37.4845C127.097 38.3311 126.879 39.2365 124.347 46.1856C122.791 50.4479 120.532 57.1148 119.323 60.995C118.119 64.8751 116.023 72.1534 114.665 77.1624C113.308 82.1714 111.331 89.6437 110.27 93.7591C109.215 97.8744 108.462 101.384 108.596 101.566C108.729 101.749 111.023 100.502 113.684 98.7916C116.345 97.0807 120.566 93.959 123.069 91.8601C125.566 89.7613 129.768 85.5284 132.404 82.4536C135.035 79.3788 138.161 75.2811 139.34 73.341C140.525 71.4009 142.333 67.9617 143.359 65.6982C144.389 63.4348 145.94 59.3371 146.807 56.5856C148.18 52.2528 148.398 50.8065 148.438 45.7093C148.472 40.7944 148.309 39.4423 147.437 37.4786C146.862 36.1852 145.494 34.204 144.399 33.0693C143.304 31.9347 141.208 30.4825 139.747 29.8358C137.537 28.8599 135.991 28.6777 130.645 28.7482C126.824 28.7952 122.588 29.2303 120.239 29.8182C118.059 30.3532 114.269 31.5408 111.816 32.452C109.364 33.3633 105.573 35.08 103.393 36.2734C101.213 37.4669 97.4223 39.7832 94.9697 41.4235C92.517 43.0638 88.3004 46.4207 85.6 48.8782C82.8947 51.3415 79.1439 55.3393 77.2561 57.7615C75.3732 60.1895 72.9552 63.8933 71.8899 65.9922C70.8246 68.091 69.6107 71.1364 69.1995 72.7531C68.7882 74.3699 68.4562 77.28 68.4661 79.2201C68.476 81.3836 68.8378 83.6529 69.4026 85.0992C69.913 86.3926 71.3598 88.6384 72.6233 90.0964C73.8818 91.5544 74.9174 93.2711 74.9223 93.9178C74.9223 94.5645 74.3079 95.7873 73.5498 96.6398C72.7967 97.4864 71.6769 98.48 71.0625 98.8445C70.4481 99.209 68.3869 99.9027 66.4792 100.385C64.5716 100.867 61.7275 101.267 60.1618 101.273C58.5961 101.278 56.1434 100.879 54.7114 100.391C52.784 99.7322 51.5255 98.7798 49.8507 96.7104C48.4089 94.9231 47.3138 92.8596 46.8085 90.9783C46.3774 89.3615 46.0157 86.1868 46.0008 83.9234C45.981 80.8898 46.3229 78.6498 47.3039 75.3987C48.0323 72.9765 49.7467 69.0081 51.1043 66.5801C52.4669 64.1579 55.088 60.3483 56.9312 58.1142C58.7744 55.886 61.8464 52.5467 63.7541 50.6948C65.6617 48.837 69.4522 45.5447 72.1773 43.3754C74.9025 41.206 80.9227 37.2141 85.5554 34.5097C90.1882 31.8053 96.7633 28.419 100.172 26.9845C103.576 25.55 109.933 23.3159 114.294 22.0225C118.654 20.7291 124.228 19.377 126.681 19.0183Z" fill="#FDF7E8"/>
<path d="M144.282 12.7C142.659 13.1 140.112 13.1 138.616 12.7C137.12 12.32 138.444 12 141.562 12C144.681 12 145.905 12.32 144.282 12.7Z" fill="#BF4E4A"/>
</g>
<defs>
<clipPath id="clip0_2_9">
<rect width="500" height="200" fill="white"/>
</clipPath>
</defs>
</svg>
