<svg width="512" height="512" viewBox="0 0 512 512" fill="none" xmlns="http://www.w3.org/2000/svg">
<path d="M208.006 5.05362C212.942 4.0977 221.698 2.71578 227.452 1.98846C233.206 1.25074 245.89 0.606536 255.623 0.544194C266.373 0.471461 277.921 1.05332 285.041 2.01963C291.483 2.89242 300.119 4.26395 304.238 5.0744C308.346 5.88485 315.755 7.5577 320.692 8.78377C325.628 10.0202 334.154 12.5659 339.639 14.4465C345.123 16.3272 354.547 20.0781 360.58 22.7796C366.614 25.4707 376.486 30.4893 382.519 33.9181C388.552 37.3469 397.976 43.3526 403.461 47.249C408.945 51.1557 417.242 57.5354 421.889 61.4214C426.546 65.3074 434.394 72.7054 439.341 77.8486C444.287 83.0023 451.527 91.1795 455.426 96.0318C459.325 100.884 464.899 108.355 467.811 112.646C470.723 116.927 474.891 123.483 477.075 127.193C479.259 130.902 483.876 139.786 487.327 146.934C490.787 154.072 494.796 163.195 496.252 167.196C497.708 171.196 500.211 178.905 501.816 184.34C503.412 189.774 505.815 200.05 507.151 207.198C508.478 214.337 510.123 224.623 510.811 230.057C511.499 235.491 512.038 247.648 511.998 257.072C511.958 267.213 511.25 279.308 510.243 286.685C509.315 293.543 507.491 304.068 506.184 310.063C504.878 316.059 502.255 326.116 500.37 332.403C498.476 338.689 495.374 347.573 493.47 352.144C491.565 356.716 488.184 364.197 485.961 368.769C483.737 373.341 479.369 381.289 476.258 386.433C473.136 391.576 467.153 400.688 462.955 406.673C458.756 412.668 449.034 424.16 441.355 432.213C433.676 440.255 424.253 449.429 420.413 452.588C416.574 455.747 408.716 461.617 402.962 465.628C397.208 469.649 388.004 475.457 382.519 478.533C377.034 481.608 368.508 486.056 363.572 488.404C358.636 490.762 348.534 494.804 341.135 497.391C333.735 499.979 322.517 503.293 316.204 504.758C309.892 506.213 300.249 508.156 294.764 509.06C289.279 509.974 275.368 510.982 263.85 511.315C251.265 511.668 238.331 511.45 231.441 510.743C225.128 510.109 215.934 508.862 210.998 507.99C206.061 507.106 197.535 505.205 192.051 503.761C186.566 502.316 176.923 499.324 170.61 497.111C164.298 494.898 154.884 491.168 149.669 488.83C144.453 486.482 135.259 481.712 129.226 478.221C123.193 474.72 113.998 468.818 108.783 465.088C103.567 461.358 96.168 455.705 92.3287 452.536C88.4894 449.357 81.9876 443.476 77.879 439.455C73.7805 435.444 67.3584 428.638 63.6188 424.357C59.8693 420.077 53.7663 412.357 50.0367 407.213C46.3171 402.07 41.2313 394.589 38.7482 390.589C36.2552 386.588 31.279 377.466 27.6791 370.327C24.0791 363.189 19.0432 351.729 16.5003 344.871C13.9574 338.013 10.3375 326.085 8.4627 318.376C6.5979 310.666 4.28436 299.205 3.337 292.919C2.0107 284.212 1.60184 275.183 1.62178 254.994C1.6517 232.302 1.96084 226.712 3.83561 216.03C5.03227 209.173 7.61506 197.483 9.57958 190.054C11.5341 182.625 15.1141 171.404 17.5374 165.117C19.9606 158.831 24.7872 148.077 28.2674 141.22C31.7378 134.362 37.2524 124.543 40.5133 119.4C43.7642 114.257 49.0894 106.536 52.3403 102.256C55.5912 97.9644 61.6543 90.5249 65.8127 85.7038C69.9711 80.893 78.0984 72.7366 83.8524 67.5829C89.6063 62.4397 97.4644 55.8106 101.304 52.8494C105.143 49.8881 113.669 44.0175 120.251 39.8094C126.832 35.6013 138.719 29.0658 146.677 25.2941C154.635 21.5224 165.176 16.9818 170.112 15.2154C175.048 13.449 183.574 10.8307 189.059 9.3968C194.544 7.96293 203.07 6.00953 208.006 5.05362Z" fill="#C60203"/>
<path d="M266.727 498.682C263.437 498.879 257.603 498.879 253.763 498.682C249.924 498.485 252.617 498.319 259.747 498.319C266.877 498.319 270.018 498.475 266.727 498.682Z" fill="#DEB6AD"/>
<path d="M91.7152 432.475C91.446 432.475 88.0754 429.192 84.2361 425.181C80.3968 421.171 77.6146 417.898 78.0533 417.898C78.4921 417.908 81.8627 421.181 85.5325 425.192C89.2122 429.192 91.9845 432.475 91.7152 432.475Z" fill="#CB8881"/>
<path d="M502.31 260.494C502.1 263.351 501.931 261.252 501.931 255.818C501.931 250.384 502.1 248.046 502.31 250.623C502.509 253.2 502.509 257.636 502.31 260.494Z" fill="#F1D5CE"/>
<path d="M16.6647 261.013C16.4752 264.723 16.3057 262.156 16.3057 255.299C16.3057 248.441 16.4652 245.407 16.6647 248.545C16.8541 251.683 16.8641 257.304 16.6647 261.013Z" fill="#F1D5CE"/>
<path d="M74.2637 97.3648L82.7201 88.2732C87.3671 83.2755 91.2962 79.1817 91.4457 79.1817C91.5953 79.1817 91.715 79.296 91.725 79.4414C91.725 79.5869 87.7959 83.6703 74.2637 97.3648Z" fill="#CC5150"/>
<path d="M229.332 14.8338C233.989 14.2208 240.281 13.5454 243.293 13.3168C246.304 13.0986 255.957 13.0883 264.733 13.2961C273.508 13.5039 284.278 14.1792 288.666 14.7819C293.054 15.3845 301.361 16.8496 307.115 18.0341C312.869 19.2186 324.087 22.2006 332.045 24.6735C340.003 27.1568 350.992 31.126 356.477 33.5157C361.962 35.8951 371.385 40.6435 377.419 44.062C383.452 47.4804 392.875 53.3822 398.36 57.1746C403.845 60.9671 412.152 67.3988 416.809 71.4718C421.466 75.5448 429.493 83.2753 434.629 88.6367C439.765 94.0086 447.204 102.612 451.163 107.755C455.112 112.898 460.626 120.608 463.419 124.899C466.201 129.18 471.217 137.835 474.558 144.121C477.898 150.408 482.844 161.162 485.547 168.019C488.249 174.877 491.57 184.457 492.926 189.32C494.283 194.172 496.137 201.892 497.045 206.464C497.952 211.035 499.338 219.452 500.116 225.166C500.914 231.037 501.542 243.807 501.552 254.519C501.562 265.699 500.944 278.49 500.036 285.69C499.199 292.403 497.135 303.738 495.449 310.887C493.764 318.025 490.822 328.551 488.898 334.265C486.983 339.98 482.565 350.734 479.095 358.163C475.615 365.592 469.94 376.346 466.47 382.061C463.01 387.776 456.598 397.127 452.21 402.842C447.832 408.557 439.535 418.116 433.771 424.08C428.007 430.044 419.252 438.263 414.316 442.336C409.379 446.409 401.521 452.342 396.864 455.5C392.207 458.669 384.798 463.407 380.41 466.026C376.022 468.644 367.277 473.091 360.964 475.917C354.652 478.733 345.458 482.526 340.522 484.334C335.585 486.152 328.186 488.521 324.067 489.612C319.959 490.703 310.086 492.823 302.129 494.319C290.8 496.449 283.132 497.166 266.727 497.623C253.534 497.987 241.358 497.737 233.819 496.958C227.238 496.272 216.248 494.547 209.387 493.134C202.536 491.721 191.767 488.895 185.454 486.859C179.142 484.822 168.152 480.614 161.022 477.507C153.892 474.4 143.571 469.226 138.086 466.005C132.602 462.784 124.295 457.495 119.638 454.243C114.981 451.001 107.571 445.37 103.184 441.733C98.7959 438.096 91.6558 431.592 87.3279 427.29C82.99 422.989 75.6704 414.791 71.0633 409.076C66.4461 403.361 59.6252 394.01 55.8956 388.295C52.166 382.581 46.1627 372.055 42.5428 364.917C38.9329 357.768 33.8969 346.318 31.364 339.461C28.8211 332.603 25.6499 322.555 24.2937 317.121C22.9475 311.687 20.9132 302.107 19.7664 295.821C18.2606 287.509 17.5525 278.427 17.1836 262.572C16.8645 248.815 17.1138 236.72 17.8716 229.842C18.5198 223.847 20.1353 213.55 21.4517 206.983C22.768 200.406 25.9192 188.717 28.4422 181.007C30.9751 173.287 35.3928 161.837 38.2747 155.551C41.1567 149.265 46.3921 139.207 49.9222 133.211C53.4524 127.216 59.9243 117.387 64.3021 111.392C68.6699 105.396 77.4155 95.0995 83.7279 88.5328C90.0403 81.9557 98.9455 73.5395 103.523 69.8301C108.09 66.1104 116.397 59.8761 121.971 55.9694C127.546 52.0522 139.732 44.9036 149.056 40.0825C158.38 35.2509 171.393 29.4843 177.975 27.2503C184.557 25.0268 192.634 22.45 195.925 21.5356C199.216 20.6213 206.166 18.99 211.382 17.9094C216.597 16.8288 224.675 15.4365 229.332 14.8338Z" fill="#111827"/>
<path d="M108.17 143.675L112.159 140.038C114.353 138.043 116.178 136.391 116.207 136.37C116.237 136.349 116.008 137.555 115.709 139.051C115.4 140.557 114.921 141.887 114.652 142.033C114.383 142.168 112.807 142.594 108.17 143.675Z" fill="#FDFDF2"/>
<path d="M149.903 103.464C149.983 103.381 152.506 101.157 155.498 98.5283C158.49 95.8892 160.993 93.728 161.062 93.728C161.132 93.728 160.574 95.4839 159.816 97.6243C158.619 101.001 157.861 101.656 154.102 102.56C151.708 103.131 149.824 103.536 149.903 103.464Z" fill="#FDFDF2"/>
<path d="M297.392 76.0747C294.749 76.0643 293.842 75.4409 292.486 72.6874L290.82 69.3106L293.732 71.2847C295.338 72.3757 297.542 73.9031 298.639 74.672C300.513 75.9916 300.434 76.0747 297.392 76.0747Z" fill="#FDFDF2"/>
<path d="M269.889 60.2189C269.699 59.502 268.243 58.5877 266.648 58.172C265.042 57.7668 266.428 57.6733 269.719 57.9642C273.01 58.2655 277.497 59.3461 279.691 60.3644C281.885 61.3827 285.435 64.2816 287.589 66.8064C289.743 69.3313 291.877 72.677 292.326 74.246C293.004 76.5942 293.722 77.1033 296.395 77.1137C298.18 77.1137 301.321 77.5813 303.375 78.1527C305.429 78.7138 308.571 80.5529 313.597 85.2909L318.583 83.722C321.584 82.7661 325.942 82.3089 329.552 82.5583C333.561 82.8284 337.011 83.8363 340.023 85.613C342.496 87.0677 345.368 89.6029 346.425 91.255C347.482 92.8967 348.928 96.5853 349.656 99.4426C350.374 102.3 350.972 106.394 350.982 108.534C350.992 112.347 351.072 112.431 354.732 112.41C357.005 112.399 361.004 113.719 364.933 115.787C369.471 118.176 372.293 120.514 374.407 123.663C376.78 127.195 377.837 127.995 379.413 127.455C380.51 127.081 384.319 126.541 387.889 126.26C392.347 125.907 395.618 126.25 398.36 127.341C400.554 128.214 404.034 130.832 406.089 133.149C408.143 135.466 410.277 139.124 410.815 141.264C411.364 143.404 411.813 145.981 411.813 146.979C411.819 148.191 413.069 149.157 415.562 149.878C417.616 150.48 421.386 152.704 423.939 154.813C426.492 156.933 430.191 159.956 432.166 161.525C434.14 163.094 436.863 166.367 438.209 168.798C439.565 171.23 441.44 176.487 442.367 180.488C443.803 186.628 443.883 188.738 442.896 193.995C442.258 197.424 440.682 201.871 439.406 203.866C437.95 206.152 436.623 210.599 435.836 215.815C435.148 220.387 433.093 233.011 431.258 243.869C429.423 254.727 424.497 282.781 420.319 306.211C416.141 329.642 410.676 359.337 408.173 372.19C405.67 385.053 402.838 397.21 401.87 399.205C400.913 401.2 398.829 404.016 397.243 405.439C395.658 406.873 390.323 410.219 385.386 412.879C380.46 415.539 369.919 420.62 361.962 424.173C354.014 427.716 343.244 432.236 338.028 434.221C332.823 436.205 318.463 440.767 306.117 444.362C293.782 447.957 280.539 451.49 276.7 452.206C272.541 452.986 265.88 453.297 260.245 452.975C253.853 452.612 245.417 451.022 234.318 448.102C225.263 445.723 210.684 441.629 201.908 439.011C193.133 436.392 180.348 432.039 173.488 429.337C166.637 426.625 156.535 422.428 151.05 419.996C145.565 417.565 137.598 413.762 133.349 411.549C129.101 409.336 124.025 406 122.071 404.141C120.116 402.281 117.883 398.893 117.115 396.608C116.347 394.322 113.026 378.196 109.735 360.761C106.445 343.336 101.947 319.251 99.7432 307.25C97.5394 295.249 92.4835 268.13 88.5146 246.986C82.9102 217.186 80.8859 208.251 79.5197 207.243C78.5524 206.526 76.8072 203.253 75.6604 199.97C73.9153 195.013 73.666 192.665 74.1945 186.202C74.5435 181.921 75.7402 176.311 76.8471 173.734C77.954 171.167 80.0681 167.707 81.544 166.066C83.0299 164.424 86.5899 161.494 89.4719 159.572C92.3539 157.65 94.6873 155.717 94.6674 155.291C94.6375 154.865 96.0934 152.974 97.9084 151.093C99.7133 149.223 103.543 146.771 106.425 145.638C109.307 144.516 112.557 143.602 113.654 143.602C115.011 143.602 115.858 142.687 116.287 140.744C116.636 139.175 117.723 136.256 118.69 134.25C119.658 132.255 121.732 129.346 123.288 127.788C124.843 126.229 128.593 124.037 131.604 122.925C136.571 121.075 137.209 120.483 138.336 116.659C139.113 114.031 141.038 111.153 143.431 109.054C145.545 107.194 149.016 105.095 151.16 104.399C153.294 103.692 155.827 103.11 156.784 103.1C157.951 103.09 159.516 100.856 161.521 96.3255C163.326 92.2629 165.799 88.5639 167.754 87.0469C169.539 85.665 173.238 83.483 175.981 82.205C179.72 80.4698 182.971 79.8672 188.944 79.8048C195.486 79.7425 197.73 80.1581 201.41 82.1738C203.883 83.5142 206.565 85.239 207.393 85.9975C208.649 87.1612 209.826 86.8911 214.872 84.2727C218.163 82.5687 222.65 80.927 224.844 80.6153C228.285 80.1477 229.003 79.5762 230.08 76.5111C230.808 74.433 232.882 71.8666 235.066 70.3496C237.12 68.9157 240.112 67.7416 241.707 67.752C243.512 67.752 245.586 66.7337 247.192 65.0505C248.608 63.5646 251.011 61.6944 252.517 60.8943C254.023 60.0943 257.164 59.2111 263.736 58.411L260.245 59.5436C258.331 60.1566 256.646 60.8528 256.506 61.0917C256.366 61.3307 256.536 62.0996 256.885 62.8165C257.354 63.8036 257.713 63.7413 258.361 62.5568C258.829 61.7048 259.228 61.4658 259.248 62.0373C259.258 62.6087 260.724 62.9308 262.499 62.7646C264.274 62.5879 266.737 62.2347 267.974 61.9853C269.21 61.7255 270.068 60.9359 269.889 60.2189Z" fill="#431806"/>
<path d="M264.962 434.533C264.753 437.11 264.583 435.468 264.573 430.896C264.573 426.324 264.743 424.225 264.962 426.22C265.172 428.215 265.172 431.956 264.962 434.533Z" fill="#BB2C29"/>
<path d="M262.978 364.398C262.768 367.255 262.599 365.156 262.599 359.722C262.599 354.288 262.768 351.95 262.978 354.527C263.177 357.104 263.177 361.54 262.978 364.398Z" fill="#CB8881"/>
<path d="M262.968 346.215C262.758 348.791 262.589 346.911 262.589 342.058C262.589 337.206 262.758 335.097 262.968 337.383C263.177 339.669 263.177 343.638 262.968 346.215Z" fill="#CC5150"/>
<path d="M261.971 315.563C261.751 317.849 261.572 316.446 261.572 312.446C261.562 308.445 261.741 306.575 261.961 308.29C262.18 310.004 262.18 313.277 261.971 315.563Z" fill="#DEB6AD"/>
<path d="M263.256 354.008C262.718 319.148 261.99 283.031 261.651 273.742L261.022 256.857H266.118C269.16 256.857 272.421 257.585 274.216 258.676C275.871 259.673 277.227 261.201 277.227 262.053C277.227 262.905 276.769 264.079 276.21 264.65C275.512 265.357 275.662 266.676 276.689 268.806C277.975 271.466 278.055 274.272 277.197 288.029C276.649 296.881 275.971 319.802 275.692 338.941C275.412 358.081 274.954 387.08 274.674 403.362C274.385 419.644 273.907 433.213 273.607 433.494C273.308 433.774 272.64 433.193 272.131 432.195C271.633 431.198 270.317 430.377 269.22 430.377C268.103 430.377 267.096 431.177 266.926 432.195C266.756 433.193 266.088 430.273 265.43 425.701C264.712 420.672 263.845 392.358 263.256 354.008Z" fill="#C60203"/>
<path d="M266.478 256.67C263.167 256.535 264.134 256.296 269.719 255.87C274.106 255.537 279.272 255.464 281.187 255.693C283.101 255.922 284.906 256.348 285.175 256.628C285.445 256.909 285.116 257.314 284.428 257.522C283.64 257.761 283.5 258.374 284.059 259.195C284.577 259.943 284.577 261.48 284.059 262.831C283.52 264.265 282.603 264.972 281.685 264.65C280.518 264.244 280.08 265.325 279.701 269.585C279.431 272.588 278.773 290.47 278.225 309.328C277.686 328.187 277.228 357.643 277.218 374.788C277.208 393.054 277.557 405.315 278.075 404.4C278.574 403.507 279.172 403.288 279.471 403.881C279.761 404.452 279.661 410.531 278.494 429.857L278.275 419.466C278.125 412.577 277.766 409.772 277.198 411.154C276.729 412.297 276.31 418.729 276.27 425.441C276.2 437.213 276.121 437.67 273.957 438.21C272.72 438.512 270.367 438.865 268.721 438.99C265.75 439.208 265.73 439.166 265.57 433.493C265.441 428.953 265.57 428.412 266.198 430.896C266.637 432.61 267.046 433.192 267.106 432.194C267.176 431.114 268.033 430.376 269.22 430.376C270.317 430.376 271.633 431.197 272.132 432.194C272.64 433.192 273.309 433.774 273.608 433.493C273.907 433.213 274.386 419.643 274.675 403.361C274.954 387.079 275.413 358.08 275.692 338.941C275.971 319.802 276.649 296.881 277.198 288.028C278.055 274.271 277.976 271.466 276.689 268.806C275.662 266.676 275.512 265.356 276.21 264.65C276.769 264.078 277.228 262.904 277.228 262.052C277.228 261.19 275.871 259.673 274.216 258.675C272.571 257.678 269.08 256.774 266.478 256.67Z" fill="#B50C0C"/>
<path d="M220.316 264.391C219.788 259.102 219.399 253.574 219.449 252.109C219.518 250.125 219.967 249.584 221.194 249.979C222.101 250.28 229.351 251.683 237.309 253.117C245.257 254.54 253.633 255.85 260.065 256.338L260.654 270.885C260.973 278.885 261.691 314.888 262.249 350.89C262.798 386.893 263.586 421.639 264.732 439.853L260.245 439.209C257.772 438.855 251.29 437.546 245.835 436.289C240.38 435.042 235.444 433.515 234.866 432.912C234.287 432.299 233.24 422.948 232.532 412.131C231.814 401.305 230.378 382.404 229.321 370.113C228.274 357.821 226.03 331.17 224.345 310.887C222.66 290.605 220.845 269.679 220.316 264.391Z" fill="#FDFDF2"/>
<path d="M285.175 254.041C288.745 253.189 295.696 251.423 300.632 250.093C305.568 248.774 310.395 247.651 311.352 247.599C312.379 247.547 313.097 248.254 313.097 249.324C313.097 250.322 312.429 261.897 311.611 275.04C310.784 288.184 309.208 312.269 308.111 328.551C307.004 344.833 305.419 368.211 304.581 380.503C303.743 392.795 302.736 409.388 301.629 431.935L291.158 434.616C285.405 436.091 279.112 437.588 277.197 437.93C275.283 438.273 274.266 438.346 274.954 438.097C275.851 437.775 276.22 434.221 276.27 425.441C276.31 418.729 276.729 412.297 277.197 411.154C277.766 409.772 278.125 412.578 278.494 429.857L279.242 417.389C279.661 410.531 279.76 404.453 279.471 403.881C279.172 403.289 278.574 403.507 278.075 404.401C277.556 405.315 277.207 393.054 277.217 374.788C277.227 357.644 277.686 328.187 278.225 309.329C278.773 290.47 279.431 272.588 279.7 269.585C280.079 265.325 280.518 264.245 281.685 264.65C282.602 264.972 283.52 264.266 284.058 262.832C284.637 261.315 284.547 260.026 283.809 259.154C282.961 258.135 282.991 257.813 283.929 257.855C284.617 257.876 285.175 257.429 285.175 256.857C285.175 256.286 283.719 255.766 281.934 255.694C279.491 255.61 280.289 255.195 285.175 254.041Z" fill="#A80604"/>
<path d="M179.46 265.689C178.344 255.403 177.237 245.636 177.017 243.973C176.618 241.074 176.708 240.991 179.78 241.719C181.525 242.134 190.819 244.004 200.412 245.875C210.015 247.755 217.953 249.698 218.073 250.218C218.182 250.727 219.618 266.801 221.264 285.95C222.909 305.09 224.744 327.076 225.332 334.785C225.931 342.495 227.267 358.86 228.314 371.152C229.351 383.443 230.737 401.668 231.386 411.674C232.034 421.67 232.393 430.626 232.193 431.561C231.864 433.057 230.428 432.85 219.858 429.733C213.276 427.8 205.737 425.628 203.114 424.922C199.704 423.997 198.218 423.031 197.929 421.545C197.7 420.402 193.91 389.075 189.502 351.929C185.095 314.784 180.577 275.976 179.46 265.689Z" fill="#C60203"/>
<path d="M323.888 245.688C329.193 244.41 336.233 242.706 339.524 241.906C342.815 241.116 346.295 240.409 347.252 240.347C348.21 240.285 348.998 240.586 348.998 241.012C348.998 241.438 347.871 252.078 346.495 264.65C345.118 277.223 341.728 308.311 338.976 333.746C336.223 359.182 332.972 389.511 331.756 401.149C329.771 420.215 329.352 422.397 327.557 423.104C326.46 423.54 320.407 425.587 302.627 431.395L303.415 416.08C303.854 407.653 305.09 387.672 306.177 371.671C307.254 355.67 309.239 325.746 310.575 305.173C311.921 284.6 313.287 263.331 314.225 248.026L323.888 245.688Z" fill="#F8EDE1"/>
<path d="M148.058 265.689C146.153 251.974 144.408 239.173 144.179 237.24C143.8 234.092 143.979 233.791 145.914 234.289C147.091 234.591 153.892 236.139 161.022 237.718C168.152 239.308 174.315 240.877 174.724 241.199C175.133 241.521 176.359 249.272 177.446 258.416C178.543 267.559 181.694 294.211 184.437 317.641C187.189 341.071 190.34 367.723 191.447 376.866C192.544 386.01 194.229 399.663 195.187 407.206C196.144 414.749 196.692 421.202 196.423 421.534C196.154 421.877 192.783 421.192 188.944 420.007C185.105 418.822 179.052 416.672 169 412.609L167.733 402.53C167.035 396.982 164.223 376.554 161.501 357.124C158.768 337.694 155.408 314.784 154.031 306.212C152.645 297.639 149.963 279.404 148.058 265.689Z" fill="#FDFDF2"/>
<path d="M367.695 234.424C375.234 232.367 381.596 230.497 381.826 230.268C382.055 230.029 382.723 229.842 383.322 229.853C384.079 229.863 384.03 233.125 383.132 241.022C382.444 247.163 380.28 264.099 378.345 278.677C376.401 293.244 372.113 323.875 368.812 346.734C365.521 369.593 362.29 393.304 360.465 410.572L349.995 414.936C344.241 417.337 337.509 420.1 330.549 422.875L330.808 420.132C330.948 418.625 331.945 408.733 333.032 398.166C334.109 387.599 337.479 356.501 340.521 329.07C343.563 301.64 346.933 270.313 348.02 259.455C349.107 248.597 349.995 239.36 349.995 238.934C349.995 238.508 350.892 238.154 351.989 238.154C353.086 238.154 360.156 236.471 367.695 234.424Z" fill="#A80604"/>
<path d="M386.315 230.507L393.834 227.837C401.193 225.218 401.363 225.208 401.632 227.244C401.791 228.387 399.618 244.752 396.825 263.611C394.023 282.469 390.443 306.554 388.868 317.121C387.292 327.688 384.4 346.63 382.445 359.202C380.491 371.775 378.227 386.269 377.409 391.412C376.582 396.556 375.914 401.117 375.914 401.543C375.924 401.969 372.762 403.839 361.883 409.076L362.471 402.322C362.79 398.603 364.835 382.716 367.018 366.995C369.192 351.285 371.626 334.213 372.433 329.07C373.231 323.927 375.684 306.388 377.878 290.106C380.082 273.814 382.884 253.75 386.315 230.507Z" fill="#F8EDE1"/>
<path d="M118.202 254.259C115.709 240.544 113.664 228.273 113.664 226.984C113.654 225.696 113.884 224.647 114.153 224.647C114.422 224.647 119.927 226.288 126.369 228.304C132.811 230.309 138.874 231.951 139.831 231.941C140.789 231.93 141.776 232.273 142.015 232.699C142.255 233.125 144.279 246.331 146.513 262.052C148.756 277.762 151.23 294.605 152.017 299.457C152.805 304.31 154.171 313.432 155.059 319.719C155.936 326.005 158.22 342.141 160.125 355.565C162.029 368.99 164.453 386.061 165.52 393.49C166.587 400.919 167.474 408.047 167.484 409.336C167.494 410.624 166.946 411.663 166.258 411.653C165.57 411.632 160.195 409.408 143.601 401.803L142.993 396.607C142.654 393.75 141.098 384.16 139.522 375.307C137.947 366.454 134.407 346.11 131.654 330.109C128.892 314.108 125.761 296.101 124.694 290.106C123.617 284.111 120.705 267.974 118.202 254.259Z" fill="#C60203"/>
<path d="M103.084 255.298C99.5141 236.44 96.3828 220.075 96.1435 218.932C95.7147 216.958 95.954 216.979 100.94 219.514C103.822 220.979 107.631 222.725 109.416 223.41C111.6 224.242 112.657 225.322 112.657 226.725C112.657 227.868 114.662 240.139 117.105 254C119.548 267.86 122.729 285.742 124.175 293.743C125.621 301.743 129.241 322.316 132.203 339.461C135.175 356.605 138.735 377.406 140.121 385.698C141.497 393.989 142.504 400.899 142.355 401.065C142.205 401.221 139.154 399.631 135.593 397.532C132.023 395.423 129.032 393.657 128.922 393.594C128.822 393.543 127.386 386.009 125.731 376.866C124.076 367.722 121.174 352.532 119.279 343.097C117.384 333.663 114.423 317.776 112.707 307.77C110.982 297.774 106.654 274.157 103.084 255.298Z" fill="#FDFDF2"/>
<path d="M407.076 222.787C409.409 222.039 413.568 220.106 416.31 218.475C419.052 216.854 421.635 215.472 422.044 215.41C422.453 215.348 422.792 216.231 422.792 217.374C422.792 218.517 420.787 231.255 418.334 245.687C415.891 260.12 413.647 273.326 413.358 275.04C413.069 276.755 410.386 291.945 407.385 308.809C404.383 325.673 400.045 349.976 397.742 362.839C395.438 375.692 393.284 387.859 392.945 389.854C392.427 393.002 391.37 394.114 385.127 398.166C381.158 400.743 377.688 402.603 377.428 402.322C377.159 402.042 379.373 385.906 382.345 366.476C385.316 347.046 389.784 317.589 392.287 301.016C394.79 284.444 398.191 261.647 399.846 250.363C401.491 239.079 402.848 228.554 402.838 226.985C402.838 224.522 403.416 223.94 407.076 222.787Z" fill="#A80604"/>
<path d="M228.673 216.854L233.739 211.961C236.521 209.269 238.904 207.046 239.014 207.025C239.134 207.004 239.024 207.451 238.765 208.023C238.515 208.594 238.974 209.062 239.802 209.062C240.629 209.062 241.078 209.529 240.799 210.101C240.53 210.672 240.749 211.14 241.298 211.14C241.846 211.14 242.325 210.319 242.365 209.321C242.405 208.324 243.073 209.727 243.86 212.439C244.648 215.15 245.735 217.613 246.284 217.893C246.832 218.174 247.291 218.995 247.301 219.712C247.311 220.678 246.224 220.803 243.063 220.2C240.719 219.753 236.521 218.818 228.673 216.854Z" fill="#BB2C29"/>
<path d="M266.029 208.23C265.92 206.63 266.458 204.76 267.226 204.074C267.994 203.388 268.852 202.827 269.121 202.827C269.39 202.827 269.071 203.409 268.403 204.126C267.735 204.843 267.196 206.942 267.206 208.802C267.226 211.493 266.817 212.179 265.232 212.179C264.135 212.179 263.008 211.711 262.739 211.139C262.449 210.547 263.098 210.319 264.234 210.62C265.9 211.056 266.199 210.662 266.029 208.23Z" fill="#FDECA1"/>
<path d="M226.091 206.183C226.5 206.308 228.145 205.134 229.731 203.586C231.326 202.027 232.693 200.749 232.782 200.749C232.872 200.749 232.912 201.611 232.882 202.661C232.852 203.71 232.264 205.342 231.576 206.298C230.888 207.243 229.88 207.783 229.332 207.503C228.783 207.222 228.225 207.472 228.085 208.085C227.946 208.687 226.609 209.269 225.104 209.383C223.608 209.487 222.371 209.228 222.361 208.802C222.361 208.376 223.019 208.022 223.847 208.022C224.675 208.022 225.343 207.555 225.343 206.983C225.343 206.412 225.682 206.048 226.091 206.183Z" fill="#FDCD43"/>
<path d="M237.598 209.321C239.213 207.295 240.3 204.697 240.3 202.827C240.3 201.113 240.639 199.71 241.048 199.71C241.457 199.72 241.906 202.287 242.046 205.425C242.185 208.718 241.876 211.139 241.298 211.139C240.749 211.139 240.53 210.672 240.799 210.1C241.068 209.529 240.739 209.072 240.051 209.093C239.363 209.103 237.927 209.924 236.85 210.911C235.763 211.888 236.102 211.181 237.598 209.321Z" fill="#DB822B"/>
<path d="M353.016 201.009C352.996 199.72 353.285 197.954 353.664 197.081C354.213 195.793 354.592 195.741 355.709 196.821C356.466 197.559 356.686 198.38 356.197 198.671C355.709 198.951 354.801 200.126 354.173 201.269C353.076 203.284 353.046 203.284 353.016 201.009Z" fill="#FDCD43"/>
<path d="M163.515 202.308C162.857 200.604 162.857 198.816 163.495 197.112C164.033 195.678 165.04 194.494 165.738 194.473C166.437 194.442 167.673 195.169 168.501 196.073C169.328 196.977 171.363 197.705 173.038 197.673C174.713 197.653 176.628 197.05 177.296 196.333C178.254 195.304 178.493 195.575 178.443 197.632C178.413 199.055 179.101 200.926 179.969 201.788C180.836 202.64 181.534 204.167 181.505 205.165C181.485 206.194 182.223 207.014 183.21 207.046C184.556 207.098 184.446 207.336 182.711 208.085C181.475 208.625 179.909 208.739 179.221 208.344C178.533 207.96 176.857 207.544 175.481 207.43C174.115 207.326 171.084 206.713 168.75 206.069C165.738 205.238 164.223 204.157 163.515 202.308Z" fill="#FDCD43"/>
<path d="M249.375 196.593C249.595 195.73 250.223 194.712 250.771 194.307C251.32 193.912 253.873 193.642 256.445 193.704C259.018 193.777 261.162 194.099 261.202 194.432C261.242 194.764 260.614 195.969 259.796 197.112C258.978 198.255 258.3 200.479 258.28 202.048C258.26 203.617 258.919 206.308 259.746 208.022C260.574 209.737 262.479 211.617 263.984 212.199C266.099 213.01 267.126 212.895 268.472 211.68C269.549 210.703 269.968 209.404 269.559 208.282C269.2 207.285 269.878 207.752 271.055 209.321C272.241 210.89 272.989 212.646 272.71 213.217C272.441 213.789 272.66 214.256 273.209 214.256C273.757 214.256 274.206 213.321 274.206 212.178C274.206 210.984 275.163 209.716 276.45 209.196C277.686 208.698 279.362 208.386 280.189 208.5C281.017 208.615 282.194 208.209 282.822 207.586C283.669 206.744 283.669 206.277 282.822 205.705C282.124 205.238 282.463 204.936 283.679 204.926C284.776 204.926 287.25 205.362 289.164 205.903C291.079 206.443 294.449 207.056 296.643 207.264C298.837 207.472 301.53 208.188 302.627 208.843C304.372 209.882 304.402 210.038 302.876 210.069C301.919 210.09 301.131 210.568 301.131 211.139C301.131 211.711 300.572 211.877 299.884 211.503C299.033 211.039 298.95 211.191 299.635 211.96C300.183 212.584 301.978 213.82 306.615 216.324H303.375C301.589 216.335 294.41 217.581 287.419 219.109C280.429 220.626 271.533 221.914 267.654 221.966C261.691 222.039 260.025 221.644 256.914 219.452C254.89 218.018 252.357 214.984 251.28 212.698C250.193 210.412 249.236 206.204 249.146 203.347C249.056 200.489 249.156 197.445 249.375 196.593Z" fill="#FDCD43"/>
<path d="M262.239 195.553C262.788 195.553 263.266 194.826 263.296 193.933C263.346 192.603 264.313 192.426 268.781 192.894C271.763 193.216 274.994 193.922 275.951 194.473C277.138 195.148 278.065 195.065 278.863 194.213C279.76 193.236 280.269 193.475 281.107 195.294C281.914 197.05 281.874 197.819 280.937 198.4C280.059 198.941 279.93 198.712 280.508 197.621C280.967 196.769 280.738 196.883 280.01 197.881C279.292 198.868 278.344 199.336 277.915 198.92C277.487 198.494 277.158 198.733 277.168 199.45C277.187 200.316 276.45 200.513 274.954 200.042C273.348 199.533 272.919 199.678 273.458 200.562C273.927 201.331 273.558 201.788 272.461 201.777C271.503 201.777 269.708 202.473 268.472 203.336C266.976 204.382 266.228 205.944 266.228 208.022C266.228 209.809 265.69 211.149 264.982 211.17C264.293 211.191 263.007 210.37 262.12 209.352C261.232 208.334 259.995 206.453 259.377 205.165C258.5 203.346 258.589 202.016 259.746 199.19C260.574 197.185 261.691 195.553 262.239 195.553Z" fill="#F8EDE1"/>
<path d="M237.309 194.567C236.242 194.421 236.382 194.109 237.808 193.476C238.905 192.987 240.141 192.551 240.55 192.509C240.959 192.468 241.298 193.372 241.298 194.515C241.298 195.658 241.528 197.299 241.797 198.151C242.066 199.003 241.847 199.71 241.298 199.71C240.75 199.71 240.301 198.546 240.301 197.112C240.301 195.678 239.962 194.567 239.553 194.639C239.144 194.702 238.137 194.67 237.309 194.567Z" fill="#EDA53E"/>
<path d="M250.113 193.394C250.013 193.061 250.312 192.468 250.771 192.094C251.23 191.71 252.087 191.408 252.686 191.408C253.274 191.419 254.77 191.658 256.007 191.928C257.243 192.209 258.25 192.791 258.25 193.217C258.25 193.643 256.455 193.996 254.261 193.996C252.067 193.996 250.203 193.726 250.113 193.394Z" fill="#FDD551"/>
<path d="M332.793 199.419C330.709 199.627 330.579 199.305 330.938 194.744C331.158 192.042 331.497 190.421 331.686 191.138C331.975 192.177 332.354 192.177 333.581 191.138C334.927 190.006 335.117 190.432 335.087 194.515C335.047 198.588 334.758 199.222 332.793 199.419Z" fill="#55200B"/>
<path d="M412.32 195.918C416.16 193.902 420.358 191.408 421.654 190.38C422.951 189.351 424.556 188.759 425.214 189.05C425.883 189.351 426.421 191.284 426.411 193.351C426.411 195.419 425.932 197.788 425.344 198.609C424.556 199.731 424.596 199.928 425.534 199.388C426.222 198.993 426.78 198.91 426.78 199.191C426.78 199.471 423.749 201.549 420.049 203.804C416.349 206.048 408.381 209.81 402.348 212.158C396.315 214.516 381.506 218.953 369.44 222.029C357.374 225.115 340.102 229.344 331.047 231.442C321.992 233.541 307.194 237.064 298.139 239.277C286.91 242.02 281.366 242.965 280.688 242.228C280.139 241.646 279.69 238.923 279.69 236.18C279.69 233.23 280.299 230.476 281.186 229.437C282.014 228.46 283.799 227.691 285.175 227.712C286.541 227.723 298.438 225.437 311.601 222.621C324.765 219.805 340.022 216.522 345.507 215.327C350.992 214.132 361.542 211.721 368.941 209.976C376.341 208.23 387.56 205.176 393.872 203.201C400.184 201.217 408.481 197.944 412.32 195.918Z" fill="#F8EDE1"/>
<path d="M346.785 192.26C346.685 190.743 347.164 189.299 347.852 189.06C348.54 188.831 349.816 189.226 350.684 189.943C351.561 190.66 352.2 191.865 352.12 192.624C352 193.673 351.721 193.621 350.963 192.437C350.095 191.097 349.756 191.159 348.46 192.956C347.004 194.983 346.964 194.962 346.785 192.26Z" fill="#55200B"/>
<path d="M255.857 191.158C254.81 190.431 254.252 189.278 254.601 188.582C255.06 187.698 255.897 187.626 257.493 188.343C258.729 188.904 260.544 189.693 261.522 190.119C262.499 190.535 263.137 191.345 262.938 191.917C262.738 192.488 262.27 192.842 261.911 192.696C261.542 192.551 260.455 192.447 259.497 192.457C258.54 192.468 256.895 191.875 255.857 191.158Z" fill="#F8EDE1"/>
<path d="M355.041 191.917C354.682 189.631 354.552 187.407 354.732 186.981C354.921 186.555 355.26 186.202 355.489 186.202C355.719 186.202 355.699 186.67 355.44 187.241C355.19 187.813 355.32 188.291 355.729 188.301C356.138 188.311 356.327 189.361 356.138 190.639C355.868 192.53 356.377 193.049 358.87 193.475C360.555 193.756 361.941 193.756 361.951 193.475C361.961 193.195 362.63 192.956 363.457 192.956C364.285 192.956 364.953 193.07 364.953 193.216C364.953 193.361 363.268 194.203 361.214 195.107C358.172 196.426 357.334 196.478 356.746 195.367C356.337 194.608 355.938 194.463 355.848 195.034C355.769 195.605 355.4 194.203 355.041 191.917Z" fill="#F8EDE1"/>
<path d="M284.178 193.217C284.727 190.785 286.272 187.512 287.619 185.943C289.424 183.844 291.009 183.086 293.602 183.086C296.534 183.086 297.471 183.668 299.077 186.463C300.144 188.323 301.49 190.422 302.068 191.139C302.647 191.855 304.132 192.458 305.369 192.468C306.606 192.489 308.849 191.554 313.097 188.281L313.586 190.619C313.845 191.907 314.075 194.713 314.085 196.853C314.095 199.347 314.813 201.498 316.089 202.828C317.186 203.971 318.532 204.906 319.081 204.906C319.629 204.906 320.297 205.841 320.577 206.984C320.866 208.179 321.604 208.802 322.322 208.459C323.01 208.137 322.441 208.865 321.075 210.091C319.699 211.317 316.338 212.99 313.596 213.821C310.854 214.642 307.483 215.307 306.117 215.286C304.741 215.265 302.497 214.288 301.131 213.104C299.755 211.93 299.196 211.234 299.884 211.566C300.572 211.909 301.131 211.711 301.131 211.14C301.131 210.569 301.919 210.091 302.876 210.07C304.402 210.039 304.372 209.883 302.627 208.844C301.53 208.189 298.837 207.472 296.643 207.264C294.45 207.057 291.079 206.444 289.164 205.903C287.24 205.363 284.777 204.927 283.68 204.927C282.463 204.937 282.124 205.238 282.822 205.706C283.67 206.277 283.67 206.745 282.822 207.587C282.194 208.21 281.007 208.615 280.189 208.501C279.362 208.387 277.686 208.698 276.45 209.197C275.163 209.717 274.206 210.984 274.206 212.179C274.206 213.322 273.757 214.257 273.209 214.257C272.66 214.257 272.431 213.79 272.71 213.218C272.979 212.647 272.241 210.891 271.055 209.322C269.878 207.753 269.2 207.285 269.559 208.283C269.978 209.446 269.499 210.756 268.213 211.919C267.116 212.917 265.879 213.374 265.47 212.927C265.062 212.48 265.291 212.137 265.979 212.148C266.727 212.169 267.215 210.839 267.206 208.802C267.196 206.942 267.734 204.843 268.402 204.127C269.07 203.41 270.317 202.828 271.164 202.817C272.012 202.807 275.064 201.643 277.946 200.22C282.642 197.903 283.281 197.175 284.178 193.217Z" fill="#FDD551"/>
<path d="M313.486 190.92C312.938 182.919 313.057 182.088 314.733 181.683C315.76 181.444 318.044 181.194 319.829 181.132C322.112 181.038 324.027 181.901 326.31 184.041C329.272 186.805 329.551 187.605 329.551 193.185C329.551 198.245 329.043 200.074 326.56 203.918C324.914 206.464 323.01 208.656 322.322 208.801C321.634 208.947 320.846 208.126 320.576 206.983C320.307 205.84 319.18 204.666 318.083 204.386C316.986 204.105 315.64 202.931 315.092 201.788C314.543 200.645 313.825 195.751 313.486 190.92Z" fill="#FDCD43"/>
<path d="M253.015 185.081C251.379 185.018 252.127 184.322 255.757 182.545C258.5 181.195 261.531 180.072 262.488 180.031C263.446 180 264.234 180.436 264.234 181.008C264.234 181.579 263.785 182.047 263.236 182.047H261.741C261.471 182.047 259.896 182.743 258.25 183.605C256.605 184.457 254.251 185.122 253.015 185.081Z" fill="#734422"/>
<path d="M234.677 185.683C233.679 181.631 233.67 180.322 234.607 179.73C235.275 179.304 237.718 178.95 240.052 178.95C242.784 178.94 244.29 179.387 244.29 180.228C244.29 180.945 243.841 183.044 243.293 184.904C242.485 187.626 242.585 188.385 243.791 188.8C244.619 189.081 245.068 189.788 244.788 190.359C244.519 190.931 243.731 191.045 243.053 190.619C242.236 190.106 242.069 190.279 242.555 191.138C242.964 191.855 242.874 193.487 241.428 197.113L241.358 194.775C241.308 192.967 240.84 192.551 239.304 192.957C238.207 193.237 237 192.894 236.631 192.177C236.252 191.46 235.375 188.541 234.677 185.683Z" fill="#FDD551"/>
<path d="M237.319 189.06C236.77 187.491 236.312 185.735 236.312 185.163C236.312 184.592 236.83 184.124 237.468 184.124C238.097 184.124 238.795 185.641 239.024 187.501C239.243 189.361 239.174 191.117 238.874 191.397C238.575 191.678 237.877 190.628 237.319 189.06Z" fill="#FDECA1"/>
<path d="M348.181 180.405C348.35 180.363 350.076 179.823 351.99 179.21C353.905 178.597 355.59 178.056 355.73 177.994C355.869 177.942 356.986 178.42 358.223 179.075C359.459 179.719 360.696 180.415 360.965 180.623C361.234 180.831 360.566 181.953 359.469 183.117C358.372 184.28 357.026 185.195 356.478 185.153C355.929 185.112 354.812 185.818 353.985 186.722C353.157 187.626 351.93 188.353 351.242 188.322C350.554 188.301 349.517 186.525 348.929 184.384C348.34 182.244 348.001 180.446 348.181 180.405Z" fill="#FDCD43"/>
<path d="M309.927 186.42C309.558 185.444 309.209 182.773 309.149 180.487C309.099 178.202 309.258 176.57 309.518 176.851C309.777 177.131 310.126 179.116 310.296 181.256C310.475 183.532 311.223 185.392 312.101 185.724C313.427 186.244 313.427 186.41 312.101 187.262C311.033 187.927 310.405 187.688 309.927 186.42Z" fill="#F8EDE1"/>
<path d="M389.865 177.63C389.875 177.204 390.892 176.685 392.128 176.477C393.365 176.269 395.04 176.082 395.868 176.072C396.695 176.061 396.496 176.248 395.429 176.487C394.242 176.758 393.185 178.223 392.697 180.269C392.258 182.098 391.899 184.187 391.889 184.904C391.889 185.621 392.547 185.963 393.375 185.683C394.232 185.382 395.299 186.057 395.868 187.241C396.416 188.384 397.533 189.319 398.361 189.319C399.189 189.319 399.627 189.787 399.358 190.359C399.089 190.93 399.647 191.418 400.605 191.439C401.788 191.46 401.372 192.031 399.358 193.154C397.713 194.068 392.776 195.886 388.389 197.195C384.001 198.494 376.372 200.541 371.436 201.715C366.5 202.9 360.217 203.991 352.489 204.386L352.2 200.749C352.04 198.754 352.379 196.645 352.948 196.073C353.666 195.356 353.825 196.333 353.466 199.19C352.987 202.972 353.057 203.139 354.214 200.977C354.912 199.668 355.82 198.619 356.228 198.64C356.637 198.66 356.747 198.203 356.478 197.632C356.208 197.06 356.877 196.593 357.974 196.593C359.07 196.593 360.975 196.125 362.212 195.554C363.448 194.972 364.974 193.455 365.602 192.177C366.23 190.888 367.357 188.26 368.095 186.317C368.833 184.384 370.558 182.223 371.935 181.506C373.351 180.779 375.285 180.55 376.422 180.997C377.519 181.423 379.085 182.555 379.912 183.511C380.74 184.467 382.754 185.257 384.4 185.257C386.045 185.257 388.508 184.332 389.884 183.2C391.909 181.537 392.138 180.903 391.111 179.781C390.423 179.023 389.855 178.056 389.865 177.63Z" fill="#FDD551"/>
<path d="M392.207 183.439C392.666 181.818 393.015 179.543 392.985 178.389C392.935 176.581 393.543 176.29 397.353 176.311C399.916 176.321 402.428 176.986 403.316 177.89C404.154 178.742 405.151 181.08 405.51 183.086C405.979 185.642 405.679 187.574 404.513 189.58C403.326 191.606 402.269 192.292 400.853 191.917C399.756 191.637 399.088 190.93 399.357 190.359C399.626 189.787 399.188 189.32 398.36 189.32C397.532 189.32 396.415 188.385 395.867 187.242C395.219 185.881 394.271 185.372 393.124 185.777C391.619 186.307 391.499 185.985 392.207 183.439Z" fill="#FDCD43"/>
<path d="M260.075 178.67C258.33 178.524 256.705 177.828 256.465 177.111C256.206 176.332 256.874 175.812 258.131 175.812C259.298 175.812 260.913 176.051 261.741 176.332C262.568 176.612 263.237 177.319 263.237 177.89C263.237 178.462 261.811 178.815 260.075 178.67Z" fill="#FDD551"/>
<path d="M357.474 178.94C356.925 178.929 357.773 178.015 359.348 176.903C360.924 175.802 362.609 175.095 363.088 175.355C363.567 175.605 363.527 177.08 362.988 178.67C362.45 180.239 360.994 182.462 357.474 185.683L359.468 183.283C361.193 181.205 361.263 180.748 359.967 179.917C359.139 179.397 358.022 178.95 357.474 178.94Z" fill="#FDD551"/>
<path d="M246.782 178.888C247.879 178.877 250.572 177.994 252.766 176.903C254.959 175.823 257.652 174.971 258.749 175.002C260.364 175.043 260.315 175.127 258.5 175.438C257.263 175.646 256.256 176.28 256.256 176.851C256.256 177.423 257.263 178.171 258.5 178.524C260.454 179.075 260.105 179.449 255.757 181.496C253.015 182.784 249.425 185.112 247.779 186.66C246.134 188.208 244.339 189.257 243.791 188.977C243.126 188.644 243.126 186.882 243.791 183.688C244.568 179.937 245.227 178.888 246.782 178.888Z" fill="#FDCD43"/>
<path d="M84.535 188.208C84.4053 186.743 85.1632 183.003 86.2103 179.896L88.115 174.254L88.7632 179.449C89.3415 184.083 89.9897 185.185 94.7963 189.621C98.4362 192.977 102.784 195.627 108.169 197.799C112.557 199.565 126.468 203.7 139.083 206.994C151.698 210.277 168.979 214.413 177.476 216.169C185.972 217.925 206.395 221.821 222.849 224.824C247.251 229.281 254.88 230.289 264.234 230.289C270.546 230.3 276.938 229.967 278.444 229.552C279.95 229.136 280.997 229.157 280.758 229.583C280.528 230.009 280.089 231.765 279.78 233.479C279.471 235.194 279.661 238.113 280.199 239.973C281.037 242.841 280.917 243.423 279.441 243.807C278.484 244.067 275.004 244.773 271.713 245.376C268.422 245.979 263.715 246.467 261.242 246.467C258.769 246.457 248.448 245.044 238.306 243.319C228.164 241.604 213.126 238.996 204.899 237.531C196.672 236.066 181.863 233.063 171.991 230.871C162.119 228.668 148.207 225.385 141.077 223.577C133.947 221.78 124.523 219.13 120.136 217.696C115.748 216.262 108.119 213.072 103.183 210.62C98.2467 208.158 92.6324 204.563 90.7177 202.63C88.803 200.697 86.669 197.258 86.0009 194.993C85.3228 192.728 84.6646 189.673 84.535 188.208Z" fill="#FDFDF2"/>
<path d="M426.7 185.164C427.837 183.158 428.765 179.771 428.765 177.631C428.775 175.49 429.223 173.734 429.772 173.734C430.32 173.734 431.218 175.49 431.756 177.631C432.305 179.771 432.763 182.93 432.763 184.644C432.773 186.359 431.696 190.099 430.36 192.957C429.034 195.814 427.119 198.547 426.112 199.025C424.666 199.721 424.507 199.606 425.334 198.505C425.913 197.736 426.501 195.471 426.641 193.476C426.78 191.471 426.391 189.601 425.763 189.32C425.005 188.967 425.314 187.616 426.7 185.164Z" fill="#FDFDF2"/>
<path d="M324.815 173.339C326.84 172.934 327.837 172.238 327.478 171.469C327.159 170.794 328.395 171.459 330.22 172.955C332.045 174.451 335.565 176.633 338.028 177.797C340.501 178.971 343.752 179.937 345.258 179.948C346.764 179.958 348 180.208 348 180.488C348 180.769 347.412 181.589 346.684 182.306C345.767 183.221 345.497 185.766 345.767 190.878C345.986 194.879 345.767 200.022 345.298 202.308C344.69 205.196 343.673 206.828 341.977 207.659C340.631 208.314 337.949 209.155 336.034 209.54C334.119 209.914 333.072 209.851 333.72 209.384C334.368 208.916 334.997 206.443 335.116 203.866C335.226 201.29 335.376 196.354 335.426 192.884C335.515 187.637 335.077 185.849 332.793 182.234C331.038 179.449 328.535 177.184 321.574 173.973L324.815 173.339Z" fill="#EDA53E"/>
<path d="M259.398 172.851C261.931 173.204 261.97 173.132 260.395 171.137L258.749 169.059L260.973 171.137C262.19 172.28 263.087 173.973 262.968 174.898C262.788 176.218 262.319 176.353 260.744 175.532C259.248 174.742 257.443 175.044 253.514 176.706C250.632 177.932 247.491 178.888 246.534 178.836C245.576 178.784 246.244 178.316 248.029 177.797C249.814 177.277 252.507 175.875 254.013 174.669C255.668 173.35 257.802 172.633 259.398 172.851Z" fill="#EDA53E"/>
<path d="M226.339 172.841C228.683 174.056 228.783 173.994 228.085 171.854C227.357 169.62 227.436 169.63 232.073 172.342C234.676 173.869 237.259 175.542 237.807 176.062C238.416 176.633 237.738 176.768 236.062 176.405C234.517 176.072 233.32 176.269 233.32 176.851C233.32 177.433 232.123 177.246 230.578 176.415C229.072 175.594 226.938 174.171 225.841 173.235C223.926 171.604 223.946 171.594 226.339 172.841Z" fill="#55200B"/>
<path d="M253.953 172.29C256.246 171.085 257.882 169.744 257.593 169.318C257.293 168.892 257.642 168.539 258.37 168.539C259.088 168.539 260.185 169.589 260.794 170.877C261.821 173.028 261.701 173.184 259.338 172.851C257.822 172.643 255.718 173.339 254.262 174.534C252.886 175.667 249.745 177.132 247.281 177.797C244.808 178.472 242.684 178.878 242.545 178.711C242.415 178.545 243.981 177.527 246.035 176.446C248.089 175.376 251.649 173.506 253.953 172.29Z" fill="#DB822B"/>
<path d="M223.139 171.489C222.7 170.637 223.089 169.817 224.136 169.391C225.073 169.006 226.29 168.642 226.838 168.58C227.387 168.528 228.095 168.778 228.424 169.141C228.743 169.494 228.633 170.908 228.175 172.279C227.467 174.378 227.776 175.012 230.079 176.29C231.585 177.121 232.373 177.828 231.824 177.859C231.276 177.88 229.82 177.204 228.583 176.342C227.347 175.479 226.569 174.305 226.838 173.734C227.118 173.162 226.888 172.695 226.34 172.695C225.791 172.695 225.003 172.736 224.595 172.788C224.186 172.83 223.528 172.248 223.139 171.489Z" fill="#734422"/>
<path d="M203.224 171.677C203.952 171.666 205.298 170.866 206.215 169.9C207.791 168.258 207.911 168.373 208.21 171.718C208.389 173.682 208.22 176.924 207.841 178.929C207.422 181.059 206.923 181.922 206.614 181.007C206.325 180.155 205.757 179.21 205.348 178.929C204.939 178.649 204.45 177.236 204.251 175.812C204.061 174.378 203.453 172.872 202.905 172.456C202.296 171.988 202.426 171.677 203.224 171.677Z" fill="#F8EDE1"/>
<path d="M210.185 171.48C210.066 169.848 210.574 168.498 211.432 168.186C212.23 167.895 213.546 167.604 214.374 167.531C215.201 167.469 216.428 168.134 217.116 169.017C217.814 169.911 218.911 170.285 219.609 169.848C220.433 169.343 220.6 169.516 220.108 170.368C219.619 171.21 220.487 172.218 222.601 173.288C224.386 174.181 227.637 175.958 229.831 177.226C232.862 178.992 233.899 180.291 234.148 182.618C234.338 184.302 235.116 187.439 235.894 189.58C236.731 191.886 236.901 193.476 236.312 193.476C235.744 193.476 235.604 194.474 235.993 195.814C236.482 197.487 236.342 197.934 235.495 197.373C234.847 196.947 234.308 195.772 234.288 194.775C234.278 193.778 233.61 192.25 232.792 191.398C231.984 190.536 231.217 188.624 231.077 187.128C230.917 185.434 228.853 182.4 225.592 179.075C220.566 173.953 220.157 173.745 215.371 173.994C210.614 174.244 210.375 174.129 210.185 171.48Z" fill="#FDCD43"/>
<path d="M364.704 175.927C365.95 172.415 367.945 168.882 369.191 168.009C370.428 167.147 372.781 166.43 374.427 166.419C376.072 166.399 378.545 167.261 379.911 168.331C381.288 169.401 383.192 172.217 384.15 174.597C385.386 177.672 386.613 179.075 388.388 179.449C389.764 179.729 390.891 180.322 390.901 180.748C390.911 181.174 390.372 182.109 389.704 182.826C389.036 183.543 386.892 184.135 384.947 184.156C382.644 184.177 380.709 183.439 379.413 182.046C378.316 180.862 376.182 179.916 374.676 179.937C372.801 179.958 370.986 181.122 368.942 183.605C367.297 185.61 365.97 188.063 365.99 189.06C366.02 190.057 365.462 191.46 364.744 192.167C364.036 192.884 363.108 193.112 362.68 192.686C362.251 192.26 361.912 192.385 361.922 192.956C361.932 193.538 360.585 193.767 358.87 193.476C356.377 193.05 355.869 192.53 356.138 190.639C356.327 189.361 356.138 188.312 355.729 188.301C355.32 188.291 354.871 189.683 354.732 191.398C354.502 194.328 354.482 194.318 354.482 191.159C354.482 188.769 355.091 187.501 356.597 186.743C357.763 186.161 359.558 184.914 360.585 183.979C361.613 183.054 363.467 179.428 364.704 175.927Z" fill="#FDFDF2"/>
<path d="M314.594 175.293L314.255 171.064L313.916 166.825L319.74 167.323C324.536 167.739 326.092 168.383 328.555 170.96C330.201 172.675 330.879 173.62 330.051 173.059C329.054 172.38 327.392 172.456 325.065 173.288C322.173 174.306 321.914 174.618 323.569 175.075C324.666 175.386 323.1 175.563 314.594 175.293Z" fill="#DB822B"/>
<path d="M310.275 168.799C309.637 167.51 309.108 166.222 309.108 165.941C309.108 165.661 309.338 165.422 309.607 165.422C309.876 165.422 311.003 166.939 312.1 168.799C313.187 170.659 314.085 172.529 314.094 172.955C314.094 173.381 313.496 173.152 312.768 172.435C312.04 171.718 310.923 170.087 310.275 168.799Z" fill="#BB2C29"/>
<path d="M280.399 170.866C282.204 168.996 285.474 166.772 287.668 165.92C290.111 164.975 293.203 164.611 295.646 164.975C297.84 165.307 300.423 166.003 301.38 166.533C302.417 167.105 302.826 168.029 302.387 168.798C301.902 169.657 302.068 169.83 302.886 169.318C303.664 168.829 305.04 169.785 306.585 171.915C308.228 174.167 309.065 176.678 309.098 179.448C309.118 181.734 309.358 184.654 309.617 185.942C309.906 187.345 310.604 188.041 311.352 187.678C312.04 187.355 311.482 188.083 310.106 189.309C308.65 190.608 306.605 191.397 305.199 191.21C303.654 191.002 302.088 189.569 300.851 187.241C299.784 185.236 298.398 183.262 297.78 182.846C297.152 182.42 295.297 182.056 293.652 182.025C292.006 181.994 289.423 182.929 287.918 184.093C286.242 185.371 284.607 188.135 283.729 191.138C282.931 193.849 281.476 196.769 280.488 197.632C278.843 199.055 278.803 199.034 279.94 197.372C280.628 196.374 280.917 194.972 280.578 194.255C280.109 193.236 279.73 193.226 278.833 194.213C278.055 195.065 277.138 195.148 275.951 194.473C274.994 193.922 271.733 193.236 268.721 192.956C264.832 192.592 263.137 192.81 262.887 193.735C262.688 194.452 262.678 194.099 262.867 192.956C263.117 191.397 262.299 190.483 256.027 187.761L258.889 186.462C260.454 185.745 264.353 185.277 273.338 185.683L275.223 179.968C276.27 176.82 278.594 172.726 280.399 170.866Z" fill="#FDFDF2"/>
<path d="M172.49 167.157C174.404 165.972 177.326 164.663 178.971 164.237C180.617 163.821 183.978 163.728 186.451 164.039C188.924 164.341 192.514 165.442 194.428 166.492C196.343 167.531 199.265 169.463 200.91 170.793C202.556 172.123 204.062 174.378 204.251 175.812C204.44 177.235 204.999 178.524 205.497 178.669C205.986 178.815 206.395 179.864 206.395 181.007C206.395 182.306 205.188 183.719 203.154 184.789C200.152 186.358 199.464 186.358 193.93 184.799C190.639 183.864 186.371 183.085 184.456 183.064C182.003 183.043 180.228 183.812 178.473 185.683C176.439 187.844 176.119 188.914 176.728 191.428C177.286 193.746 177.107 194.639 175.98 195.034C175.152 195.314 173.138 195.553 171.492 195.553C169.019 195.553 168.241 194.92 167.005 191.917C166.177 189.911 165.22 186.296 164.861 183.864C164.342 180.373 164.711 178.389 166.606 174.378C168.102 171.219 170.306 168.507 172.49 167.157Z" fill="#FDFDF2"/>
<path d="M329.053 170.098C324.067 165.422 324.067 165.422 326.311 163.915C327.548 163.095 328.714 162.388 328.924 162.357C329.123 162.326 330.469 164.393 331.915 166.939C333.351 169.485 334.768 171.511 335.037 171.438C335.306 171.376 336.882 171.926 338.527 172.664C340.172 173.402 343.603 174.056 346.156 174.129C348.709 174.202 350.354 174.493 349.816 174.773C349.267 175.054 348.828 175.76 348.828 176.332C348.828 176.903 349.427 177.714 350.155 178.129C350.893 178.555 349.357 178.909 346.754 178.909C343.982 178.919 340.362 178.067 338.028 176.851C335.835 175.708 331.796 172.674 329.053 170.098Z" fill="#55200B"/>
<path d="M311.611 167.718C310.514 165.598 309.328 163.624 308.959 163.344C308.6 163.063 311.402 162.824 315.191 162.824C320.806 162.824 321.763 163.053 320.337 164.04C318.841 165.079 318.801 165.349 320.078 165.869C320.905 166.201 320.227 166.222 318.582 165.91C316.936 165.598 314.802 165.598 313.845 165.9C312.469 166.347 312.309 166.897 313.097 168.539C313.646 169.682 313.985 170.825 313.845 171.095C313.705 171.355 312.698 169.827 311.611 167.718Z" fill="#DB822B"/>
<path d="M304.372 164.383C304.781 164.383 305 163.437 304.851 162.274C304.581 160.227 304.641 160.216 307.284 162.014C308.78 163.032 309.747 164.331 309.448 164.902C309.139 165.474 309.508 167.251 310.246 168.84C310.993 170.43 311.941 171.718 312.35 171.698C312.759 171.677 313.317 172.477 313.576 173.474C313.945 174.887 315.471 175.407 320.467 175.812C325.174 176.197 327.507 176.934 329.213 178.566C330.499 179.792 332.444 182.701 333.541 185.018C335.166 188.447 335.306 189.528 334.288 190.837C333.291 192.125 332.783 192.177 331.706 191.138C330.968 190.421 330.09 188.904 329.741 187.761C329.402 186.618 328.096 184.613 326.849 183.293C324.905 181.257 323.758 180.966 319.081 181.288C316.069 181.496 312.808 181.984 311.851 182.379C310.375 182.971 310.116 182.483 310.146 179.189C310.166 177.049 309.498 174.243 308.65 172.955C307.802 171.666 307.453 170.627 307.862 170.648C308.271 170.669 307.713 169.744 306.616 168.591C305.519 167.438 304.392 166.679 304.123 166.897C303.853 167.126 303.624 166.648 303.624 165.837C303.624 165.037 303.963 164.383 304.372 164.383Z" fill="#734422"/>
<path d="M280.688 162.595L282.682 161.442C283.779 160.808 285.125 160.289 285.674 160.299C286.222 160.299 285.554 161.006 284.178 161.868C282.293 163.042 282.173 163.302 283.679 162.886C284.776 162.595 286.202 162.689 286.85 163.104C287.635 163.61 287.053 164.469 285.105 165.681C283.5 166.679 282.183 167.032 282.183 166.461C282.183 165.889 282.742 165.432 283.43 165.442C284.118 165.453 283.779 164.808 280.688 162.595Z" fill="#431806"/>
<path d="M163.325 163.084C162.667 162.938 162.468 162.242 162.876 161.525C163.285 160.808 164.153 160.237 164.811 160.247C165.469 160.247 166.486 160.601 167.075 161.027C167.733 161.494 166.776 162.959 164.582 164.871C162.069 167.053 161.53 167.282 162.767 165.65C163.943 164.092 164.123 163.26 163.325 163.084Z" fill="#EDA53E"/>
<path d="M216.078 162.627C215.65 162.159 216.547 161.235 218.073 160.57C219.609 159.905 221.194 159.323 221.603 159.271C222.012 159.229 223.468 159.655 224.844 160.227C226.499 160.92 227.191 161.872 226.918 163.084C226.689 164.082 227.477 165.9 228.663 167.116C229.85 168.342 232.283 170.087 234.068 171.012C235.853 171.937 237.309 172.934 237.309 173.215C237.309 173.495 235.853 172.965 234.068 172.041C232.283 171.106 229.591 169.464 228.085 168.404C225.382 166.482 225.313 166.492 222.77 168.799C221.354 170.087 220.057 171.137 219.878 171.137C219.708 171.137 218.741 170.285 217.714 169.235C216.437 167.905 215.031 167.51 213.127 167.936C210.943 168.414 210.384 169.121 210.384 171.396C210.384 174.171 210.534 174.243 215.37 173.994C220.157 173.745 220.566 173.953 225.592 179.075C228.853 182.4 230.917 185.434 231.077 187.128C231.216 188.624 231.964 190.546 232.732 191.398C233.51 192.26 234.467 194.598 234.856 196.593C235.484 199.804 235.175 200.666 232.203 203.918C230.349 205.944 229.551 206.651 230.428 205.477C231.306 204.303 232.313 202.765 232.672 202.048C233.031 201.331 232.183 201.56 230.787 202.568C229.391 203.565 228.045 204.968 227.796 205.685C227.536 206.402 226.888 206.745 226.34 206.464C225.791 206.183 225.343 206.412 225.343 206.984C225.343 207.555 224.674 208.023 223.847 208.023C223.019 208.023 222.351 208.49 222.351 209.062C222.351 209.633 220.446 210.101 218.113 210.101C215.63 210.09 212.528 209.238 210.634 208.023C208.849 206.88 207.163 205.248 206.894 204.386C206.615 203.534 205.947 202.827 205.398 202.827C204.85 202.827 204.421 204.344 204.441 206.204C204.471 208.064 203.912 210.142 203.194 210.828C202.197 211.784 199.794 211.732 192.434 210.579C187.219 209.768 182.512 209.062 181.964 209.01C181.415 208.958 181.864 208.511 182.961 208.023C184.666 207.264 184.706 207.119 183.21 207.056C182.253 207.015 181.455 206.163 181.435 205.165C181.425 204.168 180.777 202.651 179.989 201.788C179.211 200.936 178.214 197.58 177.775 194.328C177.077 189.174 177.227 188.156 178.972 186.244C180.368 184.707 182.153 184.073 184.955 184.104C187.149 184.125 191.188 184.852 193.93 185.704C197.65 186.868 199.734 187.003 202.157 186.213C203.942 185.642 206.086 184.114 206.924 182.826C207.762 181.537 208.769 177.568 209.168 173.994C209.716 168.976 209.596 167.614 208.639 168.02C207.951 168.3 206.724 168.778 205.897 169.059C204.76 169.453 204.481 168.892 204.75 166.721C205.049 164.31 205.797 163.676 209.487 162.71C211.9 162.066 214.094 161.713 214.373 161.9C214.642 162.097 214.204 162.991 213.376 163.884C212.548 164.778 212.329 165.484 212.877 165.453C213.426 165.422 214.543 164.954 215.37 164.425C216.198 163.895 216.517 163.084 216.078 162.627Z" fill="#FDD551"/>
<path d="M417.806 162.305C417.806 161.733 416.57 160.31 415.064 159.125C413.558 157.951 413.219 157.442 414.316 157.982C415.413 158.533 417.088 159.842 418.046 160.902C418.993 161.962 420.07 164.695 421.067 171.137L417.368 167.5C414.077 164.248 413.897 163.832 415.742 163.604C416.879 163.458 417.806 162.876 417.806 162.305Z" fill="#FDECA1"/>
<path d="M406.627 162.024C407.345 161.318 407.903 159.925 407.873 158.928C407.854 157.93 408.392 157.089 409.08 157.068C409.768 157.037 411.453 158.014 412.82 159.229C414.462 160.691 414.711 161.224 413.568 160.829C412.61 160.497 411.822 160.694 411.822 161.266C411.822 161.837 413.847 164.643 416.31 167.5C420.458 172.3 420.748 172.986 420.079 176.592C419.691 178.732 418.125 181.776 416.589 183.345C415.063 184.914 413.368 185.964 412.82 185.683C412.271 185.403 411.812 184.343 411.812 183.345C411.803 182.348 410.905 179.542 409.818 177.111C408.621 174.462 406.637 172.072 404.842 171.137C403.197 170.285 400.165 169.537 398.111 169.474C394.77 169.381 394.64 169.277 396.864 168.539C398.526 167.985 398.776 167.673 397.612 167.604C396.655 167.542 396.096 167.032 396.366 166.461C396.645 165.89 396.336 165.308 395.678 165.162C394.893 164.989 394.81 164.418 395.428 163.448C396.116 162.388 397.572 162.17 400.853 162.648C403.815 163.074 405.779 162.866 406.627 162.024Z" fill="#FDCD43"/>
<path d="M225.592 157.702C226.001 157.941 226.589 157.681 226.888 157.11C227.188 156.538 227.746 156.05 228.135 156.029C228.514 155.998 229.332 156.58 229.94 157.328C230.558 158.066 231.077 159.375 231.097 160.227C231.127 161.079 231.745 163.417 232.483 165.422C233.221 167.427 234.268 169.401 234.816 169.807C235.365 170.222 236.492 169.692 237.309 168.622C238.386 167.219 239.354 166.918 240.8 167.542C241.897 168.009 242.455 168.425 242.046 168.466C241.637 168.508 242.305 169.609 243.542 170.918C244.778 172.228 246.464 173.589 247.282 173.952C248.109 174.316 246.195 174.649 243.043 174.69C238.785 174.753 237.18 174.368 236.811 173.215C236.541 172.363 235.644 171.895 234.816 172.176C233.826 172.515 233.576 172.262 234.068 171.417C234.597 170.513 234.308 170.357 233.071 170.898C232.024 171.355 231.525 171.241 231.825 170.617C232.104 170.046 231.765 169.526 231.077 169.453C230.389 169.391 229.491 169.391 229.082 169.453C228.673 169.526 228.564 169.111 228.833 168.539C229.112 167.968 228.663 167.032 227.836 166.461C226.978 165.869 226.549 164.528 226.839 163.344C227.208 161.796 226.639 160.985 224.595 160.175C222.391 159.292 222.152 158.897 223.348 158.159C224.176 157.66 225.183 157.453 225.592 157.702Z" fill="#FDCD43"/>
<path d="M409.081 157.068C408.392 157.088 407.834 156.642 407.834 156.07C407.834 155.499 408.502 155.031 409.33 155.031C410.158 155.031 410.826 155.499 410.826 156.07C410.826 156.642 411.274 156.87 411.823 156.59C412.371 156.309 412.82 156.538 412.82 157.109C412.82 157.681 413.379 157.795 414.057 157.369C414.874 156.856 415.041 157.029 414.555 157.888C414.146 158.605 414.266 159.187 414.815 159.187C415.363 159.187 416.26 159.302 416.809 159.447C417.357 159.592 417.806 160.06 417.806 160.486V162.304C417.806 162.876 416.61 163.229 415.144 163.084C413.678 162.938 412.331 162.242 412.152 161.525C411.943 160.704 412.461 160.444 413.568 160.829C414.711 161.224 414.462 160.69 412.82 159.229C411.454 158.013 409.769 157.036 409.081 157.068Z" fill="#FDD551"/>
<path d="M385.187 152.953C385.496 151.53 385.347 149.306 384.858 148.018C384.12 146.075 384.3 145.68 385.935 145.68C387.012 145.68 389.266 146.968 390.941 148.537C392.626 150.106 394.481 153.026 395.06 155.031C395.638 157.036 396.845 159.499 397.742 160.517C399.238 162.232 399.228 162.367 397.613 162.335C396.655 162.315 395.528 162.824 395.119 163.458C394.711 164.091 395.04 165.027 395.867 165.525C396.695 166.024 396.914 166.471 396.366 166.512C395.818 166.564 396.266 166.98 397.363 167.427C398.949 168.081 398.44 168.393 394.87 168.965C390.602 169.65 390.233 169.505 387.391 166.014C385.746 163.988 383.053 161.629 381.408 160.767C379.762 159.904 379.084 159.208 379.912 159.229C380.74 159.239 382.126 158.418 383.013 157.4C383.891 156.382 384.868 154.387 385.187 152.953Z" fill="#FDD551"/>
<path d="M191.198 149.951C191.079 149.161 191.836 147.914 192.874 147.176C193.911 146.449 194.808 145.982 194.868 146.137C194.918 146.293 194.868 147.073 194.738 147.873C194.619 148.662 193.372 150.138 191.976 151.135C190.59 152.133 189.443 152.486 189.443 151.914C189.443 151.343 188.994 151.114 188.446 151.395C187.818 151.727 187.907 152.559 188.695 153.67C189.383 154.637 189.493 155.156 188.945 154.824C188.396 154.481 187.389 154.865 186.701 155.655C185.664 156.871 186.172 157.307 189.692 158.263C192.026 158.897 195.496 160.237 197.421 161.245C199.924 162.565 201.28 164.227 203.484 171.137L200.702 169.142C199.166 168.04 197.471 166.451 196.922 165.609C196.257 164.577 195.426 164.373 194.429 164.996C193.253 165.723 193.143 165.599 193.931 164.393C194.718 163.188 194.569 163.022 193.183 163.624C192.195 164.05 191.438 163.926 191.438 163.344C191.438 162.772 190.311 162.544 188.945 162.824C187.568 163.105 186.451 162.876 186.451 162.305C186.451 161.733 185.554 161.266 184.457 161.266C182.722 161.266 182.493 160.663 182.712 156.569C182.921 152.652 183.171 152.143 184.208 153.452C185.315 154.855 185.564 154.824 186.422 153.213C186.96 152.216 187.07 150.969 186.671 150.449C186.282 149.93 186.511 149.816 187.199 150.19C187.887 150.564 188.725 150.294 189.064 149.577C189.543 148.59 189.902 148.652 190.55 149.836C191.198 151.011 191.358 151.042 191.198 149.951Z" fill="#55200B"/>
<path d="M131.854 161.131C134.387 159.333 134.606 158.616 134.765 151.655L134.935 144.122L135.513 152.953C135.833 157.816 136.411 162.253 136.79 162.824C137.179 163.396 138.196 166.669 139.054 170.098C140.001 173.911 140.26 176.716 139.692 177.329C139.193 177.88 136.6 178.451 133.948 178.587C131.285 178.732 127.316 179.137 125.122 179.501C121.852 180.031 120.775 179.761 119.139 177.953C118.042 176.737 116.806 175.76 116.397 175.781C115.988 175.802 115.489 177.568 115.29 179.709C115.08 181.963 114.971 181.35 115.041 178.275C115.12 174.524 115.749 172.248 117.145 170.627C118.242 169.36 121.383 167.136 124.125 165.692C126.868 164.258 130.348 162.201 131.854 161.131Z" fill="#FDD551"/>
<path d="M358.94 148.537C356.766 146.968 355.151 145.285 355.36 144.818C355.569 144.34 356.397 143.945 357.195 143.945C357.983 143.945 358.711 144.34 358.8 144.818C358.89 145.285 359.309 145.503 359.718 145.296C360.127 145.088 361.473 146.023 362.71 147.374C363.946 148.724 364.614 149.847 364.205 149.857C363.797 149.857 363.956 150.21 364.564 150.636C365.203 151.073 365.372 152.278 364.255 155.551L363.577 153.473C363.198 152.33 361.114 150.106 358.94 148.537Z" fill="#FDCD43"/>
<path d="M290.661 148.278C291.488 147.426 292.206 145.899 292.276 144.901C292.386 143.166 292.406 143.166 292.775 144.901C292.984 145.899 292.705 147.654 292.156 148.797C291.349 150.481 291.548 151.021 293.194 151.655C294.32 152.081 295.437 153.255 295.687 154.252C295.946 155.25 298.05 157.214 300.384 158.616C302.717 160.019 304.622 161.889 304.622 162.772C304.622 163.656 304.173 164.373 303.624 164.362C303.076 164.352 303.973 165.869 305.619 167.739C307.773 170.181 307.913 170.513 306.118 168.913C304.741 167.698 302.169 165.952 300.384 165.027C298.598 164.102 295.906 163.365 294.4 163.386C292.894 163.406 290.421 163.406 288.916 163.386C286.991 163.354 286.393 163.728 286.911 164.643C287.396 165.502 287.23 165.675 286.412 165.162C285.734 164.736 285.405 163.915 285.675 163.344C285.954 162.762 285.086 162.419 281.207 162.824L283.441 164.653C285.076 166.004 285.206 166.347 283.929 165.952C282.813 165.619 282.184 165.983 282.184 166.981C282.184 167.833 281.736 168.3 281.187 168.02C280.639 167.739 279.063 169.37 277.697 171.656C276.321 173.942 274.685 177.797 272.92 184.644L267.336 184.229C263.108 183.917 260.585 184.364 257.005 186.047C254.402 187.273 252.268 188.748 252.268 189.32C252.268 189.891 251.37 190.12 250.273 189.839C249.176 189.559 248.269 188.967 248.259 188.541C248.249 188.115 248.787 187.179 249.456 186.463C250.124 185.746 251.699 185.164 252.966 185.164C254.232 185.164 256.606 184.457 258.251 183.605C259.896 182.753 261.472 182.047 261.741 182.047H263.237C263.786 182.047 264.464 180.883 264.733 179.449C265.012 177.974 266.418 176.238 267.974 175.438C269.48 174.669 271.913 171.978 273.369 169.464C274.825 166.96 277.288 164.144 278.854 163.219C280.409 162.295 282.354 161.806 283.181 162.128C284.172 162.523 284.421 162.305 283.929 161.474C283.411 160.611 283.72 160.435 284.927 160.913C285.934 161.307 286.343 161.204 285.894 160.653C285.465 160.133 286.472 159.125 288.138 158.409C289.803 157.692 291.159 156.642 291.159 156.071C291.159 155.499 290.71 155.032 290.162 155.032C289.614 155.032 289.165 153.868 289.165 152.434C289.165 151.011 289.833 149.13 290.661 148.278Z" fill="#55200B"/>
<path d="M217.365 143.082C217.913 143.363 218.362 142.667 218.362 141.524C218.362 140.381 218.491 139.446 218.651 139.446C218.81 139.446 219.03 143.415 219.15 148.278C219.359 156.943 219.309 157.141 216.617 158.626C214.273 159.925 214.163 160.164 215.869 160.258C216.966 160.32 214.951 161.162 211.381 162.128C207.432 163.209 204.999 164.393 205.149 165.172C205.288 165.879 204.73 166.461 203.902 166.461C203.074 166.461 202.267 165.64 202.097 164.643C201.928 163.645 199.235 161.307 196.114 159.447C192.963 157.567 189.662 156.32 188.694 156.621C187.717 156.933 187.877 156.683 189.044 156.05C190.19 155.437 192.095 153.431 193.272 151.603C194.448 149.774 195.825 146.875 196.333 145.161C196.945 143.082 197.264 142.736 197.291 144.122C197.31 145.264 197.909 146.771 198.627 147.467C199.335 148.153 201.489 149.192 203.403 149.753C206.036 150.532 207.682 150.418 210.135 149.275C211.92 148.444 214.044 146.594 214.871 145.161C215.699 143.737 216.816 142.802 217.365 143.082Z" fill="#EDA53E"/>
<path d="M190.689 146.781C192.743 144.464 194.498 141.742 194.578 140.744C194.658 139.747 194.917 140.329 195.156 142.043C195.466 144.298 195.007 145.67 193.511 146.979C192.374 147.976 191.547 149.545 191.686 150.459C191.826 151.384 190.908 152.901 189.652 153.836C187.428 155.509 187.378 155.478 188.385 150.356L186.56 152.953C184.945 155.26 184.666 155.343 184.097 153.732C183.668 152.506 184.027 151.769 185.204 151.457C186.162 151.197 188.635 149.098 190.689 146.781Z" fill="#431806"/>
<path d="M327.059 145.784C330.629 143.955 335.116 141.545 337.031 140.433C338.945 139.321 340.97 138.407 341.518 138.397C342.067 138.397 343.523 139.093 344.759 139.955C346.165 140.942 347.282 143.124 347.751 145.805C348.16 148.153 348.947 150.335 349.496 150.647C350.044 150.948 351.391 149.919 354.482 145.493L358.69 148.444C361.004 150.065 363.198 152.33 364.255 155.551L365.112 153.473C365.731 151.998 365.89 152.735 365.681 156.071C365.481 159.053 364.454 162.066 362.849 164.383C361.453 166.388 358.222 169.069 355.649 170.357C352.797 171.791 349.157 172.685 346.255 172.674C343.652 172.664 339.613 171.729 337.28 170.596C334.588 169.287 332.453 167.303 331.416 165.162C330.529 163.302 329.631 161.671 329.422 161.526C329.222 161.38 328.046 161.972 326.809 162.835C325.573 163.697 324.137 164.393 323.618 164.393C323.1 164.383 323.219 163.801 323.887 163.084C324.556 162.367 325.094 161.432 325.084 161.006C325.074 160.58 323.379 160.861 321.325 161.64C318.861 162.575 315.88 162.814 312.599 162.357C309.857 161.972 306.157 160.861 304.372 159.905C302.587 158.938 301.131 157.91 301.131 157.629C301.131 157.349 303.036 158.034 305.369 159.167C307.703 160.299 310.953 161.203 312.599 161.183C315.331 161.141 315.142 160.923 310.355 158.606C305.329 156.174 305.13 155.915 305.299 152.174C305.389 150.034 304.94 147.228 303.125 143.602L306.217 145.94C308.281 147.509 311.153 148.413 314.942 148.693C319.739 149.047 321.534 148.621 327.059 145.784Z" fill="#FDD551"/>
<path d="M288.257 140.225C290.411 140.423 291.198 140.017 291.298 138.667C291.368 137.669 291.737 139.654 292.106 143.083C292.475 146.511 293.193 149.992 293.711 150.823C294.409 151.946 294.27 152.185 293.153 151.759C292.325 151.436 291.767 150.408 291.906 149.473C292.046 148.527 291.707 147.758 291.159 147.758C290.61 147.758 289.972 148.34 289.742 149.057C289.513 149.774 289.274 149.421 289.214 148.278C289.154 147.135 288.257 144.797 285.345 139.965L288.257 140.225Z" fill="#431806"/>
<path d="M274.206 139.446C274.206 138.874 275.213 138.241 276.45 138.033C277.686 137.825 278.793 137.586 278.903 137.513C279.023 137.43 278.913 137.835 278.654 138.407C278.404 138.978 279.312 139.446 280.688 139.446C282.254 139.446 283.929 140.506 285.195 142.303C286.302 143.872 287.429 146.449 287.688 148.018C287.948 149.587 288.396 152.278 288.666 153.992C289.095 156.652 288.726 157.338 286.173 158.668C284.527 159.531 282.842 159.998 282.433 159.718C282.024 159.427 282.413 158.377 283.301 157.38C284.188 156.372 284.806 155.083 284.667 154.512C284.527 153.94 283.899 151.603 283.251 149.317C282.483 146.574 281.087 144.537 279.142 143.342C277.527 142.345 275.802 141.638 275.303 141.784C274.814 141.929 274.366 141.69 274.306 141.264C274.246 140.838 274.206 140.017 274.206 139.446Z" fill="#FDCD43"/>
<path d="M270.646 144.381C271.424 142.521 272.312 140.183 272.611 139.186C272.93 138.116 274.097 137.399 275.433 137.44C276.679 137.482 278.594 137.939 279.691 138.458C281.167 139.155 280.708 139.269 277.946 138.905C275.802 138.614 274.206 138.853 274.206 139.446C274.206 140.017 274.246 140.838 274.306 141.264C274.366 141.69 274.815 141.929 275.303 141.783C275.802 141.638 277.627 142.303 279.362 143.259C281.107 144.215 282.713 145.971 282.922 147.155C283.141 148.35 283.69 150.719 284.149 152.434C284.857 155.062 284.557 156.039 282.244 158.668C280.738 160.382 278.026 163.188 276.231 164.902C274.436 166.616 272.232 169.308 271.344 170.887C270.437 172.487 268.831 173.765 267.724 173.775C266.627 173.786 263.935 172.591 261.741 171.115C258.251 168.778 257.563 168.632 256.256 169.952C255.429 170.773 252.966 172.019 250.772 172.726C247.012 173.921 246.623 173.838 244.04 171.271C242.535 169.765 241.637 168.507 242.046 168.466C242.455 168.424 241.896 168.009 240.799 167.541C239.354 166.918 238.386 167.219 237.309 168.622C236.482 169.692 235.365 170.222 234.816 169.806C234.268 169.401 233.211 167.427 232.463 165.422C231.725 163.416 231.156 160.964 231.216 159.967C231.276 158.969 230.658 157.681 229.83 157.109C228.793 156.392 227.856 156.475 226.799 157.369C225.951 158.086 225.273 158.314 225.303 157.888C225.323 157.462 226.011 156.403 226.838 155.551C228.165 154.169 228.474 154.169 229.581 155.561C230.269 156.434 231.834 157.369 233.071 157.639C234.308 157.92 235.983 157.681 236.811 157.109C237.748 156.455 238.117 155.104 237.808 153.473C237.475 151.741 237.974 150.182 239.304 148.797C240.411 147.644 242.624 146.719 244.29 146.719C245.935 146.719 249.525 147.883 252.267 149.316C255.01 150.74 258.49 151.914 259.996 151.914C261.502 151.904 264.194 150.968 265.979 149.836C267.764 148.693 269.858 146.241 270.646 144.381Z" fill="#FDD551"/>
<path d="M135.603 152.174C135.603 147.747 136.071 142.365 136.63 140.225C137.198 138.084 137.986 136.308 138.375 136.297C138.764 136.276 140.32 137.212 141.825 138.375C143.391 139.57 144.847 141.939 145.226 143.861C145.595 145.721 147.559 149.109 149.594 151.394C151.638 153.68 155.567 156.714 158.329 158.148C161.231 159.644 163.186 161.297 162.936 162.045C162.707 162.762 162.966 163.343 163.515 163.343C164.063 163.343 163.455 164.86 162.159 166.72C160.862 168.58 159.277 171.728 158.628 173.734C157.881 176.072 157.711 179.771 158.17 184.124C158.738 189.548 158.549 191.439 157.212 193.735C156.285 195.304 155.537 197.995 155.537 199.71C155.537 202.567 155.308 202.775 152.795 202.224C151.289 201.892 146.791 200.603 142.793 199.367C138.804 198.13 135.553 196.759 135.563 196.333C135.583 195.907 136.091 195.907 136.7 196.333C137.308 196.759 138.096 196.572 138.445 195.907C138.794 195.242 138.864 191.969 138.584 188.634C138.166 183.532 137.787 182.566 136.171 182.566C134.925 182.566 133.927 183.646 133.309 185.683C132.781 187.397 131.175 190.067 129.739 191.626C127.396 194.14 126.528 194.4 121.632 194.078C118.62 193.881 114.133 192.821 111.659 191.72C109.196 190.629 106.165 188.706 104.928 187.449C103.692 186.192 102.675 185.516 102.665 185.942C102.665 186.368 102.216 186.015 101.687 185.163C101.159 184.311 100.71 183.251 100.71 182.825C100.7 182.399 102.375 182.919 104.43 183.989C106.484 185.059 109.176 186.233 110.413 186.587C111.799 186.992 113.225 186.649 114.153 185.683C114.98 184.82 115.648 182.275 115.648 179.968C115.648 177.682 115.987 175.801 116.396 175.781C116.805 175.76 118.042 176.737 119.139 177.952C120.774 179.76 121.851 180.03 125.122 179.5C127.316 179.137 131.295 178.732 133.967 178.586C136.64 178.451 139.223 177.88 139.721 177.329C140.25 176.737 140.05 174.004 139.243 170.617C138.485 167.479 137.358 163.853 136.73 162.564C136.101 161.276 135.593 156.6 135.603 152.174Z" fill="#FDCD43"/>
<path d="M221.354 136.329C221.902 136.329 222.172 135.976 221.952 135.55C221.723 135.124 222.152 134.771 222.9 134.771C223.648 134.771 224.725 135.82 225.293 137.108C226.101 138.906 226.051 139.27 225.114 138.667C224.246 138.116 224.096 138.418 224.615 139.706C225.024 140.735 224.904 141.524 224.346 141.524C223.767 141.524 223.618 142.73 223.977 144.382C224.326 145.951 225.114 148.974 225.722 151.083C226.799 154.793 226.729 154.99 220.855 158.055L220.177 153.691C219.808 151.281 219.469 147.333 219.429 144.901C219.389 142.47 219.808 140.246 220.357 139.966C220.905 139.685 221.125 138.74 220.855 137.888C220.576 137.036 220.806 136.329 221.354 136.329Z" fill="#55200B"/>
<path d="M375.176 139.789C375.315 138.833 377.43 136.962 379.883 135.632C382.864 134.012 385.986 133.222 389.356 133.243C392.7 133.27 395.629 134.05 398.142 135.58C400.216 136.848 402.569 139.404 403.377 141.264C404.185 143.124 404.843 146.979 404.843 149.836C404.843 152.693 405.292 155.27 405.84 155.551C406.389 155.831 406.838 157.244 406.838 158.668C406.838 161.068 406.518 161.245 402.699 161.006C400.186 160.85 398.291 160.133 397.873 159.187C397.494 158.335 396.327 155.769 395.28 153.504C394.233 151.239 391.799 148.298 389.885 146.979C387.472 145.316 385.018 144.61 381.907 144.662C378.995 144.703 376.981 144.173 376.173 143.124C375.485 142.251 375.036 140.744 375.176 139.789Z" fill="#FDFDF2"/>
<path d="M152.167 138.978C152.646 136.724 153.464 134.23 154.002 133.43C154.68 132.412 156.136 132.183 158.988 132.63C161.202 132.973 164.363 133.513 166.009 133.814C167.654 134.126 170.117 135.508 171.493 136.89C173.219 138.635 175.133 139.415 177.726 139.425C179.78 139.436 181.645 139.093 181.874 138.667C182.094 138.241 183.998 137.835 186.113 137.763C188.217 137.69 191.178 137.108 192.684 136.464C194.19 135.82 195.646 135.29 195.925 135.29C196.194 135.29 195.965 135.872 195.407 136.589C194.838 137.306 193.352 139.986 192.086 142.563C190.53 145.732 188.227 148.236 184.946 150.356C181.316 152.694 178.603 153.566 174.056 153.868C170.307 154.117 166.108 153.639 163.017 152.631C159.693 151.537 156.911 149.674 154.67 147.041C151.559 143.394 151.369 142.76 152.167 138.978Z" fill="#FDCD43"/>
<path d="M231.774 134.209C232.841 133.378 235.315 132.131 237.259 131.435C239.204 130.749 242.814 130.178 245.287 130.167C247.75 130.147 251.679 131.061 254.012 132.193C256.406 133.357 259.008 135.633 259.996 137.441C261.392 139.986 262.249 140.537 264.234 140.142C265.6 139.862 267.734 139.363 268.971 139.02C270.566 138.584 271.214 138.864 271.214 139.965C271.214 140.818 270.766 142.688 270.217 144.122C269.669 145.545 267.764 147.654 265.979 148.797C264.194 149.93 261.501 150.865 259.996 150.875C258.49 150.875 254.9 149.712 252.018 148.288C249.136 146.865 245.656 145.68 244.29 145.649C242.913 145.618 240.67 146.501 239.303 147.623C237.329 149.223 236.85 150.481 236.99 153.639C237.179 157.619 237.169 157.629 233.998 156.85C232.253 156.424 229.82 154.907 228.583 153.473C226.848 151.468 226.35 149.639 226.36 145.42C226.379 141.784 226.961 139.259 228.105 137.846C229.052 136.672 230.707 135.04 231.774 134.209Z" fill="#FDFDF2"/>
<path d="M370.508 135.29C369.212 132.713 368.344 130.261 368.594 129.835C368.843 129.409 369.202 129.056 369.391 129.056C369.581 129.056 369.69 129.409 369.631 129.835C369.571 130.261 370.149 131.778 370.927 133.212C371.705 134.635 372.453 136.745 372.602 137.888C372.752 139.03 371.815 137.867 370.508 135.29Z" fill="#FDD551"/>
<path d="M125.422 136.848C126.419 135.134 128.742 132.682 130.597 131.394C132.442 130.105 134.776 129.056 135.773 129.056C136.77 129.056 137.598 129.638 137.598 130.354C137.608 131.071 136.9 133.991 136.032 136.848C135.155 139.706 134.137 146.002 133.1 159.645L125.621 163.947C121.503 166.316 117.244 169.516 116.148 171.074C114.941 172.778 113.954 176.207 113.654 179.782C113.196 185.153 112.956 185.662 110.912 185.424C109.676 185.278 107.023 184.343 105.019 183.345C103.004 182.348 100.501 180.353 99.4441 178.93C98.1278 177.153 97.4796 174.524 97.3998 170.617C97.3101 166.17 97.8585 163.926 99.853 160.507C101.508 157.671 103.962 155.312 106.794 153.858C109.197 152.611 113.625 151.312 122.111 150.356L122.869 145.161C123.278 142.303 124.434 138.563 125.422 136.848Z" fill="#FDFDF2"/>
<path d="M294.01 137.108C294.699 134.116 296.214 131.176 297.86 129.638C300.433 127.238 300.682 127.196 302.447 128.858C303.963 130.282 304.102 131.051 303.215 132.952C302.616 134.241 302.128 136.693 302.128 138.407C302.128 140.122 302.876 143.041 303.793 144.901C304.711 146.761 305.379 150.034 305.289 152.174C305.129 155.915 305.329 156.175 310.355 158.606C314.852 160.788 315.201 161.152 312.848 161.204C311.342 161.235 308.42 160.528 306.366 159.624C304.312 158.72 301.729 157.785 300.632 157.546C299.535 157.318 297.87 156.071 296.922 154.782C295.985 153.484 294.689 150.096 294.04 147.239C293.153 143.311 293.143 140.839 294.01 137.108Z" fill="#FDCD43"/>
<path d="M361.014 128.796C360.485 127.508 360.296 126.126 360.595 125.721C360.884 125.315 362.699 126.25 364.623 127.799C366.568 129.368 369.779 133.846 371.833 137.888C375.463 144.995 375.633 145.171 379.721 145.421C382.982 145.629 384.099 146.19 384.827 148.018C385.336 149.307 385.495 151.52 385.186 152.954C384.867 154.377 383.89 156.372 383.012 157.37C382.125 158.367 380.619 159.417 379.662 159.708C378.704 159.988 377.916 159.759 377.916 159.188C377.916 158.617 377.129 158.419 376.171 158.752C374.745 159.25 374.167 158.336 373.05 153.816C372.282 150.772 371.056 146.99 370.308 145.421C369.55 143.852 367.346 141.275 365.401 139.706C362.838 137.628 361.881 136.069 361.911 133.991C361.941 132.422 361.532 130.085 361.014 128.796Z" fill="#FDCD43"/>
<path d="M296.823 129.658C297.272 128.556 299.157 126.593 301.012 125.283C304.163 123.07 304.472 123.029 305.718 124.681C306.446 125.657 307.055 126.925 307.065 127.497C307.065 128.068 306.147 129.699 305.01 131.133C303.884 132.557 303.215 133.149 303.534 132.432C303.864 131.715 303.335 130.188 300.633 126.946L298.319 129.294C296.325 131.32 296.115 131.372 296.823 129.658Z" fill="#FDD551"/>
<path d="M296.444 125.98C297.102 126.011 298.249 125.305 298.997 124.421C299.745 123.549 300.672 122.821 301.051 122.821C301.44 122.821 299.815 124.92 297.451 127.497C295.088 130.074 293.104 133.222 293.034 134.51C292.954 136.163 292.814 136.318 292.535 135.03C292.326 134.033 291.707 133.212 291.159 133.212C290.611 133.212 291.309 131.57 292.705 129.575C294.101 127.57 295.786 125.959 296.444 125.98Z" fill="#431806"/>
<path d="M146.592 128.796C147.16 126.936 148.108 124.837 148.706 124.12C149.295 123.403 150.401 122.821 151.159 122.821C151.927 122.821 152.346 123.403 152.097 124.12C151.847 124.837 151.179 127.403 150.601 129.835C149.663 133.783 149.344 134.136 147.559 133.212C145.824 132.308 145.695 131.736 146.592 128.796Z" fill="#FDCD43"/>
<path d="M367.914 129.98C366.558 129.056 364.564 126.718 363.487 124.785L361.512 121.263L363.985 122.936C365.342 123.86 367.336 126.198 370.388 131.653L367.914 129.98Z" fill="#FDECA1"/>
<path d="M144.328 126.198C144.737 126.344 146.083 125.408 147.32 124.12C148.547 122.842 150.571 121.834 151.807 121.886C153.513 121.948 153.283 122.198 150.81 122.925C149.025 123.445 147.569 124.214 147.579 124.64C147.589 125.076 146.981 126.354 146.233 127.497C144.976 129.419 144.827 129.44 144.229 127.757C143.87 126.759 143.909 126.063 144.328 126.198Z" fill="#FDECA1"/>
<path d="M329.053 126.417C329.88 125.398 332.344 123.715 334.537 122.676C336.731 121.637 339.424 120.785 340.521 120.775C341.618 120.764 344.2 121.221 346.255 121.793C348.708 122.468 350.752 123.985 352.178 126.198C353.714 128.567 354.472 131.581 354.731 136.329C355.04 141.815 354.721 143.717 353.046 146.46C351.919 148.32 350.652 149.847 350.244 149.857C349.835 149.857 349.187 147.873 348.808 145.441C348.379 142.667 347.252 140.288 345.816 139.093C344.25 137.794 342.635 137.378 340.77 137.794C339.264 138.127 334.996 140.288 331.296 142.584C327.597 144.88 322.99 147.041 321.075 147.395C319.16 147.738 315.341 147.779 312.599 147.478C308.869 147.073 307.044 146.252 305.369 144.226C304.132 142.74 303.125 140.236 303.125 138.667C303.115 137.098 304.312 133.939 305.768 131.653C307.234 129.367 308.52 126.791 308.63 125.939C308.739 125.076 308.331 123.996 307.722 123.528C307.114 123.05 308.869 122.822 311.661 123.009C315.68 123.268 317.465 124.027 320.387 126.718C323.149 129.253 324.495 129.866 325.812 129.18C326.769 128.671 328.225 127.435 329.053 126.417Z" fill="#FDFDF2"/>
<path d="M359.758 125.294C359.049 124.65 358.182 123.164 357.823 121.99C357.264 120.151 357.474 119.974 359.319 120.67C360.495 121.128 362.33 123.081 365.332 128.536L363.118 126.458C361.892 125.315 360.934 124.847 360.974 125.419C361.024 126.032 360.525 125.98 359.758 125.294Z" fill="#FDD551"/>
<path d="M263.406 124.349C266.328 123.195 269.798 121.45 271.114 120.483C273.378 118.821 273.568 118.831 274.854 120.774C275.592 121.896 278.105 123.569 280.438 124.484C282.772 125.398 286.083 125.98 287.798 125.782C290.421 125.471 290.869 125.741 290.67 127.497C290.53 128.64 289.802 130.874 289.044 132.464C288.287 134.053 287.449 135.196 287.17 135.009C286.9 134.812 284.876 133.814 282.682 132.775C279.601 131.321 276.998 130.988 271.214 131.341C264.284 131.757 263.526 131.591 258.091 126.458L263.406 124.349Z" fill="#DB822B"/>
<path d="M265.839 118.426C268.791 116.847 271.463 115.081 271.763 114.509C272.062 113.938 272.68 113.47 273.129 113.47C273.578 113.47 273.887 114.27 273.827 115.257C273.747 116.39 275.532 118.094 278.693 119.902C281.436 121.481 284.916 122.78 286.422 122.801C287.927 122.811 291.747 121.866 294.898 120.692C298.049 119.528 301.081 118.468 301.629 118.354C302.168 118.239 303.155 117.439 303.823 116.587C304.83 115.278 304.95 115.403 304.571 117.367C304.322 118.655 303.674 119.704 303.125 119.704C302.577 119.704 302.357 120.64 302.626 121.782C303.025 123.435 302.776 123.705 301.38 123.102C300.014 122.51 299.834 122.676 300.542 123.881C301.041 124.723 301.151 125.066 300.792 124.64C300.433 124.214 299.086 124.442 297.8 125.159C296.523 125.876 294.28 127.975 292.814 129.835C291.358 131.695 290.6 133.326 291.139 133.472C291.667 133.617 292.355 135.363 292.654 137.368C293.063 140.153 292.973 140.516 292.245 138.927C291.428 137.129 291.288 137.098 291.228 138.667C291.175 139.872 290.238 140.568 288.416 140.755C286.91 140.901 284.557 140.163 283.181 139.114C281.815 138.064 278.444 136.952 275.702 136.63C272.82 136.298 269.768 136.547 268.472 137.233C266.677 138.168 266.029 138.095 265.231 136.849C264.513 135.726 264.702 134.781 265.909 133.472C267.145 132.131 269.17 131.653 273.637 131.653C277.995 131.653 280.877 132.308 288.167 136.329L290.181 131.394C291.298 128.682 292.196 126.105 292.176 125.679C292.166 125.253 290.141 124.9 287.668 124.9C285.205 124.9 281.944 124.401 280.438 123.788C278.933 123.185 276.799 121.751 275.702 120.608C273.714 118.537 273.707 118.541 268.275 121.669L268.222 121.699C265.211 123.435 261.95 124.868 260.993 124.879C259.766 124.889 259.427 124.37 259.856 123.102C260.185 122.115 262.877 120.006 265.839 118.426Z" fill="#55200B"/>
<path d="M310.714 114.249C309.517 111.33 309.527 110.384 310.824 107.298L312.309 103.734L313.008 107.298C313.396 109.262 313.307 111.808 312.818 112.951C312.329 114.094 312.19 115.611 312.509 116.328C312.838 117.044 312.878 117.626 312.599 117.626C312.329 117.626 311.472 116.109 310.714 114.249Z" fill="#55200B"/>
<path d="M210.145 112.524C210.833 111.61 212.339 108.649 213.485 105.937C214.632 103.225 215.779 101.001 216.038 101.001C216.308 101.001 216.706 101.708 216.936 102.56C217.175 103.412 216.916 103.88 216.367 103.599C215.819 103.319 215.34 103.661 215.31 104.378C215.27 105.095 215.28 109.885 215.32 115.029C215.37 120.172 215.031 125.783 214.562 127.497C213.944 129.814 213.107 130.645 211.312 130.718C209.975 130.77 207.432 131.123 205.647 131.497C203.862 131.871 202.406 132.64 202.406 133.212C202.406 133.783 201.06 134.957 199.415 135.809C197.49 136.817 196.333 136.973 196.174 136.266C196.004 135.508 194.987 135.55 192.933 136.391C191.287 137.077 188.216 137.69 186.112 137.763C183.998 137.835 182.093 138.241 181.874 138.667C181.644 139.093 179.779 139.456 177.725 139.477C175.013 139.487 173.298 138.771 171.493 136.848C170.116 135.394 168.441 134.209 167.753 134.22C167.065 134.24 166.497 133.897 166.487 133.471C166.467 133.045 167.703 132.37 169.229 131.975C170.745 131.58 173.567 129.845 178.972 124.993L172.988 120.006L175.093 115.964C176.249 113.73 178.413 110.976 179.909 109.833C181.724 108.441 184.177 107.755 187.388 107.755C191.626 107.755 192.693 108.264 196.792 112.171C199.335 114.603 202.077 116.587 202.905 116.587C203.733 116.587 205.408 116.047 206.645 115.382C207.881 114.717 209.457 113.428 210.145 112.524Z" fill="#FDD551"/>
<path d="M307.653 105.417C307.403 104.991 307.872 103.588 308.7 102.3C309.527 101.012 310.574 99.9621 311.033 99.9621C311.482 99.9621 311.691 100.669 311.482 101.521C311.273 102.373 311.103 103.786 311.103 104.638C311.103 105.49 310.435 106.196 309.607 106.196C308.779 106.196 307.902 105.843 307.653 105.417Z" fill="#FDCD43"/>
<path d="M237.139 104.814C237.05 102.903 237.349 101.032 237.797 100.648C238.256 100.274 239.872 100.076 241.387 100.222C243.761 100.44 244.07 100.845 243.621 103.079C243.282 104.731 243.691 106.238 244.738 107.235C245.636 108.087 246.354 109.729 246.324 110.872C246.294 112.015 246.942 114 247.77 115.288C249.106 117.366 249.106 117.688 247.78 118.145C246.952 118.426 244.938 117.73 243.292 116.587C241.647 115.444 239.632 113.106 238.805 111.392C237.977 109.677 237.229 106.716 237.139 104.814Z" fill="#FDCD43"/>
<path d="M216.866 102.04C216.507 100.554 217.115 99.5465 219 98.5075C221.184 97.2918 222.081 97.2814 224.235 98.3932C225.671 99.1413 227.566 100.617 228.454 101.677C229.351 102.736 230.408 105.469 230.817 107.755C231.226 110.041 233.19 114.374 235.185 117.376C237.179 120.379 238.575 122.966 238.306 123.122C238.027 123.278 234.945 124.795 231.455 126.489C227.955 128.182 223.807 131.092 222.231 132.952C220.655 134.811 219.13 137.96 218.86 139.965C218.581 141.97 217.913 143.363 217.364 143.082C216.816 142.802 215.699 143.737 214.871 145.16C214.044 146.594 211.92 148.433 210.135 149.264C207.801 150.355 205.916 150.511 203.403 149.846C201.489 149.337 199.385 148.309 198.726 147.56C198.078 146.812 197.29 144.215 196.981 141.783C196.463 137.669 196.622 137.264 199.415 135.809C201.06 134.957 202.406 133.783 202.406 133.211C202.406 132.64 203.862 131.871 205.647 131.497C207.432 131.123 209.975 130.77 211.311 130.718C213.106 130.645 213.944 129.814 214.562 127.497C215.031 125.782 215.37 120.171 215.32 115.028C215.28 109.885 215.27 105.095 215.31 104.378C215.34 103.661 215.819 103.318 216.367 103.599C216.936 103.9 217.155 103.225 216.866 102.04Z" fill="#FDCD43"/>
<path d="M318.821 99.2556C318.669 97.7455 319.257 96.8346 320.587 96.5229C321.674 96.2631 324.815 96.0034 327.557 95.941C330.299 95.8891 333.62 96.419 334.936 97.1152C336.253 97.8217 338.576 100.035 340.102 102.04C341.628 104.046 343.014 107.267 343.193 109.22C343.512 112.75 343.503 112.753 337.541 114.204L337.529 114.207C334.238 115.007 329.97 116.639 328.056 117.823C324.725 119.901 324.396 119.922 320.826 118.291C318.772 117.356 316.418 116.587 315.59 116.587C314.763 116.587 313.955 116.005 313.795 115.288C313.626 114.571 314.304 112.358 315.301 110.353C316.289 108.347 317.106 104.846 317.106 102.56C317.116 99.4946 317.375 98.8088 318.084 99.9621C318.851 101.209 319.001 101.064 318.821 99.2556Z" fill="#FDCD43"/>
<path d="M300.881 100.378C299.555 98.7885 297.002 97.3443 294.649 96.8663C290.79 96.0766 290.76 96.0455 293.901 95.9208C296.015 95.8481 298.179 96.7105 300.134 98.4041C301.779 99.838 303.125 101.469 303.125 102.041C303.125 102.612 302.118 101.864 300.881 100.378Z" fill="#FDECA1"/>
<path d="M315.142 105.158C315.102 103.153 315.411 99.8901 315.83 97.8847L316.588 94.2481L316.887 98.9237C317.057 101.501 316.748 104.763 316.209 106.197C315.262 108.68 315.212 108.639 315.142 105.158Z" fill="#916F52"/>
<path d="M312.928 99.1835C313.726 99.7134 314.095 98.9757 314.095 96.8457C314.095 95.1312 314.504 93.7285 315.002 93.7285C315.521 93.7285 315.67 97.2093 315.361 101.781C315.062 106.207 314.653 110.073 314.454 110.353C314.254 110.634 313.925 110.634 313.706 110.353C313.496 110.073 312.968 107.257 312.549 104.119C311.961 99.8485 312.06 98.6016 312.928 99.1835Z" fill="#734422"/>
<path d="M313.099 99.4432C312.55 99.1626 312.102 97.5209 312.102 95.8065C312.102 93.9986 312.63 92.6894 313.348 92.6998C314.156 92.6998 314.505 93.9882 314.345 96.3364C314.206 98.3314 313.647 99.7341 313.099 99.4432Z" fill="#55200B"/>
<path d="M327.807 91.2763C325.832 91.6815 324.237 91.4737 323.718 90.7567C323.12 89.9255 323.997 89.5826 326.71 89.593C328.824 89.6034 332.344 90.4762 334.538 91.5256C336.732 92.5751 339.305 94.3206 340.242 95.4012C341.189 96.4818 342.416 99.0067 343.972 104.638L341.977 102.041C340.87 100.617 339.205 98.1547 338.258 96.5754C337.31 94.996 335.974 93.7076 335.286 93.718C334.598 93.718 333.371 93.0322 332.543 92.1698C331.506 91.0892 330.05 90.8191 327.807 91.2763Z" fill="#FEFEFE"/>
<path d="M316.598 92.9493C316.299 92.1908 317.237 91.2557 318.832 90.6946C320.338 90.1647 321.684 89.6972 321.824 89.6556C321.963 89.614 322.961 90.1543 324.058 90.8713C325.643 91.9103 326.68 91.9103 329.293 90.8297C331.078 90.1024 332.205 89.7491 331.796 90.0504C331.387 90.3621 331.716 91.318 332.544 92.1701C333.372 93.0325 334.598 93.7286 335.286 93.7286C335.974 93.7182 337.091 94.6534 337.779 95.8067C339.006 97.8432 338.976 97.8536 336.323 96.0665C334.299 94.7053 331.527 94.2481 325.364 94.2481C319.7 94.2481 316.957 93.8429 316.598 92.9493Z" fill="#FDFDF2"/>
<path d="M224.096 89.6761C225.333 89.6242 226.14 89.0527 225.891 88.3981C225.642 87.7539 225.911 87.4006 226.499 87.6188C227.078 87.837 228.294 89.167 229.192 90.5697C230.538 92.6685 230.558 92.9491 229.332 92.1802C228.504 91.6711 226.489 90.923 224.844 90.5177C222.501 89.9463 222.331 89.7592 224.096 89.6761Z" fill="#FDCD43"/>
<path d="M172.74 92.18C174.525 90.7566 177.995 88.8863 180.468 88.0343C183.35 87.0264 187.1 86.642 190.939 86.9537C194.968 87.2862 197.989 88.2109 200.183 89.8006C201.978 91.1098 204.222 93.9568 205.169 96.1284C206.565 99.339 207.273 99.9624 208.889 99.4117C209.986 99.0377 212.12 98.539 216.368 97.8844L213.466 104.378C211.861 107.953 209.617 111.922 208.48 113.21C207.313 114.519 205.189 115.558 203.654 115.579C201.709 115.6 199.814 114.384 197.172 111.423C195.117 109.116 192.195 106.945 190.69 106.591C189.184 106.238 186.491 106.238 184.706 106.591C182.921 106.945 179.87 108.753 177.915 110.613C175.971 112.472 173.897 115.631 173.308 117.626C172.401 120.764 172.51 121.439 174.116 122.582C175.143 123.31 176.429 124.079 176.978 124.297C177.526 124.525 176.629 125.907 174.984 127.383C173.338 128.858 170.416 130.583 168.502 131.217C166.587 131.851 163.934 132.204 162.618 132.006C161.302 131.809 159.916 130.957 159.537 130.095C159.158 129.243 158.2 127.133 157.413 125.419C156.296 122.988 155.209 122.219 152.516 121.948C150.322 121.73 148.438 122.198 147.381 123.247C146.463 124.151 145.456 124.899 145.137 124.899C144.828 124.899 144.568 123.85 144.568 122.562C144.578 121.273 145.466 118.676 146.563 116.784C147.68 114.841 150.173 112.618 152.287 111.683C154.351 110.758 157.831 109.948 160.025 109.864C163.775 109.719 164.084 109.47 165.121 105.615C165.719 103.36 166.956 100.004 167.863 98.1441C168.761 96.2842 170.955 93.6035 172.74 92.18Z" fill="#FDFDF2"/>
<path d="M253.264 87.4937C253.813 86.3507 255.269 84.7091 256.505 83.8467C257.742 82.9843 260.544 82.2881 262.738 82.2881C264.932 82.2985 268.283 83.1193 270.187 84.1168C272.86 85.5195 274.106 87.1924 275.672 91.494C277.058 95.2865 278.564 97.4996 280.439 98.5075C282.812 99.7647 283.749 99.7543 287.419 98.3828C289.753 97.51 292.894 96.8139 294.4 96.8243C296.025 96.8346 298.299 98.0088 299.964 99.7024C301.52 101.271 303.026 103.266 303.325 104.118C303.774 105.417 304.222 105.459 305.987 104.378C307.154 103.661 307.882 103.547 307.613 104.118C307.344 104.69 307.902 105.573 308.859 106.072C310.505 106.934 310.485 107.194 308.6 110.488C307.244 112.846 304.492 115.091 300.124 117.376C296.564 119.236 291.637 121.044 289.164 121.377C285.634 121.875 283.66 121.481 279.91 119.558C276.908 118.01 275.163 116.441 275.173 115.288C275.193 114.29 274.754 113.231 274.206 112.95C273.658 112.67 271.753 113.532 269.968 114.883C268.183 116.233 265.151 117.875 263.237 118.54C261.322 119.195 257.503 119.725 254.76 119.704C252.018 119.683 249.106 119.216 248.278 118.665C247.281 117.993 247.198 117.654 248.029 117.647C248.956 117.626 248.887 117.023 247.77 115.288C246.942 114 246.264 112.015 246.254 110.872C246.244 109.729 245.536 108.087 244.678 107.235C243.661 106.207 243.332 104.7 243.711 102.82C244.17 100.544 244.848 99.9621 247.032 99.9621C248.538 99.9518 251.23 99.0166 253.015 97.8841C254.8 96.7411 256.256 95.567 256.256 95.2865C256.256 95.0059 255.359 93.5928 254.262 92.1694C252.726 90.1744 252.497 89.0938 253.264 87.4937Z" fill="#FDD551"/>
<path d="M251.769 70.838C253.415 69.082 256.775 66.9728 259.248 66.1519C261.901 65.2688 265.77 64.8739 268.722 65.1752C271.464 65.4558 275.672 66.7338 278.076 68.0118C280.469 69.3002 283.271 71.7524 284.288 73.4668C285.306 75.1812 286.482 78.3502 287.669 84.4182L293.652 84.3871C297.561 84.3767 300.842 85.0313 303.126 86.2781C305.041 87.3275 307.324 89.5511 308.202 91.2135C309.069 92.8864 309.618 95.4216 309.418 96.8451C309.219 98.279 308.172 100.492 305.12 104.118L302.627 100.482C301.231 98.4452 298.928 96.5646 297.392 96.2009C295.886 95.8373 293.303 95.8477 291.658 96.2009C290.012 96.5646 286.871 97.1464 284.677 97.4893C281.586 97.9881 280.349 97.7179 279.193 96.2944C278.365 95.2866 277.029 92.5955 276.201 90.3096C275.373 88.0237 273.439 85.1663 271.893 83.9611C269.779 82.3298 267.605 81.7791 263.247 81.7791C258.391 81.7791 256.985 82.2155 254.821 84.3767C253.385 85.8105 252.238 87.9094 252.268 89.0523C252.298 90.1953 253.095 91.9616 254.043 92.9799C255.569 94.6216 255.588 95.006 254.262 96.388C253.435 97.24 250.971 98.2063 248.777 98.5284C245.178 99.0583 244.39 98.7258 240.65 95.1203C237.629 92.211 236.322 89.9979 235.814 86.9743C235.365 84.2624 235.594 81.8102 236.472 79.9088C237.21 78.3087 239.264 76.3241 241.049 75.4929C242.834 74.6617 245.297 73.9967 246.534 74.0071C247.77 74.0175 250.124 72.594 251.769 70.838Z" fill="#FDFDF2"/>
<path d="M259.746 59.9599C261.761 59.6586 262.947 59.004 262.558 58.4221C262.129 57.7675 263.137 57.6324 265.301 58.0377C267.185 58.3909 269.17 59.0975 269.718 59.617C270.366 60.2404 270.197 60.9054 269.22 61.5496C268.392 62.0899 265.929 62.5679 263.735 62.6094C260.584 62.6822 260.165 62.89 261.741 63.5965C263.446 64.355 263.486 64.5005 261.99 64.5628C261.033 64.6044 259.806 63.8147 259.277 62.8172C258.749 61.8198 258.3 61.5808 258.28 62.2977C258.26 63.0146 257.802 63.3575 257.253 63.077C256.705 62.7965 256.256 62.0899 256.256 61.5184C256.256 60.947 257.821 60.2404 259.746 59.9599Z" fill="#55200B"/>
<path d="M12.9918 0.373892C10.5187 0.591742 6.03117 0.591742 3.01957 0.384266C0.00797105 0.17679 2.02235 0.000435636 7.50705 0.000435636C12.9918 -0.00993816 15.4649 0.166416 12.9918 0.373892Z" fill="#CC5150"/>
<path d="M0.358998 13.7729C0.159555 17.2018 0 14.625 0 8.05824C0 1.49151 0.159555 -1.31389 0.358998 1.82401C0.558442 4.9619 0.558442 10.3441 0.358998 13.7729Z" fill="#CB8881"/>
<path d="M15.4412 511.845C11.8712 512.052 6.26681 512.052 2.97599 511.845C-0.314833 511.648 2.59704 511.482 9.4579 511.482C16.3188 511.482 19.0113 511.648 15.4412 511.845Z" fill="#CC5150"/>
</svg>
